<?xml version="1.0" encoding="UTF-8" standalone="no"?>
<!DOCTYPE svg PUBLIC "-//W3C//DTD SVG 1.1//EN" "http://www.w3.org/Graphics/SVG/1.1/DTD/svg11.dtd">
<svg width="100%" height="100%" viewBox="0 0 1040 1040" version="1.1" xmlns="http://www.w3.org/2000/svg" xmlns:xlink="http://www.w3.org/1999/xlink" xml:space="preserve" xmlns:serif="http://www.serif.com/" style="fill-rule:evenodd;clip-rule:evenodd;stroke-linecap:round;stroke-linejoin:round;stroke-miterlimit:1.5;">
    <g transform="matrix(2.63685,0,0,2.63685,-291.533,-276.872)">
        <path d="M350.461,277.651L373.731,277.651C391.55,279.05 399.099,297.125 398.829,327.897C398.744,354.631 391.713,374.88 373.735,375.952L350.461,375.952L350.461,399.889C346.06,416.956 329.528,425.459 301.951,426.165C273.312,425.173 255.902,417.04 253.44,399.4L253.44,351.908C254.432,336.77 263.516,329.676 277.5,327.453L326.135,327.34C339.193,325.358 347.409,317.16 350.461,302.331L350.461,277.651Z" style="fill:white;stroke:rgb(49,49,81);stroke-width:6.32px;"/>
    </g>
    <g transform="matrix(2.63685,0,0,2.63685,-291.533,-276.872)">
        <path d="M253.44,277.651L253.44,247.035C256.683,236.328 271.132,229.608 301.951,228.709C327.132,229.168 349.17,233.598 351.569,248.71L351.603,302.331C348.672,317.235 340.462,326.562 327.135,328.155L277.5,328.455C263.311,330.575 254.854,337.299 253.44,351.908L253.44,375.952L230.438,375.952C210.441,373.415 203.811,350.977 204.54,325.632C204.859,280.543 229.469,278.316 234.887,277.651L253.44,277.651Z" style="fill:rgb(55,184,255);stroke:rgb(49,49,81);stroke-width:6.32px;"/>
    </g>
    <g transform="matrix(2.63685,0,0,2.63685,-294.503,-273.325)">
        <circle cx="276.678" cy="253.654" r="7.002" style="fill:rgb(49,49,81);stroke:rgb(49,49,81);stroke-width:1.58px;"/>
    </g>
    <g transform="matrix(2.63685,0,0,2.63685,-161.123,108.759)">
        <circle cx="276.678" cy="253.654" r="7.002" style="fill:rgb(49,49,81);stroke:rgb(49,49,81);stroke-width:1.58px;"/>
    </g>
    <g transform="matrix(2.63685,0,0,2.63685,-296.807,-276.872)">
        <path d="M253.44,277.651L298.901,277.651" style="fill:none;stroke:rgb(49,49,81);stroke-width:6.32px;"/>
    </g>
    <g transform="matrix(2.36668,0,0,2.63685,-206.596,-276.872)">
        <path d="M353.35,375.952L304.619,375.952" style="fill:none;stroke:rgb(49,49,81);stroke-width:6.65px;"/>
    </g>
    <g transform="matrix(2.63407,0,0,2.63407,-292.632,-278.98)">
        <path d="M396.719,375.334C391.625,381.252 385.303,385.407 370.421,385.004L447.804,436.578L459.217,436.466L464.507,430.429L462.776,421.18L396.719,375.334Z" style="fill:rgb(49,49,81);stroke:rgb(49,49,81);stroke-width:1.58px;"/>
    </g>
    <g transform="matrix(2.63407,0,0,2.63407,-292.632,-278.98)">
        <path d="M211.387,377.371L151.94,421.888L148.83,429.94L154.342,436.578L164.492,436.578L239.312,384.573C228.458,384.534 219.008,384.314 211.387,377.371Z" style="fill:rgb(49,49,81);stroke:rgb(49,49,81);stroke-width:1.58px;"/>
    </g>
    <g transform="matrix(2.69353,0,0,2.69353,-301.228,-297.672)">
        <path d="M476.866,216.563L465.159,201.162L470.951,197.157L477.77,196.288L484.437,204.647L482.37,211.477L476.866,216.563" style="fill:rgb(49,49,81);stroke:rgb(49,49,81);stroke-width:1.55px;"/>
    </g>
    <g transform="matrix(2.69353,0,0,2.69353,-311.573,-292.466)">
        <path d="M368.418,269.584L395.356,251.287L407.934,242.284L421.456,258.64L393.208,277.599C387.281,271.808 379.062,269.528 368.418,269.584Z" style="fill:rgb(49,49,81);stroke:rgb(49,49,81);stroke-width:1.55px;"/>
    </g>
    <g transform="matrix(2.69353,0,0,2.69353,-19.6249,95.9527)">
        <path d="M82.29,114.445C85.963,107.305 90.609,100.998 96.109,95.423L133.644,125.438C123.102,124.87 113.508,127.739 107.188,133.447L82.29,114.445Z" style="fill:rgb(49,49,81);stroke:rgb(49,49,81);stroke-width:1.55px;"/>
    </g>
    <g transform="matrix(2.63407,0,0,2.63407,-292.632,-278.98)">
        <path d="M396.277,198.028L395.356,209.97L451.127,281.125L491.455,294.946L499.888,290.08L501.954,249.764L442.773,173.262L430.668,172.36L396.277,198.028Z" style="fill:rgb(55,184,255);stroke:rgb(55,184,255);stroke-width:1.58px;"/>
    </g>
    <g transform="matrix(2.63407,0,0,2.63407,-292.632,-278.98)">
        <path d="M221.315,192.925C221.315,192.925 223.356,202.015 221.496,203.893C195.616,230.011 175.576,260.216 160.65,294C159.503,296.595 149.658,297.86 149.658,297.86L118.289,281.492C118.289,281.492 114.053,273.874 114.948,271.635C129.799,234.482 151.905,200.854 182.217,171.213C184.723,168.763 196.817,170.323 196.817,170.323L221.315,192.925Z" style="fill:rgb(55,184,255);stroke:rgb(55,184,255);stroke-width:1.58px;"/>
    </g>
</svg>
