<?xml version="1.0" encoding="UTF-8" standalone="no"?>
<!DOCTYPE svg PUBLIC "-//W3C//DTD SVG 1.1//EN" "http://www.w3.org/Graphics/SVG/1.1/DTD/svg11.dtd">
<svg width="100%" height="100%" viewBox="0 0 1040 1040" version="1.1" xmlns="http://www.w3.org/2000/svg" xmlns:xlink="http://www.w3.org/1999/xlink" xml:space="preserve" xmlns:serif="http://www.serif.com/" style="fill-rule:evenodd;clip-rule:evenodd;stroke-linecap:round;stroke-linejoin:round;stroke-miterlimit:1.5;">
    <g transform="matrix(2.63685,0,0,2.63685,-291.533,-414.88)">
        <path d="M350.461,277.651L373.731,277.651C391.55,279.05 399.099,297.125 398.829,327.897C398.744,354.631 391.713,374.88 373.735,375.952L350.461,375.952L350.461,399.889C346.06,416.956 329.528,425.459 301.951,426.165C273.312,425.173 255.902,417.04 253.44,399.4L253.44,351.908C254.432,336.77 263.516,329.676 277.5,327.453L326.135,327.34C339.193,325.358 347.409,317.16 350.461,302.331L350.461,277.651Z" style="fill:white;stroke:rgb(49,49,81);stroke-width:6.32px;"/>
    </g>
    <g transform="matrix(2.63685,0,0,2.63685,-291.533,-414.88)">
        <path d="M253.44,277.651L253.44,247.035C256.683,236.328 271.132,229.608 301.951,228.709C327.132,229.168 349.17,233.598 351.569,248.71L351.603,302.331C348.672,317.235 340.462,326.562 327.135,328.155L277.5,328.455C263.311,330.575 254.854,337.299 253.44,351.908L253.44,375.952L230.438,375.952C210.441,373.415 203.811,350.977 204.54,325.632C204.859,280.543 229.469,278.316 234.887,277.651L253.44,277.651Z" style="fill:rgb(55,184,255);stroke:rgb(49,49,81);stroke-width:6.32px;"/>
    </g>
    <g transform="matrix(2.63685,0,0,2.63685,-294.503,-411.332)">
        <circle cx="276.678" cy="253.654" r="7.002" style="fill:rgb(49,49,81);stroke:rgb(49,49,81);stroke-width:1.58px;"/>
    </g>
    <g transform="matrix(2.63685,0,0,2.63685,-161.123,-29.2484)">
        <circle cx="276.678" cy="253.654" r="7.002" style="fill:rgb(49,49,81);stroke:rgb(49,49,81);stroke-width:1.58px;"/>
    </g>
    <g transform="matrix(2.63685,0,0,2.63685,-296.807,-414.88)">
        <path d="M253.44,277.651L298.901,277.651" style="fill:none;stroke:rgb(49,49,81);stroke-width:6.32px;"/>
    </g>
    <g transform="matrix(2.36668,0,0,2.63685,-206.596,-414.88)">
        <path d="M353.35,375.952L304.619,375.952" style="fill:none;stroke:rgb(49,49,81);stroke-width:6.65px;"/>
    </g>
    <g transform="matrix(2.63685,0,0,2.63685,-277.993,-425.596)">
        <path d="M466.346,199.658L470.951,197.157L477.77,196.288L484.437,204.647L482.37,211.477L478.157,215.277L466.346,199.658Z" style="fill:white;stroke:white;stroke-width:1.58px;"/>
    </g>
    <g transform="matrix(2.63685,0,0,2.63685,-293.491,-415.914)">
        <path d="M370.177,268.691L395.356,251.287L407.519,242.508L420.902,259.438L394.469,277.102C388.543,271.311 380.82,268.635 370.177,268.691Z" style="fill:white;stroke:white;stroke-width:1.58px;"/>
    </g>
    <g transform="matrix(2.63685,0,0,2.63685,-293.491,-415.914)">
        <path d="M396.481,374.768C391.387,380.686 386.621,385.87 371.739,385.467L447.5,437.457L459.217,436.466L464.507,430.429L462.776,421.18L396.481,374.768Z" style="fill:white;stroke:white;stroke-width:1.58px;"/>
    </g>
    <g transform="matrix(2.63685,0,0,2.63685,-293.491,-415.914)">
        <path d="M212.759,376.344L151.94,421.888L148.83,429.94L155.796,437.457L164.057,436.922L239.312,384.573C228.458,384.534 220.379,383.287 212.759,376.344Z" style="fill:white;stroke:white;stroke-width:1.58px;"/>
    </g>
    <g transform="matrix(2.63685,0,0,2.63685,-7.68562,-35.6682)">
        <path d="M82.111,117.053C85.604,109.838 89.591,103.135 95.264,97.633L133.703,126.805C123.161,126.237 111.431,128.185 105.111,133.893L82.111,117.053Z" style="fill:white;stroke:white;stroke-width:1.58px;"/>
    </g>
    <g transform="matrix(2.63685,0,0,2.63685,-293.491,-415.914)">
        <path d="M396.277,198.028L395.356,209.97L451.127,281.125L491.455,294.946L499.888,290.08L501.954,249.764L442.773,173.262L430.668,172.36L396.277,198.028Z" style="fill:rgb(55,184,255);stroke:rgb(55,184,255);stroke-width:1.58px;"/>
    </g>
    <g transform="matrix(2.63685,0,0,2.63685,-293.491,-415.914)">
        <path d="M221.315,192.925C221.315,192.925 223.356,202.015 221.496,203.893C195.616,230.011 175.576,260.216 160.65,294C159.503,296.595 149.658,297.86 149.658,297.86L118.289,281.492C118.289,281.492 114.053,273.874 114.948,271.635C129.799,234.482 151.905,200.854 182.217,171.213C184.723,168.763 196.817,170.323 196.817,170.323L221.315,192.925Z" style="fill:rgb(55,184,255);stroke:rgb(55,184,255);stroke-width:1.58px;"/>
    </g>
    <g transform="matrix(3.28555,0,0,3.28555,-385.951,-835.043)">
        <text x="157.984px" y="544.244px" style="font-family:'Futura-Medium', 'Futura', sans-serif;font-weight:500;font-size:91.309px;fill:rgb(55,184,255);">p</text>
        <text x="255px" y="544.244px" style="font-family:'Futura-Medium', 'Futura', sans-serif;font-weight:500;font-size:91.309px;fill:white;">r<tspan x="288.349px 343.232px " y="544.244px 544.244px ">on</tspan></text>
    </g>
    <g transform="matrix(5.7851,0,0,5.7851,-568.206,-194.403)">
        <path d="M150.512,173.863L158.095,173.863L165.792,183.136L162.882,188.625L150.512,173.863Z" style="fill:rgb(55,184,255);"/>
    </g>
    <g transform="matrix(5.7851,0,0,5.7851,-599.329,-161.85)">
        <path d="M174.676,168.25L181.184,168.236L166.878,192.841L160.3,192.839L174.676,168.25Z" style="fill:white;"/>
    </g>
    <g transform="matrix(2.86676,0,0,2.86676,-341.179,38.6913)">
        <circle cx="276.678" cy="253.654" r="7.002" style="fill:white;"/>
    </g>
</svg>
