<?xml version="1.0" encoding="UTF-8" standalone="no"?>
<!DOCTYPE svg PUBLIC "-//W3C//DTD SVG 1.1//EN" "http://www.w3.org/Graphics/SVG/1.1/DTD/svg11.dtd">
<svg width="100%" height="100%" viewBox="0 0 47245 70867" version="1.1" xmlns="http://www.w3.org/2000/svg" xmlns:xlink="http://www.w3.org/1999/xlink" xml:space="preserve" xmlns:serif="http://www.serif.com/" style="fill-rule:evenodd;clip-rule:evenodd;stroke-linecap:round;stroke-linejoin:round;stroke-miterlimit:1.5;">
    <g transform="matrix(3,0,0,3,-18535.5,8973.87)">
        <path d="M20424.1,3488.22L20807.5,3736.54L20807.5,4192.61" style="fill:none;stroke:rgb(175,227,255);stroke-width:33.33px;"/>
    </g>
    <g transform="matrix(3,0,0,3,-18535.5,8973.87)">
        <path d="M21183.3,3488.22L20807.5,3736.54" style="fill:none;stroke:rgb(175,227,255);stroke-width:33.33px;"/>
    </g>
    <g transform="matrix(3,0,0,3,-12271.4,22774.8)">
        <path d="M17651,12285.5L18034.4,12514L18410.2,12285.5L18793.6,12067.6L18793.6,11627.6" style="fill:none;stroke:rgb(175,227,255);stroke-width:33.33px;"/>
    </g>
    <g transform="matrix(3,0,0,3,-12271.4,22774.8)">
        <path d="M16495.9,12954L16890.3,13171.9L16890.3,13603.6L16495.9,13841.7" style="fill:none;stroke:rgb(175,227,255);stroke-width:33.33px;"/>
    </g>
    <g transform="matrix(3,0,0,3,884.446,15700.5)">
        <path d="M1036.11,8542.24L1036.11,8102.25L1413.46,7864.11L1413.46,6546.66" style="fill:none;stroke:rgb(175,227,255);stroke-width:33.33px;"/>
    </g>
    <g transform="matrix(7.79294e-17,1.27268,-1.27268,7.79294e-17,50231.9,59636.4)">
        <circle cx="2589.32" cy="3017.39" r="128.424" style="fill:rgb(49,49,81);fill-opacity:0.1;"/>
    </g>
    <g transform="matrix(7.79294e-17,1.27268,-1.27268,7.79294e-17,49081.8,53647.9)">
        <circle cx="2589.32" cy="3017.39" r="128.424" style="fill:rgb(49,49,81);fill-opacity:0.1;"/>
    </g>
    <g transform="matrix(7.79294e-17,1.27268,-1.27268,7.79294e-17,49081.8,60290.2)">
        <circle cx="2589.32" cy="3017.39" r="128.424" style="fill:rgb(49,49,81);fill-opacity:0.1;"/>
    </g>
    <g transform="matrix(7.79294e-17,1.27268,-1.27268,7.79294e-17,41056.4,59636.4)">
        <circle cx="2589.32" cy="3017.39" r="128.424" style="fill:rgb(49,49,81);fill-opacity:0.1;"/>
    </g>
    <g transform="matrix(7.79294e-17,1.27268,-1.27268,7.79294e-17,39906.3,60290.2)">
        <circle cx="2589.32" cy="3017.39" r="128.424" style="fill:rgb(49,49,81);fill-opacity:0.1;"/>
    </g>
    <g transform="matrix(7.79294e-17,1.27268,-1.27268,7.79294e-17,11417.4,2516.32)">
        <circle cx="2589.32" cy="3017.39" r="128.424" style="fill:rgb(49,49,81);fill-opacity:0.1;"/>
    </g>
    <g transform="matrix(7.79294e-17,1.27268,-1.27268,7.79294e-17,8965.02,32045.1)">
        <circle cx="2589.32" cy="3017.39" r="128.424" style="fill:rgb(175,227,255);"/>
    </g>
    <g transform="matrix(7.79294e-17,1.27268,-1.27268,7.79294e-17,8965.02,35997.5)">
        <circle cx="2589.32" cy="3017.39" r="128.424" style="fill:rgb(175,227,255);"/>
    </g>
    <g transform="matrix(7.79294e-17,1.27268,-1.27268,7.79294e-17,45672,52994.1)">
        <circle cx="2589.32" cy="3017.39" r="128.424" style="fill:rgb(49,49,81);fill-opacity:0.1;"/>
    </g>
    <g transform="matrix(7.79294e-17,1.27268,-1.27268,7.79294e-17,45672,59636.4)">
        <circle cx="2589.32" cy="3017.39" r="128.424" style="fill:rgb(49,49,81);fill-opacity:0.1;"/>
    </g>
    <g transform="matrix(7.79294e-17,1.27268,-1.27268,7.79294e-17,44521.9,53647.9)">
        <circle cx="2589.32" cy="3017.39" r="128.424" style="fill:rgb(49,49,81);fill-opacity:0.1;"/>
    </g>
    <g transform="matrix(7.79294e-17,1.27268,-1.27268,7.79294e-17,44521.9,60290.2)">
        <circle cx="2589.32" cy="3017.39" r="128.424" style="fill:rgb(49,49,81);fill-opacity:0.1;"/>
    </g>
    <g transform="matrix(7.79294e-17,1.27268,-1.27268,7.79294e-17,47727.1,11481.2)">
        <circle cx="2589.32" cy="3017.39" r="128.424" style="fill:rgb(49,49,81);fill-opacity:0.1;"/>
    </g>
    <g transform="matrix(7.79294e-17,1.27268,-1.27268,7.79294e-17,47727.1,12801.2)">
        <circle cx="2589.32" cy="3017.39" r="128.424" style="fill:rgb(49,49,81);fill-opacity:0.1;"/>
    </g>
    <g transform="matrix(7.79294e-17,1.27268,-1.27268,7.79294e-17,47727.1,16888.1)">
        <circle cx="2589.32" cy="3017.39" r="128.424" style="fill:rgb(175,227,255);"/>
    </g>
    <g transform="matrix(7.79294e-17,1.27268,-1.27268,7.79294e-17,47727.1,21039.2)">
        <circle cx="2589.32" cy="3017.39" r="128.424" style="fill:rgb(49,49,81);fill-opacity:0.1;"/>
    </g>
    <g transform="matrix(7.79294e-17,1.27268,-1.27268,7.79294e-17,46576.9,12147.4)">
        <circle cx="2589.32" cy="3017.39" r="128.424" style="fill:rgb(49,49,81);fill-opacity:0.1;"/>
    </g>
    <g transform="matrix(7.79294e-17,1.27268,-1.27268,7.79294e-17,46576.9,13455)">
        <circle cx="2589.32" cy="3017.39" r="128.424" style="fill:rgb(49,49,81);fill-opacity:0.1;"/>
    </g>
    <g transform="matrix(7.79294e-17,1.27268,-1.27268,7.79294e-17,8007.7,1862.55)">
        <circle cx="2589.32" cy="3017.39" r="128.424" style="fill:rgb(49,49,81);fill-opacity:0.1;"/>
    </g>
    <g transform="matrix(7.79294e-17,1.27268,-1.27268,7.79294e-17,6857.55,2516.32)">
        <circle cx="2589.32" cy="3017.39" r="128.424" style="fill:rgb(49,49,81);fill-opacity:0.1;"/>
    </g>
    <g transform="matrix(7.79294e-17,1.27268,-1.27268,7.79294e-17,5555.27,39326.9)">
        <circle cx="2589.32" cy="3017.39" r="128.424" style="fill:rgb(49,49,81);fill-opacity:0.1;"/>
    </g>
    <g transform="matrix(7.79294e-17,1.27268,-1.27268,7.79294e-17,50231.9,57021.4)">
        <circle cx="2589.32" cy="3017.39" r="128.424" style="fill:rgb(49,49,81);fill-opacity:0.1;"/>
    </g>
    <g transform="matrix(7.79294e-17,1.27268,-1.27268,7.79294e-17,50231.9,54362.3)">
        <circle cx="2589.32" cy="3017.39" r="128.424" style="fill:rgb(49,49,81);fill-opacity:0.1;"/>
    </g>
    <g transform="matrix(7.79294e-17,1.27268,-1.27268,7.79294e-17,50231.9,61004.6)">
        <circle cx="2589.32" cy="3017.39" r="128.424" style="fill:rgb(49,49,81);fill-opacity:0.1;"/>
    </g>
    <g transform="matrix(7.79294e-17,1.27268,-1.27268,7.79294e-17,50231.9,58341.4)">
        <circle cx="2589.32" cy="3017.39" r="128.424" style="fill:rgb(49,49,81);fill-opacity:0.1;"/>
    </g>
    <g transform="matrix(7.79294e-17,1.27268,-1.27268,7.79294e-17,50231.9,55682.3)">
        <circle cx="2589.32" cy="3017.39" r="128.424" style="fill:rgb(49,49,81);fill-opacity:0.1;"/>
    </g>
    <g transform="matrix(7.79294e-17,1.27268,-1.27268,7.79294e-17,50231.9,62324.6)">
        <circle cx="2589.32" cy="3017.39" r="128.424" style="fill:rgb(49,49,81);fill-opacity:0.1;"/>
    </g>
    <g transform="matrix(7.79294e-17,1.27268,-1.27268,7.79294e-17,49081.8,57687.6)">
        <circle cx="2589.32" cy="3017.39" r="128.424" style="fill:rgb(49,49,81);fill-opacity:0.1;"/>
    </g>
    <g transform="matrix(7.79294e-17,1.27268,-1.27268,7.79294e-17,49081.8,64363.9)">
        <circle cx="2589.32" cy="3017.39" r="128.424" style="fill:rgb(49,49,81);fill-opacity:0.1;"/>
    </g>
    <g transform="matrix(7.79294e-17,1.27268,-1.27268,7.79294e-17,49081.8,55028.5)">
        <circle cx="2589.32" cy="3017.39" r="128.424" style="fill:rgb(49,49,81);fill-opacity:0.1;"/>
    </g>
    <g transform="matrix(7.79294e-17,1.27268,-1.27268,7.79294e-17,49081.8,61670.8)">
        <circle cx="2589.32" cy="3017.39" r="128.424" style="fill:rgb(49,49,81);fill-opacity:0.1;"/>
    </g>
    <g transform="matrix(7.79294e-17,1.27268,-1.27268,7.79294e-17,49081.8,58995.1)">
        <circle cx="2589.32" cy="3017.39" r="128.424" style="fill:rgb(49,49,81);fill-opacity:0.1;"/>
    </g>
    <g transform="matrix(7.79294e-17,1.27268,-1.27268,7.79294e-17,49081.8,56336)">
        <circle cx="2589.32" cy="3017.39" r="128.424" style="fill:rgb(49,49,81);fill-opacity:0.1;"/>
    </g>
    <g transform="matrix(7.79294e-17,1.27268,-1.27268,7.79294e-17,49081.8,62978.4)">
        <circle cx="2589.32" cy="3017.39" r="128.424" style="fill:rgb(49,49,81);fill-opacity:0.1;"/>
    </g>
    <g transform="matrix(7.79294e-17,1.27268,-1.27268,7.79294e-17,41056.4,57021.4)">
        <circle cx="2589.32" cy="3017.39" r="128.424" style="fill:rgb(49,49,81);fill-opacity:0.1;"/>
    </g>
    <g transform="matrix(7.79294e-17,1.27268,-1.27268,7.79294e-17,41056.4,63697.7)">
        <circle cx="2589.32" cy="3017.39" r="128.424" style="fill:rgb(49,49,81);fill-opacity:0.1;"/>
    </g>
    <g transform="matrix(7.79294e-17,1.27268,-1.27268,7.79294e-17,41056.4,61004.6)">
        <circle cx="2589.32" cy="3017.39" r="128.424" style="fill:rgb(175,227,255);"/>
    </g>
    <g transform="matrix(7.79294e-17,1.27268,-1.27268,7.79294e-17,41056.4,58341.4)">
        <circle cx="2589.32" cy="3017.39" r="128.424" style="fill:rgb(175,227,255);"/>
    </g>
    <g transform="matrix(7.79294e-17,1.27268,-1.27268,7.79294e-17,41056.4,65017.6)">
        <circle cx="2589.32" cy="3017.39" r="128.424" style="fill:rgb(49,49,81);fill-opacity:0.1;"/>
    </g>
    <g transform="matrix(7.79294e-17,1.27268,-1.27268,7.79294e-17,41056.4,55682.3)">
        <circle cx="2589.32" cy="3017.39" r="128.424" style="fill:rgb(49,49,81);fill-opacity:0.1;"/>
    </g>
    <g transform="matrix(7.79294e-17,1.27268,-1.27268,7.79294e-17,41056.4,62324.6)">
        <circle cx="2589.32" cy="3017.39" r="128.424" style="fill:rgb(49,49,81);fill-opacity:0.1;"/>
    </g>
    <g transform="matrix(7.79294e-17,1.27268,-1.27268,7.79294e-17,39906.3,57687.6)">
        <circle cx="2589.32" cy="3017.39" r="128.424" style="fill:rgb(49,49,81);fill-opacity:0.1;"/>
    </g>
    <g transform="matrix(7.79294e-17,1.27268,-1.27268,7.79294e-17,39906.3,64363.9)">
        <circle cx="2589.32" cy="3017.39" r="128.424" style="fill:rgb(49,49,81);fill-opacity:0.1;"/>
    </g>
    <g transform="matrix(7.79294e-17,1.27268,-1.27268,7.79294e-17,39906.3,61670.8)">
        <circle cx="2589.32" cy="3017.39" r="128.424" style="fill:rgb(49,49,81);fill-opacity:0.1;"/>
    </g>
    <g transform="matrix(7.79294e-17,1.27268,-1.27268,7.79294e-17,39906.3,58995.1)">
        <circle cx="2589.32" cy="3017.39" r="128.424" style="fill:rgb(49,49,81);fill-opacity:0.1;"/>
    </g>
    <g transform="matrix(7.79294e-17,1.27268,-1.27268,7.79294e-17,39906.3,56336)">
        <circle cx="2589.32" cy="3017.39" r="128.424" style="fill:rgb(49,49,81);fill-opacity:0.1;"/>
    </g>
    <g transform="matrix(7.79294e-17,1.27268,-1.27268,7.79294e-17,39906.3,62978.4)">
        <circle cx="2589.32" cy="3017.39" r="128.424" style="fill:rgb(49,49,81);fill-opacity:0.1;"/>
    </g>
    <g transform="matrix(7.79294e-17,1.27268,-1.27268,7.79294e-17,8965.02,33425.8)">
        <circle cx="2589.32" cy="3017.39" r="128.424" style="fill:rgb(175,227,255);"/>
    </g>
    <g transform="matrix(7.79294e-17,1.27268,-1.27268,7.79294e-17,8965.02,34733.3)">
        <circle cx="2589.32" cy="3017.39" r="128.424" style="fill:rgb(175,227,255);"/>
    </g>
    <g transform="matrix(7.79294e-17,1.27268,-1.27268,7.79294e-17,45672,57021.4)">
        <circle cx="2589.32" cy="3017.39" r="128.424" style="fill:rgb(175,227,255);"/>
    </g>
    <g transform="matrix(7.79294e-17,1.27268,-1.27268,7.79294e-17,45672,63697.7)">
        <circle cx="2589.32" cy="3017.39" r="128.424" style="fill:rgb(49,49,81);fill-opacity:0.1;"/>
    </g>
    <g transform="matrix(7.79294e-17,1.27268,-1.27268,7.79294e-17,45672,54362.3)">
        <circle cx="2589.32" cy="3017.39" r="128.424" style="fill:rgb(49,49,81);fill-opacity:0.1;"/>
    </g>
    <g transform="matrix(7.79294e-17,1.27268,-1.27268,7.79294e-17,45672,61004.6)">
        <circle cx="2589.32" cy="3017.39" r="128.424" style="fill:rgb(49,49,81);fill-opacity:0.1;"/>
    </g>
    <g transform="matrix(7.79294e-17,1.27268,-1.27268,7.79294e-17,45672,51699)">
        <circle cx="2589.32" cy="3017.39" r="128.424" style="fill:rgb(49,49,81);fill-opacity:0.1;"/>
    </g>
    <g transform="matrix(7.79294e-17,1.27268,-1.27268,7.79294e-17,45672,58341.4)">
        <circle cx="2589.32" cy="3017.39" r="128.424" style="fill:rgb(49,49,81);fill-opacity:0.1;"/>
    </g>
    <g transform="matrix(7.79294e-17,1.27268,-1.27268,7.79294e-17,45672,65017.6)">
        <circle cx="2589.32" cy="3017.39" r="128.424" style="fill:rgb(49,49,81);fill-opacity:0.1;"/>
    </g>
    <g transform="matrix(7.79294e-17,1.27268,-1.27268,7.79294e-17,45672,55682.3)">
        <circle cx="2589.32" cy="3017.39" r="128.424" style="fill:rgb(49,49,81);fill-opacity:0.1;"/>
    </g>
    <g transform="matrix(7.79294e-17,1.27268,-1.27268,7.79294e-17,45672,62324.6)">
        <circle cx="2589.32" cy="3017.39" r="128.424" style="fill:rgb(49,49,81);fill-opacity:0.1;"/>
    </g>
    <g transform="matrix(7.79294e-17,1.27268,-1.27268,7.79294e-17,44521.9,51045.3)">
        <circle cx="2589.32" cy="3017.39" r="128.424" style="fill:rgb(49,49,81);fill-opacity:0.1;"/>
    </g>
    <g transform="matrix(7.79294e-17,1.27268,-1.27268,7.79294e-17,44521.9,57687.6)">
        <circle cx="2589.32" cy="3017.39" r="128.424" style="fill:rgb(49,49,81);fill-opacity:0.1;"/>
    </g>
    <g transform="matrix(7.79294e-17,1.27268,-1.27268,7.79294e-17,44521.9,64363.9)">
        <circle cx="2589.32" cy="3017.39" r="128.424" style="fill:rgb(49,49,81);fill-opacity:0.1;"/>
    </g>
    <g transform="matrix(7.79294e-17,1.27268,-1.27268,7.79294e-17,44521.9,55028.5)">
        <circle cx="2589.32" cy="3017.39" r="128.424" style="fill:rgb(49,49,81);fill-opacity:0.1;"/>
    </g>
    <g transform="matrix(7.79294e-17,1.27268,-1.27268,7.79294e-17,44521.9,61670.8)">
        <circle cx="2589.32" cy="3017.39" r="128.424" style="fill:rgb(49,49,81);fill-opacity:0.1;"/>
    </g>
    <g transform="matrix(7.79294e-17,1.27268,-1.27268,7.79294e-17,44521.9,52352.8)">
        <circle cx="2589.32" cy="3017.39" r="128.424" style="fill:rgb(49,49,81);fill-opacity:0.1;"/>
    </g>
    <g transform="matrix(7.79294e-17,1.27268,-1.27268,7.79294e-17,44521.9,58995.1)">
        <circle cx="2589.32" cy="3017.39" r="128.424" style="fill:rgb(49,49,81);fill-opacity:0.1;"/>
    </g>
    <g transform="matrix(7.79294e-17,1.27268,-1.27268,7.79294e-17,44521.9,65671.4)">
        <circle cx="2589.32" cy="3017.39" r="128.424" style="fill:rgb(49,49,81);fill-opacity:0.1;"/>
    </g>
    <g transform="matrix(7.79294e-17,1.27268,-1.27268,7.79294e-17,44521.9,56336)">
        <circle cx="2589.32" cy="3017.39" r="128.424" style="fill:rgb(175,227,255);"/>
    </g>
    <g transform="matrix(7.79294e-17,1.27268,-1.27268,7.79294e-17,44521.9,62978.4)">
        <circle cx="2589.32" cy="3017.39" r="128.424" style="fill:rgb(49,49,81);fill-opacity:0.1;"/>
    </g>
    <g transform="matrix(7.79294e-17,1.27268,-1.27268,7.79294e-17,47727.1,14169.4)">
        <circle cx="2589.32" cy="3017.39" r="128.424" style="fill:rgb(49,49,81);fill-opacity:0.1;"/>
    </g>
    <g transform="matrix(7.79294e-17,1.27268,-1.27268,7.79294e-17,47727.1,18256.3)">
        <circle cx="2589.32" cy="3017.39" r="128.424" style="fill:rgb(175,227,255);"/>
    </g>
    <g transform="matrix(7.79294e-17,1.27268,-1.27268,7.79294e-17,47727.1,22407.4)">
        <circle cx="2589.32" cy="3017.39" r="128.424" style="fill:rgb(49,49,81);fill-opacity:0.1;"/>
    </g>
    <g transform="matrix(7.79294e-17,1.27268,-1.27268,7.79294e-17,47727.1,15489.4)">
        <circle cx="2589.32" cy="3017.39" r="128.424" style="fill:rgb(49,49,81);fill-opacity:0.1;"/>
    </g>
    <g transform="matrix(7.79294e-17,1.27268,-1.27268,7.79294e-17,47727.1,19576.3)">
        <circle cx="2589.32" cy="3017.39" r="128.424" style="fill:rgb(49,49,81);fill-opacity:0.1;"/>
    </g>
    <g transform="matrix(7.79294e-17,1.27268,-1.27268,7.79294e-17,47727.1,23727.4)">
        <circle cx="2589.32" cy="3017.39" r="128.424" style="fill:rgb(49,49,81);fill-opacity:0.1;"/>
    </g>
    <g transform="matrix(7.79294e-17,1.27268,-1.27268,7.79294e-17,46576.9,14835.6)">
        <circle cx="2589.32" cy="3017.39" r="128.424" style="fill:rgb(49,49,81);fill-opacity:0.1;"/>
    </g>
    <g transform="matrix(7.79294e-17,1.27268,-1.27268,7.79294e-17,46576.9,23073.6)">
        <circle cx="2589.32" cy="3017.39" r="128.424" style="fill:rgb(49,49,81);fill-opacity:0.1;"/>
    </g>
    <g transform="matrix(7.79294e-17,1.27268,-1.27268,7.79294e-17,46576.9,16143.1)">
        <circle cx="2589.32" cy="3017.39" r="128.424" style="fill:rgb(175,227,255);"/>
    </g>
    <g transform="matrix(7.79294e-17,1.27268,-1.27268,7.79294e-17,8007.7,3230.75)">
        <circle cx="2589.32" cy="3017.39" r="128.424" style="fill:rgb(49,49,81);fill-opacity:0.1;"/>
    </g>
    <g transform="matrix(7.79294e-17,1.27268,-1.27268,7.79294e-17,5555.27,43304.8)">
        <circle cx="2589.32" cy="3017.39" r="128.424" style="fill:rgb(49,49,81);fill-opacity:0.1;"/>
    </g>
    <g transform="matrix(7.79294e-17,1.27268,-1.27268,7.79294e-17,5555.27,40695.1)">
        <circle cx="2589.32" cy="3017.39" r="128.424" style="fill:rgb(49,49,81);fill-opacity:0.1;"/>
    </g>
    <g transform="matrix(7.79294e-17,1.27268,-1.27268,7.79294e-17,5555.27,42015.1)">
        <circle cx="2589.32" cy="3017.39" r="128.424" style="fill:rgb(49,49,81);fill-opacity:0.1;"/>
    </g>
    <g transform="matrix(7.79294e-17,1.27268,-1.27268,7.79294e-17,4405.12,43971)">
        <circle cx="2589.32" cy="3017.39" r="128.424" style="fill:rgb(49,49,81);fill-opacity:0.1;"/>
    </g>
    <g transform="matrix(7.79294e-17,1.27268,-1.27268,7.79294e-17,4405.12,41361.3)">
        <circle cx="2589.32" cy="3017.39" r="128.424" style="fill:rgb(49,49,81);fill-opacity:0.1;"/>
    </g>
    <g transform="matrix(7.79294e-17,1.27268,-1.27268,7.79294e-17,4405.12,42668.9)">
        <circle cx="2589.32" cy="3017.39" r="128.424" style="fill:rgb(49,49,81);fill-opacity:0.1;"/>
    </g>
    <g transform="matrix(7.79294e-17,1.27268,-1.27268,7.79294e-17,46576.9,10766.8)">
        <circle cx="2589.32" cy="3017.39" r="128.424" style="fill:rgb(49,49,81);fill-opacity:0.1;"/>
    </g>
    <g transform="matrix(7.79294e-17,1.27268,-1.27268,7.79294e-17,47949.7,52994.1)">
        <circle cx="2589.32" cy="3017.39" r="128.424" style="fill:rgb(49,49,81);fill-opacity:0.1;"/>
    </g>
    <g transform="matrix(7.79294e-17,1.27268,-1.27268,7.79294e-17,47949.7,59636.4)">
        <circle cx="2589.32" cy="3017.39" r="128.424" style="fill:rgb(49,49,81);fill-opacity:0.1;"/>
    </g>
    <g transform="matrix(7.79294e-17,1.27268,-1.27268,7.79294e-17,46799.6,53647.9)">
        <circle cx="2589.32" cy="3017.39" r="128.424" style="fill:rgb(49,49,81);fill-opacity:0.1;"/>
    </g>
    <g transform="matrix(7.79294e-17,1.27268,-1.27268,7.79294e-17,46799.6,60290.2)">
        <circle cx="2589.32" cy="3017.39" r="128.424" style="fill:rgb(49,49,81);fill-opacity:0.1;"/>
    </g>
    <g transform="matrix(7.79294e-17,1.27268,-1.27268,7.79294e-17,50004.7,12801.2)">
        <circle cx="2589.32" cy="3017.39" r="128.424" style="fill:rgb(49,49,81);fill-opacity:0.1;"/>
    </g>
    <g transform="matrix(7.79294e-17,1.27268,-1.27268,7.79294e-17,50004.7,16888.1)">
        <circle cx="2589.32" cy="3017.39" r="128.424" style="fill:rgb(49,49,81);fill-opacity:0.1;"/>
    </g>
    <g transform="matrix(7.79294e-17,1.27268,-1.27268,7.79294e-17,50004.7,21039.2)">
        <circle cx="2589.32" cy="3017.39" r="128.424" style="fill:rgb(49,49,81);fill-opacity:0.1;"/>
    </g>
    <g transform="matrix(7.79294e-17,1.27268,-1.27268,7.79294e-17,38774.2,59636.4)">
        <circle cx="2589.32" cy="3017.39" r="128.424" style="fill:rgb(49,49,81);fill-opacity:0.1;"/>
    </g>
    <g transform="matrix(7.79294e-17,1.27268,-1.27268,7.79294e-17,48854.6,12147.4)">
        <circle cx="2589.32" cy="3017.39" r="128.424" style="fill:rgb(49,49,81);fill-opacity:0.1;"/>
    </g>
    <g transform="matrix(7.79294e-17,1.27268,-1.27268,7.79294e-17,48854.6,13455)">
        <circle cx="2589.32" cy="3017.39" r="128.424" style="fill:rgb(49,49,81);fill-opacity:0.1;"/>
    </g>
    <g transform="matrix(7.79294e-17,1.27268,-1.27268,7.79294e-17,48854.6,17541.9)">
        <circle cx="2589.32" cy="3017.39" r="128.424" style="fill:rgb(49,49,81);fill-opacity:0.1;"/>
    </g>
    <g transform="matrix(7.79294e-17,1.27268,-1.27268,7.79294e-17,48854.6,21693)">
        <circle cx="2589.32" cy="3017.39" r="128.424" style="fill:rgb(49,49,81);fill-opacity:0.1;"/>
    </g>
    <g transform="matrix(7.79294e-17,1.27268,-1.27268,7.79294e-17,37624.1,60290.2)">
        <circle cx="2589.32" cy="3017.39" r="128.424" style="fill:rgb(49,49,81);fill-opacity:0.1;"/>
    </g>
    <g transform="matrix(7.79294e-17,1.27268,-1.27268,7.79294e-17,10285.4,1862.55)">
        <circle cx="2589.32" cy="3017.39" r="128.424" style="fill:rgb(49,49,81);fill-opacity:0.1;"/>
    </g>
    <g transform="matrix(7.79294e-17,1.27268,-1.27268,7.79294e-17,9135.22,2516.32)">
        <circle cx="2589.32" cy="3017.39" r="128.424" style="fill:rgb(49,49,81);fill-opacity:0.1;"/>
    </g>
    <g transform="matrix(7.79294e-17,1.27268,-1.27268,7.79294e-17,7832.94,35343.7)">
        <circle cx="2589.32" cy="3017.39" r="128.424" style="fill:rgb(49,49,81);fill-opacity:0.1;"/>
    </g>
    <g transform="matrix(7.79294e-17,1.27268,-1.27268,7.79294e-17,7832.94,39326.9)">
        <circle cx="2589.32" cy="3017.39" r="128.424" style="fill:rgb(49,49,81);fill-opacity:0.1;"/>
    </g>
    <g transform="matrix(7.79294e-17,1.27268,-1.27268,7.79294e-17,6682.79,39980.7)">
        <circle cx="2589.32" cy="3017.39" r="128.424" style="fill:rgb(49,49,81);fill-opacity:0.1;"/>
    </g>
    <g transform="matrix(7.79294e-17,1.27268,-1.27268,7.79294e-17,43389.8,52994.1)">
        <circle cx="2589.32" cy="3017.39" r="128.424" style="fill:rgb(49,49,81);fill-opacity:0.1;"/>
    </g>
    <g transform="matrix(7.79294e-17,1.27268,-1.27268,7.79294e-17,43389.8,59636.4)">
        <circle cx="2589.32" cy="3017.39" r="128.424" style="fill:rgb(49,49,81);fill-opacity:0.1;"/>
    </g>
    <g transform="matrix(7.79294e-17,1.27268,-1.27268,7.79294e-17,42239.7,60290.2)">
        <circle cx="2589.32" cy="3017.39" r="128.424" style="fill:rgb(175,227,255);"/>
    </g>
    <g transform="matrix(7.79294e-17,1.27268,-1.27268,7.79294e-17,45444.8,11481.2)">
        <circle cx="2589.32" cy="3017.39" r="128.424" style="fill:rgb(49,49,81);fill-opacity:0.1;"/>
    </g>
    <g transform="matrix(7.79294e-17,1.27268,-1.27268,7.79294e-17,45444.8,12801.2)">
        <circle cx="2589.32" cy="3017.39" r="128.424" style="fill:rgb(49,49,81);fill-opacity:0.1;"/>
    </g>
    <g transform="matrix(7.79294e-17,1.27268,-1.27268,7.79294e-17,44294.7,12147.4)">
        <circle cx="2589.32" cy="3017.39" r="128.424" style="fill:rgb(49,49,81);fill-opacity:0.1;"/>
    </g>
    <g transform="matrix(7.79294e-17,1.27268,-1.27268,7.79294e-17,44294.7,13455)">
        <circle cx="2589.32" cy="3017.39" r="128.424" style="fill:rgb(49,49,81);fill-opacity:0.1;"/>
    </g>
    <g transform="matrix(7.79294e-17,1.27268,-1.27268,7.79294e-17,5725.47,1862.55)">
        <circle cx="2589.32" cy="3017.39" r="128.424" style="fill:rgb(49,49,81);fill-opacity:0.1;"/>
    </g>
    <g transform="matrix(7.79294e-17,1.27268,-1.27268,7.79294e-17,4575.32,2516.32)">
        <circle cx="2589.32" cy="3017.39" r="128.424" style="fill:rgb(49,49,81);fill-opacity:0.1;"/>
    </g>
    <g transform="matrix(7.79294e-17,1.27268,-1.27268,7.79294e-17,47949.7,57021.4)">
        <circle cx="2589.32" cy="3017.39" r="128.424" style="fill:rgb(49,49,81);fill-opacity:0.1;"/>
    </g>
    <g transform="matrix(7.79294e-17,1.27268,-1.27268,7.79294e-17,47949.7,63697.7)">
        <circle cx="2589.32" cy="3017.39" r="128.424" style="fill:rgb(49,49,81);fill-opacity:0.1;"/>
    </g>
    <g transform="matrix(7.79294e-17,1.27268,-1.27268,7.79294e-17,47949.7,54362.3)">
        <circle cx="2589.32" cy="3017.39" r="128.424" style="fill:rgb(175,227,255);"/>
    </g>
    <g transform="matrix(7.79294e-17,1.27268,-1.27268,7.79294e-17,47949.7,61004.6)">
        <circle cx="2589.32" cy="3017.39" r="128.424" style="fill:rgb(49,49,81);fill-opacity:0.1;"/>
    </g>
    <g transform="matrix(7.79294e-17,1.27268,-1.27268,7.79294e-17,47949.7,58341.4)">
        <circle cx="2589.32" cy="3017.39" r="128.424" style="fill:rgb(49,49,81);fill-opacity:0.1;"/>
    </g>
    <g transform="matrix(7.79294e-17,1.27268,-1.27268,7.79294e-17,47949.7,65017.6)">
        <circle cx="2589.32" cy="3017.39" r="128.424" style="fill:rgb(49,49,81);fill-opacity:0.1;"/>
    </g>
    <g transform="matrix(7.79294e-17,1.27268,-1.27268,7.79294e-17,47949.7,55682.3)">
        <circle cx="2589.32" cy="3017.39" r="128.424" style="fill:rgb(175,227,255);"/>
    </g>
    <g transform="matrix(7.79294e-17,1.27268,-1.27268,7.79294e-17,47949.7,62324.6)">
        <circle cx="2589.32" cy="3017.39" r="128.424" style="fill:rgb(49,49,81);fill-opacity:0.1;"/>
    </g>
    <g transform="matrix(7.79294e-17,1.27268,-1.27268,7.79294e-17,46799.6,57687.6)">
        <circle cx="2589.32" cy="3017.39" r="128.424" style="fill:rgb(49,49,81);fill-opacity:0.1;"/>
    </g>
    <g transform="matrix(7.79294e-17,1.27268,-1.27268,7.79294e-17,46799.6,64363.9)">
        <circle cx="2589.32" cy="3017.39" r="128.424" style="fill:rgb(49,49,81);fill-opacity:0.1;"/>
    </g>
    <g transform="matrix(7.79294e-17,1.27268,-1.27268,7.79294e-17,46799.6,55028.5)">
        <circle cx="2589.32" cy="3017.39" r="128.424" style="fill:rgb(49,49,81);fill-opacity:0.1;"/>
    </g>
    <g transform="matrix(7.79294e-17,1.27268,-1.27268,7.79294e-17,46799.6,61670.8)">
        <circle cx="2589.32" cy="3017.39" r="128.424" style="fill:rgb(49,49,81);fill-opacity:0.1;"/>
    </g>
    <g transform="matrix(7.79294e-17,1.27268,-1.27268,7.79294e-17,46799.6,52352.8)">
        <circle cx="2589.32" cy="3017.39" r="128.424" style="fill:rgb(49,49,81);fill-opacity:0.1;"/>
    </g>
    <g transform="matrix(7.79294e-17,1.27268,-1.27268,7.79294e-17,46799.6,58995.1)">
        <circle cx="2589.32" cy="3017.39" r="128.424" style="fill:rgb(49,49,81);fill-opacity:0.1;"/>
    </g>
    <g transform="matrix(7.79294e-17,1.27268,-1.27268,7.79294e-17,46799.6,65671.4)">
        <circle cx="2589.32" cy="3017.39" r="128.424" style="fill:rgb(49,49,81);fill-opacity:0.1;"/>
    </g>
    <g transform="matrix(7.79294e-17,1.27268,-1.27268,7.79294e-17,46799.6,56336)">
        <circle cx="2589.32" cy="3017.39" r="128.424" style="fill:rgb(175,227,255);"/>
    </g>
    <g transform="matrix(7.79294e-17,1.27268,-1.27268,7.79294e-17,46799.6,62978.4)">
        <circle cx="2589.32" cy="3017.39" r="128.424" style="fill:rgb(49,49,81);fill-opacity:0.1;"/>
    </g>
    <g transform="matrix(7.79294e-17,1.27268,-1.27268,7.79294e-17,50004.7,14169.4)">
        <circle cx="2589.32" cy="3017.39" r="128.424" style="fill:rgb(49,49,81);fill-opacity:0.1;"/>
    </g>
    <g transform="matrix(7.79294e-17,1.27268,-1.27268,7.79294e-17,50004.7,18256.3)">
        <circle cx="2589.32" cy="3017.39" r="128.424" style="fill:rgb(49,49,81);fill-opacity:0.1;"/>
    </g>
    <g transform="matrix(7.79294e-17,1.27268,-1.27268,7.79294e-17,50004.7,22407.4)">
        <circle cx="2589.32" cy="3017.39" r="128.424" style="fill:rgb(49,49,81);fill-opacity:0.1;"/>
    </g>
    <g transform="matrix(7.79294e-17,1.27268,-1.27268,7.79294e-17,38774.2,57021.4)">
        <circle cx="2589.32" cy="3017.39" r="128.424" style="fill:rgb(49,49,81);fill-opacity:0.1;"/>
    </g>
    <g transform="matrix(7.79294e-17,1.27268,-1.27268,7.79294e-17,38774.2,63697.7)">
        <circle cx="2589.32" cy="3017.39" r="128.424" style="fill:rgb(49,49,81);fill-opacity:0.1;"/>
    </g>
    <g transform="matrix(7.79294e-17,1.27268,-1.27268,7.79294e-17,38774.2,61004.6)">
        <circle cx="2589.32" cy="3017.39" r="128.424" style="fill:rgb(49,49,81);fill-opacity:0.1;"/>
    </g>
    <g transform="matrix(7.79294e-17,1.27268,-1.27268,7.79294e-17,50004.7,15489.4)">
        <circle cx="2589.32" cy="3017.39" r="128.424" style="fill:rgb(49,49,81);fill-opacity:0.1;"/>
    </g>
    <g transform="matrix(7.79294e-17,1.27268,-1.27268,7.79294e-17,50004.7,19576.3)">
        <circle cx="2589.32" cy="3017.39" r="128.424" style="fill:rgb(49,49,81);fill-opacity:0.1;"/>
    </g>
    <g transform="matrix(7.79294e-17,1.27268,-1.27268,7.79294e-17,38774.2,58341.4)">
        <circle cx="2589.32" cy="3017.39" r="128.424" style="fill:rgb(49,49,81);fill-opacity:0.1;"/>
    </g>
    <g transform="matrix(7.79294e-17,1.27268,-1.27268,7.79294e-17,38774.2,62324.6)">
        <circle cx="2589.32" cy="3017.39" r="128.424" style="fill:rgb(49,49,81);fill-opacity:0.1;"/>
    </g>
    <g transform="matrix(7.79294e-17,1.27268,-1.27268,7.79294e-17,48854.6,14835.6)">
        <circle cx="2589.32" cy="3017.39" r="128.424" style="fill:rgb(49,49,81);fill-opacity:0.1;"/>
    </g>
    <g transform="matrix(7.79294e-17,1.27268,-1.27268,7.79294e-17,48854.6,18922.5)">
        <circle cx="2589.32" cy="3017.39" r="128.424" style="fill:rgb(49,49,81);fill-opacity:0.1;"/>
    </g>
    <g transform="matrix(7.79294e-17,1.27268,-1.27268,7.79294e-17,48854.6,23073.6)">
        <circle cx="2589.32" cy="3017.39" r="128.424" style="fill:rgb(49,49,81);fill-opacity:0.1;"/>
    </g>
    <g transform="matrix(7.79294e-17,1.27268,-1.27268,7.79294e-17,37624.1,61670.8)">
        <circle cx="2589.32" cy="3017.39" r="128.424" style="fill:rgb(49,49,81);fill-opacity:0.1;"/>
    </g>
    <g transform="matrix(7.79294e-17,1.27268,-1.27268,7.79294e-17,48854.6,16143.1)">
        <circle cx="2589.32" cy="3017.39" r="128.424" style="fill:rgb(175,227,255);"/>
    </g>
    <g transform="matrix(7.79294e-17,1.27268,-1.27268,7.79294e-17,48854.6,20230)">
        <circle cx="2589.32" cy="3017.39" r="128.424" style="fill:rgb(49,49,81);fill-opacity:0.1;"/>
    </g>
    <g transform="matrix(7.79294e-17,1.27268,-1.27268,7.79294e-17,37624.1,62978.4)">
        <circle cx="2589.32" cy="3017.39" r="128.424" style="fill:rgb(49,49,81);fill-opacity:0.1;"/>
    </g>
    <g transform="matrix(7.79294e-17,1.27268,-1.27268,7.79294e-17,10285.4,3230.75)">
        <circle cx="2589.32" cy="3017.39" r="128.424" style="fill:rgb(49,49,81);fill-opacity:0.1;"/>
    </g>
    <g transform="matrix(7.79294e-17,1.27268,-1.27268,7.79294e-17,7832.94,36711.9)">
        <circle cx="2589.32" cy="3017.39" r="128.424" style="fill:rgb(175,227,255);"/>
    </g>
    <g transform="matrix(7.79294e-17,1.27268,-1.27268,7.79294e-17,7832.94,40695.1)">
        <circle cx="2589.32" cy="3017.39" r="128.424" style="fill:rgb(49,49,81);fill-opacity:0.1;"/>
    </g>
    <g transform="matrix(7.79294e-17,1.27268,-1.27268,7.79294e-17,7832.94,38031.9)">
        <circle cx="2589.32" cy="3017.39" r="128.424" style="fill:rgb(175,227,255);"/>
    </g>
    <g transform="matrix(7.79294e-17,1.27268,-1.27268,7.79294e-17,6682.79,41361.3)">
        <circle cx="2589.32" cy="3017.39" r="128.424" style="fill:rgb(49,49,81);fill-opacity:0.1;"/>
    </g>
    <g transform="matrix(7.79294e-17,1.27268,-1.27268,7.79294e-17,6682.79,38685.6)">
        <circle cx="2589.32" cy="3017.39" r="128.424" style="fill:rgb(49,49,81);fill-opacity:0.1;"/>
    </g>
    <g transform="matrix(7.79294e-17,1.27268,-1.27268,7.79294e-17,43389.8,50379.1)">
        <circle cx="2589.32" cy="3017.39" r="128.424" style="fill:rgb(49,49,81);fill-opacity:0.1;"/>
    </g>
    <g transform="matrix(7.79294e-17,1.27268,-1.27268,7.79294e-17,43389.8,57021.4)">
        <circle cx="2589.32" cy="3017.39" r="128.424" style="fill:rgb(49,49,81);fill-opacity:0.1;"/>
    </g>
    <g transform="matrix(7.79294e-17,1.27268,-1.27268,7.79294e-17,43389.8,63697.7)">
        <circle cx="2589.32" cy="3017.39" r="128.424" style="fill:rgb(49,49,81);fill-opacity:0.1;"/>
    </g>
    <g transform="matrix(7.79294e-17,1.27268,-1.27268,7.79294e-17,43389.8,54362.3)">
        <circle cx="2589.32" cy="3017.39" r="128.424" style="fill:rgb(49,49,81);fill-opacity:0.1;"/>
    </g>
    <g transform="matrix(7.79294e-17,1.27268,-1.27268,7.79294e-17,43389.8,61004.6)">
        <circle cx="2589.32" cy="3017.39" r="128.424" style="fill:rgb(49,49,81);fill-opacity:0.1;"/>
    </g>
    <g transform="matrix(7.79294e-17,1.27268,-1.27268,7.79294e-17,43389.8,51699)">
        <circle cx="2589.32" cy="3017.39" r="128.424" style="fill:rgb(49,49,81);fill-opacity:0.1;"/>
    </g>
    <g transform="matrix(7.79294e-17,1.27268,-1.27268,7.79294e-17,43389.8,58341.4)">
        <circle cx="2589.32" cy="3017.39" r="128.424" style="fill:rgb(49,49,81);fill-opacity:0.1;"/>
    </g>
    <g transform="matrix(7.79294e-17,1.27268,-1.27268,7.79294e-17,43389.8,65017.6)">
        <circle cx="2589.32" cy="3017.39" r="128.424" style="fill:rgb(49,49,81);fill-opacity:0.1;"/>
    </g>
    <g transform="matrix(7.79294e-17,1.27268,-1.27268,7.79294e-17,43389.8,55682.3)">
        <circle cx="2589.32" cy="3017.39" r="128.424" style="fill:rgb(49,49,81);fill-opacity:0.1;"/>
    </g>
    <g transform="matrix(7.79294e-17,1.27268,-1.27268,7.79294e-17,43389.8,62324.6)">
        <circle cx="2589.32" cy="3017.39" r="128.424" style="fill:rgb(49,49,81);fill-opacity:0.1;"/>
    </g>
    <g transform="matrix(7.79294e-17,1.27268,-1.27268,7.79294e-17,42239.7,57687.6)">
        <circle cx="2589.32" cy="3017.39" r="128.424" style="fill:rgb(49,49,81);fill-opacity:0.1;"/>
    </g>
    <g transform="matrix(7.79294e-17,1.27268,-1.27268,7.79294e-17,42239.7,64363.9)">
        <circle cx="2589.32" cy="3017.39" r="128.424" style="fill:rgb(49,49,81);fill-opacity:0.1;"/>
    </g>
    <g transform="matrix(7.79294e-17,1.27268,-1.27268,7.79294e-17,42239.7,55028.5)">
        <circle cx="2589.32" cy="3017.39" r="128.424" style="fill:rgb(49,49,81);fill-opacity:0.1;"/>
    </g>
    <g transform="matrix(7.79294e-17,1.27268,-1.27268,7.79294e-17,42239.7,61670.8)">
        <circle cx="2589.32" cy="3017.39" r="128.424" style="fill:rgb(49,49,81);fill-opacity:0.1;"/>
    </g>
    <g transform="matrix(7.79294e-17,1.27268,-1.27268,7.79294e-17,42239.7,58995.1)">
        <circle cx="2589.32" cy="3017.39" r="128.424" style="fill:rgb(175,227,255);"/>
    </g>
    <g transform="matrix(7.79294e-17,1.27268,-1.27268,7.79294e-17,42239.7,65671.4)">
        <circle cx="2589.32" cy="3017.39" r="128.424" style="fill:rgb(49,49,81);fill-opacity:0.1;"/>
    </g>
    <g transform="matrix(7.79294e-17,1.27268,-1.27268,7.79294e-17,42239.7,56336)">
        <circle cx="2589.32" cy="3017.39" r="128.424" style="fill:rgb(49,49,81);fill-opacity:0.1;"/>
    </g>
    <g transform="matrix(7.79294e-17,1.27268,-1.27268,7.79294e-17,42239.7,62978.4)">
        <circle cx="2589.32" cy="3017.39" r="128.424" style="fill:rgb(49,49,81);fill-opacity:0.1;"/>
    </g>
    <g transform="matrix(7.79294e-17,1.27268,-1.27268,7.79294e-17,45444.8,14169.4)">
        <circle cx="2589.32" cy="3017.39" r="128.424" style="fill:rgb(49,49,81);fill-opacity:0.1;"/>
    </g>
    <g transform="matrix(7.79294e-17,1.27268,-1.27268,7.79294e-17,45444.8,15489.4)">
        <circle cx="2589.32" cy="3017.39" r="128.424" style="fill:rgb(49,49,81);fill-opacity:0.1;"/>
    </g>
    <g transform="matrix(7.79294e-17,1.27268,-1.27268,7.79294e-17,44294.7,14835.6)">
        <circle cx="2589.32" cy="3017.39" r="128.424" style="fill:rgb(49,49,81);fill-opacity:0.1;"/>
    </g>
    <g transform="matrix(7.79294e-17,1.27268,-1.27268,7.79294e-17,5725.47,3230.75)">
        <circle cx="2589.32" cy="3017.39" r="128.424" style="fill:rgb(49,49,81);fill-opacity:0.1;"/>
    </g>
</svg>
