<?xml version="1.0" encoding="UTF-8" standalone="no"?>
<!DOCTYPE svg PUBLIC "-//W3C//DTD SVG 1.1//EN" "http://www.w3.org/Graphics/SVG/1.1/DTD/svg11.dtd">
<svg width="100%" height="100%" viewBox="0 0 35434 88583" version="1.1" xmlns="http://www.w3.org/2000/svg" xmlns:xlink="http://www.w3.org/1999/xlink" xml:space="preserve" xmlns:serif="http://www.serif.com/" style="fill-rule:evenodd;clip-rule:evenodd;stroke-linecap:round;stroke-linejoin:round;stroke-miterlimit:1.5;">
    <g transform="matrix(3,0,0,3,-29430.4,11860)">
        <path d="M20424.1,3488.22L20807.5,3736.54L20807.5,4192.61" style="fill:none;stroke:rgb(175,227,255);stroke-width:33.33px;"/>
    </g>
    <g transform="matrix(3,0,0,3,-29430.4,11860)">
        <path d="M21183.3,3488.22L20807.5,3736.54" style="fill:none;stroke:rgb(175,227,255);stroke-width:33.33px;"/>
    </g>
    <g transform="matrix(3,0,0,3,-24533.3,41585.9)">
        <path d="M17651,12285.5L18034.4,12514L18410.2,12285.5L18793.6,12067.6L18793.6,11627.6" style="fill:none;stroke:rgb(175,227,255);stroke-width:33.33px;"/>
    </g>
    <g transform="matrix(3,0,0,3,-24533.3,41585.9)">
        <path d="M16495.9,12954L16890.3,13171.9L16890.3,13603.6L16495.9,13841.7" style="fill:none;stroke:rgb(175,227,255);stroke-width:33.33px;"/>
    </g>
    <g transform="matrix(3,0,0,3,975.745,41585.9)">
        <path d="M1036.11,8542.24L1036.11,8102.25L1413.46,7864.11L1413.46,6546.66" style="fill:none;stroke:rgb(175,227,255);stroke-width:33.33px;"/>
    </g>
    <g transform="matrix(7.79294e-17,1.27268,-1.27268,7.79294e-17,14587.1,32053.4)">
        <circle cx="2589.32" cy="3017.39" r="128.424" style="fill:rgb(49,49,81);fill-opacity:0;"/>
    </g>
    <g transform="matrix(7.79294e-17,1.27268,-1.27268,7.79294e-17,14587.1,33373.4)">
        <circle cx="2589.32" cy="3017.39" r="128.424" style="fill:rgb(49,49,81);fill-opacity:0;"/>
    </g>
    <g transform="matrix(7.79294e-17,1.27268,-1.27268,7.79294e-17,13436.9,32719.6)">
        <circle cx="2589.32" cy="3017.39" r="128.424" style="fill:rgb(49,49,81);fill-opacity:0;"/>
    </g>
    <g transform="matrix(7.79294e-17,1.27268,-1.27268,7.79294e-17,13436.9,34027.2)">
        <circle cx="2589.32" cy="3017.39" r="128.424" style="fill:rgb(49,49,81);fill-opacity:0;"/>
    </g>
    <g transform="matrix(7.79294e-17,1.27268,-1.27268,7.79294e-17,14323.9,31958.7)">
        <circle cx="2589.32" cy="3017.39" r="128.424" style="fill:rgb(49,49,81);fill-opacity:0;"/>
    </g>
    <g transform="matrix(7.79294e-17,1.27268,-1.27268,7.79294e-17,14323.9,33278.6)">
        <circle cx="2589.32" cy="3017.39" r="128.424" style="fill:rgb(49,49,81);fill-opacity:0;"/>
    </g>
    <g transform="matrix(7.79294e-17,1.27268,-1.27268,7.79294e-17,14587.1,48258.8)">
        <circle cx="2589.32" cy="3017.39" r="128.424" style="fill:rgb(49,49,81);fill-opacity:0;"/>
    </g>
    <g transform="matrix(7.79294e-17,1.27268,-1.27268,7.79294e-17,14587.1,52409.9)">
        <circle cx="2589.32" cy="3017.39" r="128.424" style="fill:rgb(49,49,81);fill-opacity:0;"/>
    </g>
    <g transform="matrix(7.79294e-17,1.27268,-1.27268,7.79294e-17,14587.1,56362.3)">
        <circle cx="2589.32" cy="3017.39" r="128.424" style="fill:rgb(49,49,81);fill-opacity:0;"/>
    </g>
    <g transform="matrix(7.79294e-17,1.27268,-1.27268,7.79294e-17,28181,65212.4)">
        <circle cx="2589.32" cy="3017.39" r="128.424" style="fill:rgb(49,49,81);fill-opacity:0;"/>
    </g>
    <g transform="matrix(7.79294e-17,1.27268,-1.27268,7.79294e-17,37970,71805.2)">
        <circle cx="2589.32" cy="3017.39" r="128.424" style="fill:rgb(49,49,81);fill-opacity:0;"/>
    </g>
    <g transform="matrix(7.79294e-17,1.27268,-1.27268,7.79294e-17,37970,78447.6)">
        <circle cx="2589.32" cy="3017.39" r="128.424" style="fill:rgb(49,49,81);fill-opacity:0.2;"/>
    </g>
    <g transform="matrix(7.79294e-17,1.27268,-1.27268,7.79294e-17,13173.8,32624.9)">
        <circle cx="2589.32" cy="3017.39" r="128.424" style="fill:rgb(49,49,81);fill-opacity:0;"/>
    </g>
    <g transform="matrix(7.79294e-17,1.27268,-1.27268,7.79294e-17,13173.8,33932.4)">
        <circle cx="2589.32" cy="3017.39" r="128.424" style="fill:rgb(49,49,81);fill-opacity:0;"/>
    </g>
    <g transform="matrix(7.79294e-17,1.27268,-1.27268,7.79294e-17,13436.9,48912.6)">
        <circle cx="2589.32" cy="3017.39" r="128.424" style="fill:rgb(49,49,81);fill-opacity:0;"/>
    </g>
    <g transform="matrix(7.79294e-17,1.27268,-1.27268,7.79294e-17,13436.9,53063.7)">
        <circle cx="2589.32" cy="3017.39" r="128.424" style="fill:rgb(49,49,81);fill-opacity:0;"/>
    </g>
    <g transform="matrix(7.79294e-17,1.27268,-1.27268,7.79294e-17,13436.9,57016.1)">
        <circle cx="2589.32" cy="3017.39" r="128.424" style="fill:rgb(49,49,81);fill-opacity:0;"/>
    </g>
    <g transform="matrix(7.79294e-17,1.27268,-1.27268,7.79294e-17,27030.8,65866.1)">
        <circle cx="2589.32" cy="3017.39" r="128.424" style="fill:rgb(49,49,81);fill-opacity:0;"/>
    </g>
    <g transform="matrix(7.79294e-17,1.27268,-1.27268,7.79294e-17,36819.9,72459)">
        <circle cx="2589.32" cy="3017.39" r="128.424" style="fill:rgb(49,49,81);fill-opacity:0.2;"/>
    </g>
    <g transform="matrix(7.79294e-17,1.27268,-1.27268,7.79294e-17,36819.9,79101.4)">
        <circle cx="2589.32" cy="3017.39" r="128.424" style="fill:rgb(49,49,81);fill-opacity:0.2;"/>
    </g>
    <g transform="matrix(7.79294e-17,1.27268,-1.27268,7.79294e-17,28794.5,71805.2)">
        <circle cx="2589.32" cy="3017.39" r="128.424" style="fill:rgb(49,49,81);fill-opacity:0;"/>
    </g>
    <g transform="matrix(7.79294e-17,1.27268,-1.27268,7.79294e-17,28794.5,78447.6)">
        <circle cx="2589.32" cy="3017.39" r="128.424" style="fill:rgb(49,49,81);fill-opacity:0.2;"/>
    </g>
    <g transform="matrix(7.79294e-17,1.27268,-1.27268,7.79294e-17,27644.4,72459)">
        <circle cx="2589.32" cy="3017.39" r="128.424" style="fill:rgb(49,49,81);fill-opacity:0;"/>
    </g>
    <g transform="matrix(7.79294e-17,1.27268,-1.27268,7.79294e-17,27644.4,79101.4)">
        <circle cx="2589.32" cy="3017.39" r="128.424" style="fill:rgb(49,49,81);fill-opacity:0.2;"/>
    </g>
    <g transform="matrix(7.79294e-17,1.27268,-1.27268,7.79294e-17,32212.8,14367.4)">
        <circle cx="2589.32" cy="3017.39" r="128.424" style="fill:rgb(49,49,81);fill-opacity:0;"/>
    </g>
    <g transform="matrix(7.79294e-17,1.27268,-1.27268,7.79294e-17,32212.8,15687.4)">
        <circle cx="2589.32" cy="3017.39" r="128.424" style="fill:rgb(49,49,81);fill-opacity:0;"/>
    </g>
    <g transform="matrix(7.79294e-17,1.27268,-1.27268,7.79294e-17,32943.8,66095.9)">
        <circle cx="2589.32" cy="3017.39" r="128.424" style="fill:rgb(49,49,81);fill-opacity:0;"/>
    </g>
    <g transform="matrix(7.79294e-17,1.27268,-1.27268,7.79294e-17,10845.8,30436.2)">
        <circle cx="2589.32" cy="3017.39" r="128.424" style="fill:rgb(49,49,81);fill-opacity:0.2;"/>
    </g>
    <g transform="matrix(7.79294e-17,1.27268,-1.27268,7.79294e-17,31793.6,66749.7)">
        <circle cx="2589.32" cy="3017.39" r="128.424" style="fill:rgb(49,49,81);fill-opacity:0;"/>
    </g>
    <g transform="matrix(7.79294e-17,1.27268,-1.27268,7.79294e-17,10206.5,61229.1)">
        <circle cx="2589.32" cy="3017.39" r="128.424" style="fill:rgb(49,49,81);fill-opacity:0;"/>
    </g>
    <g transform="matrix(7.79294e-17,1.27268,-1.27268,7.79294e-17,10206.5,65212.4)">
        <circle cx="2589.32" cy="3017.39" r="128.424" style="fill:rgb(49,49,81);fill-opacity:0;"/>
    </g>
    <g transform="matrix(7.79294e-17,1.27268,-1.27268,7.79294e-17,9056.32,57930.5)">
        <circle cx="2589.32" cy="3017.39" r="128.424" style="fill:rgb(175,227,255);"/>
    </g>
    <g transform="matrix(7.79294e-17,1.27268,-1.27268,7.79294e-17,9056.32,61882.9)">
        <circle cx="2589.32" cy="3017.39" r="128.424" style="fill:rgb(175,227,255);"/>
    </g>
    <g transform="matrix(7.79294e-17,1.27268,-1.27268,7.79294e-17,9056.32,65866.1)">
        <circle cx="2589.32" cy="3017.39" r="128.424" style="fill:rgb(49,49,81);fill-opacity:0;"/>
    </g>
    <g transform="matrix(7.79294e-17,1.27268,-1.27268,7.79294e-17,33410.1,71805.2)">
        <circle cx="2589.32" cy="3017.39" r="128.424" style="fill:rgb(49,49,81);fill-opacity:0.2;"/>
    </g>
    <g transform="matrix(7.79294e-17,1.27268,-1.27268,7.79294e-17,33410.1,78447.6)">
        <circle cx="2589.32" cy="3017.39" r="128.424" style="fill:rgb(49,49,81);fill-opacity:0.2;"/>
    </g>
    <g transform="matrix(7.79294e-17,1.27268,-1.27268,7.79294e-17,32260,72459)">
        <circle cx="2589.32" cy="3017.39" r="128.424" style="fill:rgb(49,49,81);fill-opacity:0.2;"/>
    </g>
    <g transform="matrix(7.79294e-17,1.27268,-1.27268,7.79294e-17,32260,79101.4)">
        <circle cx="2589.32" cy="3017.39" r="128.424" style="fill:rgb(49,49,81);fill-opacity:0.2;"/>
    </g>
    <g transform="matrix(7.79294e-17,1.27268,-1.27268,7.79294e-17,36832.1,14367.4)">
        <circle cx="2589.32" cy="3017.39" r="128.424" style="fill:rgb(49,49,81);fill-opacity:0.2;"/>
    </g>
    <g transform="matrix(7.79294e-17,1.27268,-1.27268,7.79294e-17,36832.1,15687.4)">
        <circle cx="2589.32" cy="3017.39" r="128.424" style="fill:rgb(49,49,81);fill-opacity:0.2;"/>
    </g>
    <g transform="matrix(7.79294e-17,1.27268,-1.27268,7.79294e-17,36832.1,19774.3)">
        <circle cx="2589.32" cy="3017.39" r="128.424" style="fill:rgb(175,227,255);"/>
    </g>
    <g transform="matrix(7.79294e-17,1.27268,-1.27268,7.79294e-17,36832.1,23925.4)">
        <circle cx="2589.32" cy="3017.39" r="128.424" style="fill:rgb(49,49,81);fill-opacity:0.2;"/>
    </g>
    <g transform="matrix(7.79294e-17,1.27268,-1.27268,7.79294e-17,36832.1,27877.7)">
        <circle cx="2589.32" cy="3017.39" r="128.424" style="fill:rgb(49,49,81);fill-opacity:0.2;"/>
    </g>
    <g transform="matrix(7.79294e-17,1.27268,-1.27268,7.79294e-17,35682,15033.6)">
        <circle cx="2589.32" cy="3017.39" r="128.424" style="fill:rgb(49,49,81);fill-opacity:0.2;"/>
    </g>
    <g transform="matrix(7.79294e-17,1.27268,-1.27268,7.79294e-17,35682,16341.1)">
        <circle cx="2589.32" cy="3017.39" r="128.424" style="fill:rgb(49,49,81);fill-opacity:0.2;"/>
    </g>
    <g transform="matrix(7.79294e-17,1.27268,-1.27268,7.79294e-17,7436,29782.4)">
        <circle cx="2589.32" cy="3017.39" r="128.424" style="fill:rgb(49,49,81);fill-opacity:0.2;"/>
    </g>
    <g transform="matrix(7.79294e-17,1.27268,-1.27268,7.79294e-17,28383.9,66095.9)">
        <circle cx="2589.32" cy="3017.39" r="128.424" style="fill:rgb(49,49,81);fill-opacity:0;"/>
    </g>
    <g transform="matrix(7.79294e-17,1.27268,-1.27268,7.79294e-17,6285.85,30436.2)">
        <circle cx="2589.32" cy="3017.39" r="128.424" style="fill:rgb(49,49,81);fill-opacity:0.2;"/>
    </g>
    <g transform="matrix(7.79294e-17,1.27268,-1.27268,7.79294e-17,27233.7,66749.7)">
        <circle cx="2589.32" cy="3017.39" r="128.424" style="fill:rgb(49,49,81);fill-opacity:0;"/>
    </g>
    <g transform="matrix(7.79294e-17,1.27268,-1.27268,7.79294e-17,5646.57,53125.6)">
        <circle cx="2589.32" cy="3017.39" r="128.424" style="fill:rgb(49,49,81);fill-opacity:0;"/>
    </g>
    <g transform="matrix(7.79294e-17,1.27268,-1.27268,7.79294e-17,5646.57,57276.8)">
        <circle cx="2589.32" cy="3017.39" r="128.424" style="fill:rgb(49,49,81);fill-opacity:0;"/>
    </g>
    <g transform="matrix(7.79294e-17,1.27268,-1.27268,7.79294e-17,5646.57,61229.1)">
        <circle cx="2589.32" cy="3017.39" r="128.424" style="fill:rgb(49,49,81);fill-opacity:0;"/>
    </g>
    <g transform="matrix(7.79294e-17,1.27268,-1.27268,7.79294e-17,5646.57,65212.4)">
        <circle cx="2589.32" cy="3017.39" r="128.424" style="fill:rgb(49,49,81);fill-opacity:0.2;"/>
    </g>
    <g transform="matrix(7.79294e-17,1.27268,-1.27268,7.79294e-17,4496.42,53779.4)">
        <circle cx="2589.32" cy="3017.39" r="128.424" style="fill:rgb(49,49,81);fill-opacity:0;"/>
    </g>
    <g transform="matrix(7.79294e-17,1.27268,-1.27268,7.79294e-17,4496.42,57930.5)">
        <circle cx="2589.32" cy="3017.39" r="128.424" style="fill:rgb(49,49,81);fill-opacity:0;"/>
    </g>
    <g transform="matrix(7.79294e-17,1.27268,-1.27268,7.79294e-17,4496.42,61882.9)">
        <circle cx="2589.32" cy="3017.39" r="128.424" style="fill:rgb(49,49,81);fill-opacity:0;"/>
    </g>
    <g transform="matrix(7.79294e-17,1.27268,-1.27268,7.79294e-17,4496.42,65866.1)">
        <circle cx="2589.32" cy="3017.39" r="128.424" style="fill:rgb(49,49,81);fill-opacity:0;"/>
    </g>
    <g transform="matrix(7.79294e-17,1.27268,-1.27268,7.79294e-17,14587.1,34741.6)">
        <circle cx="2589.32" cy="3017.39" r="128.424" style="fill:rgb(49,49,81);fill-opacity:0;"/>
    </g>
    <g transform="matrix(7.79294e-17,1.27268,-1.27268,7.79294e-17,14323.9,25168.3)">
        <circle cx="2589.32" cy="3017.39" r="128.424" style="fill:rgb(49,49,81);fill-opacity:0;"/>
    </g>
    <g transform="matrix(7.79294e-17,1.27268,-1.27268,7.79294e-17,13173.8,24514.5)">
        <circle cx="2589.32" cy="3017.39" r="128.424" style="fill:rgb(49,49,81);fill-opacity:0;"/>
    </g>
    <g transform="matrix(7.79294e-17,1.27268,-1.27268,7.79294e-17,13173.8,25822)">
        <circle cx="2589.32" cy="3017.39" r="128.424" style="fill:rgb(49,49,81);fill-opacity:0;"/>
    </g>
    <g transform="matrix(7.79294e-17,1.27268,-1.27268,7.79294e-17,14323.9,34646.8)">
        <circle cx="2589.32" cy="3017.39" r="128.424" style="fill:rgb(49,49,81);fill-opacity:0;"/>
    </g>
    <g transform="matrix(7.79294e-17,1.27268,-1.27268,7.79294e-17,14587.1,49627)">
        <circle cx="2589.32" cy="3017.39" r="128.424" style="fill:rgb(49,49,81);fill-opacity:0;"/>
    </g>
    <g transform="matrix(7.79294e-17,1.27268,-1.27268,7.79294e-17,14587.1,53778.1)">
        <circle cx="2589.32" cy="3017.39" r="128.424" style="fill:rgb(49,49,81);fill-opacity:0;"/>
    </g>
    <g transform="matrix(7.79294e-17,1.27268,-1.27268,7.79294e-17,14587.1,57730.5)">
        <circle cx="2589.32" cy="3017.39" r="128.424" style="fill:rgb(49,49,81);fill-opacity:0;"/>
    </g>
    <g transform="matrix(7.79294e-17,1.27268,-1.27268,7.79294e-17,37970,69190.2)">
        <circle cx="2589.32" cy="3017.39" r="128.424" style="fill:rgb(49,49,81);fill-opacity:0;"/>
    </g>
    <g transform="matrix(7.79294e-17,1.27268,-1.27268,7.79294e-17,37970,75832.6)">
        <circle cx="2589.32" cy="3017.39" r="128.424" style="fill:rgb(49,49,81);fill-opacity:0.2;"/>
    </g>
    <g transform="matrix(7.79294e-17,1.27268,-1.27268,7.79294e-17,37970,66580.6)">
        <circle cx="2589.32" cy="3017.39" r="128.424" style="fill:rgb(49,49,81);fill-opacity:0;"/>
    </g>
    <g transform="matrix(7.79294e-17,1.27268,-1.27268,7.79294e-17,37970,73173.4)">
        <circle cx="2589.32" cy="3017.39" r="128.424" style="fill:rgb(49,49,81);fill-opacity:0.2;"/>
    </g>
    <g transform="matrix(7.79294e-17,1.27268,-1.27268,7.79294e-17,37970,79815.8)">
        <circle cx="2589.32" cy="3017.39" r="128.424" style="fill:rgb(49,49,81);fill-opacity:0.2;"/>
    </g>
    <g transform="matrix(7.79294e-17,1.27268,-1.27268,7.79294e-17,14323.9,35966.8)">
        <circle cx="2589.32" cy="3017.39" r="128.424" style="fill:rgb(49,49,81);fill-opacity:0;"/>
    </g>
    <g transform="matrix(7.79294e-17,1.27268,-1.27268,7.79294e-17,14587.1,50947)">
        <circle cx="2589.32" cy="3017.39" r="128.424" style="fill:rgb(49,49,81);fill-opacity:0;"/>
    </g>
    <g transform="matrix(7.79294e-17,1.27268,-1.27268,7.79294e-17,14587.1,55098.1)">
        <circle cx="2589.32" cy="3017.39" r="128.424" style="fill:rgb(49,49,81);fill-opacity:0;"/>
    </g>
    <g transform="matrix(7.79294e-17,1.27268,-1.27268,7.79294e-17,28181,63917.3)">
        <circle cx="2589.32" cy="3017.39" r="128.424" style="fill:rgb(49,49,81);fill-opacity:0;"/>
    </g>
    <g transform="matrix(7.79294e-17,1.27268,-1.27268,7.79294e-17,37970,70510.2)">
        <circle cx="2589.32" cy="3017.39" r="128.424" style="fill:rgb(49,49,81);fill-opacity:0;"/>
    </g>
    <g transform="matrix(7.79294e-17,1.27268,-1.27268,7.79294e-17,37970,77152.5)">
        <circle cx="2589.32" cy="3017.39" r="128.424" style="fill:rgb(49,49,81);fill-opacity:0.2;"/>
    </g>
    <g transform="matrix(7.79294e-17,1.27268,-1.27268,7.79294e-17,37970,67900.5)">
        <circle cx="2589.32" cy="3017.39" r="128.424" style="fill:rgb(49,49,81);fill-opacity:0;"/>
    </g>
    <g transform="matrix(7.79294e-17,1.27268,-1.27268,7.79294e-17,37970,74493.4)">
        <circle cx="2589.32" cy="3017.39" r="128.424" style="fill:rgb(49,49,81);fill-opacity:0.2;"/>
    </g>
    <g transform="matrix(7.79294e-17,1.27268,-1.27268,7.79294e-17,37970,81135.8)">
        <circle cx="2589.32" cy="3017.39" r="128.424" style="fill:rgb(49,49,81);fill-opacity:0.2;"/>
    </g>
    <g transform="matrix(7.79294e-17,1.27268,-1.27268,7.79294e-17,13173.8,35313)">
        <circle cx="2589.32" cy="3017.39" r="128.424" style="fill:rgb(49,49,81);fill-opacity:0;"/>
    </g>
    <g transform="matrix(7.79294e-17,1.27268,-1.27268,7.79294e-17,13436.9,50293.2)">
        <circle cx="2589.32" cy="3017.39" r="128.424" style="fill:rgb(49,49,81);fill-opacity:0;"/>
    </g>
    <g transform="matrix(7.79294e-17,1.27268,-1.27268,7.79294e-17,13436.9,54444.3)">
        <circle cx="2589.32" cy="3017.39" r="128.424" style="fill:rgb(49,49,81);fill-opacity:0;"/>
    </g>
    <g transform="matrix(7.79294e-17,1.27268,-1.27268,7.79294e-17,27030.8,63263.5)">
        <circle cx="2589.32" cy="3017.39" r="128.424" style="fill:rgb(49,49,81);fill-opacity:0;"/>
    </g>
    <g transform="matrix(7.79294e-17,1.27268,-1.27268,7.79294e-17,36819.9,69856.4)">
        <circle cx="2589.32" cy="3017.39" r="128.424" style="fill:rgb(49,49,81);fill-opacity:0;"/>
    </g>
    <g transform="matrix(7.79294e-17,1.27268,-1.27268,7.79294e-17,36819.9,76498.8)">
        <circle cx="2589.32" cy="3017.39" r="128.424" style="fill:rgb(49,49,81);fill-opacity:0.2;"/>
    </g>
    <g transform="matrix(7.79294e-17,1.27268,-1.27268,7.79294e-17,36819.9,83175)">
        <circle cx="2589.32" cy="3017.39" r="128.424" style="fill:rgb(49,49,81);fill-opacity:0.2;"/>
    </g>
    <g transform="matrix(7.79294e-17,1.27268,-1.27268,7.79294e-17,36819.9,67246.8)">
        <circle cx="2589.32" cy="3017.39" r="128.424" style="fill:rgb(49,49,81);fill-opacity:0;"/>
    </g>
    <g transform="matrix(7.79294e-17,1.27268,-1.27268,7.79294e-17,36819.9,73839.6)">
        <circle cx="2589.32" cy="3017.39" r="128.424" style="fill:rgb(49,49,81);fill-opacity:0.2;"/>
    </g>
    <g transform="matrix(7.79294e-17,1.27268,-1.27268,7.79294e-17,36819.9,80482)">
        <circle cx="2589.32" cy="3017.39" r="128.424" style="fill:rgb(49,49,81);fill-opacity:0.2;"/>
    </g>
    <g transform="matrix(7.79294e-17,1.27268,-1.27268,7.79294e-17,13173.8,36620.6)">
        <circle cx="2589.32" cy="3017.39" r="128.424" style="fill:rgb(49,49,81);fill-opacity:0;"/>
    </g>
    <g transform="matrix(7.79294e-17,1.27268,-1.27268,7.79294e-17,13436.9,51600.7)">
        <circle cx="2589.32" cy="3017.39" r="128.424" style="fill:rgb(49,49,81);fill-opacity:0;"/>
    </g>
    <g transform="matrix(7.79294e-17,1.27268,-1.27268,7.79294e-17,13436.9,55751.9)">
        <circle cx="2589.32" cy="3017.39" r="128.424" style="fill:rgb(49,49,81);fill-opacity:0;"/>
    </g>
    <g transform="matrix(7.79294e-17,1.27268,-1.27268,7.79294e-17,27030.8,64571.1)">
        <circle cx="2589.32" cy="3017.39" r="128.424" style="fill:rgb(49,49,81);fill-opacity:0;"/>
    </g>
    <g transform="matrix(7.79294e-17,1.27268,-1.27268,7.79294e-17,36819.9,71163.9)">
        <circle cx="2589.32" cy="3017.39" r="128.424" style="fill:rgb(49,49,81);fill-opacity:0;"/>
    </g>
    <g transform="matrix(7.79294e-17,1.27268,-1.27268,7.79294e-17,36819.9,77806.3)">
        <circle cx="2589.32" cy="3017.39" r="128.424" style="fill:rgb(49,49,81);fill-opacity:0.2;"/>
    </g>
    <g transform="matrix(7.79294e-17,1.27268,-1.27268,7.79294e-17,36819.9,68554.3)">
        <circle cx="2589.32" cy="3017.39" r="128.424" style="fill:rgb(49,49,81);fill-opacity:0;"/>
    </g>
    <g transform="matrix(7.79294e-17,1.27268,-1.27268,7.79294e-17,36819.9,75147.2)">
        <circle cx="2589.32" cy="3017.39" r="128.424" style="fill:rgb(49,49,81);fill-opacity:0.2;"/>
    </g>
    <g transform="matrix(7.79294e-17,1.27268,-1.27268,7.79294e-17,36819.9,81789.5)">
        <circle cx="2589.32" cy="3017.39" r="128.424" style="fill:rgb(49,49,81);fill-opacity:0.2;"/>
    </g>
    <g transform="matrix(7.79294e-17,1.27268,-1.27268,7.79294e-17,28794.5,69190.2)">
        <circle cx="2589.32" cy="3017.39" r="128.424" style="fill:rgb(49,49,81);fill-opacity:0;"/>
    </g>
    <g transform="matrix(7.79294e-17,1.27268,-1.27268,7.79294e-17,28794.5,75832.6)">
        <circle cx="2589.32" cy="3017.39" r="128.424" style="fill:rgb(49,49,81);fill-opacity:0.2;"/>
    </g>
    <g transform="matrix(7.79294e-17,1.27268,-1.27268,7.79294e-17,28794.5,82508.8)">
        <circle cx="2589.32" cy="3017.39" r="128.424" style="fill:rgb(49,49,81);fill-opacity:0.2;"/>
    </g>
    <g transform="matrix(7.79294e-17,1.27268,-1.27268,7.79294e-17,28794.5,66580.6)">
        <circle cx="2589.32" cy="3017.39" r="128.424" style="fill:rgb(49,49,81);fill-opacity:0;"/>
    </g>
    <g transform="matrix(7.79294e-17,1.27268,-1.27268,7.79294e-17,28794.5,73173.4)">
        <circle cx="2589.32" cy="3017.39" r="128.424" style="fill:rgb(49,49,81);fill-opacity:0;"/>
    </g>
    <g transform="matrix(7.79294e-17,1.27268,-1.27268,7.79294e-17,28794.5,79815.8)">
        <circle cx="2589.32" cy="3017.39" r="128.424" style="fill:rgb(175,227,255);"/>
    </g>
    <g transform="matrix(7.79294e-17,1.27268,-1.27268,7.79294e-17,28794.5,70510.2)">
        <circle cx="2589.32" cy="3017.39" r="128.424" style="fill:rgb(49,49,81);fill-opacity:0;"/>
    </g>
    <g transform="matrix(7.79294e-17,1.27268,-1.27268,7.79294e-17,28794.5,77152.5)">
        <circle cx="2589.32" cy="3017.39" r="128.424" style="fill:rgb(175,227,255);"/>
    </g>
    <g transform="matrix(7.79294e-17,1.27268,-1.27268,7.79294e-17,28794.5,83828.8)">
        <circle cx="2589.32" cy="3017.39" r="128.424" style="fill:rgb(49,49,81);fill-opacity:0.2;"/>
    </g>
    <g transform="matrix(7.79294e-17,1.27268,-1.27268,7.79294e-17,28794.5,67900.5)">
        <circle cx="2589.32" cy="3017.39" r="128.424" style="fill:rgb(49,49,81);fill-opacity:0;"/>
    </g>
    <g transform="matrix(7.79294e-17,1.27268,-1.27268,7.79294e-17,28794.5,74493.4)">
        <circle cx="2589.32" cy="3017.39" r="128.424" style="fill:rgb(49,49,81);fill-opacity:0.2;"/>
    </g>
    <g transform="matrix(7.79294e-17,1.27268,-1.27268,7.79294e-17,28794.5,81135.8)">
        <circle cx="2589.32" cy="3017.39" r="128.424" style="fill:rgb(49,49,81);fill-opacity:0.2;"/>
    </g>
    <g transform="matrix(7.79294e-17,1.27268,-1.27268,7.79294e-17,27644.4,69856.4)">
        <circle cx="2589.32" cy="3017.39" r="128.424" style="fill:rgb(49,49,81);fill-opacity:0;"/>
    </g>
    <g transform="matrix(7.79294e-17,1.27268,-1.27268,7.79294e-17,27644.4,76498.8)">
        <circle cx="2589.32" cy="3017.39" r="128.424" style="fill:rgb(49,49,81);fill-opacity:0.2;"/>
    </g>
    <g transform="matrix(7.79294e-17,1.27268,-1.27268,7.79294e-17,27644.4,83175)">
        <circle cx="2589.32" cy="3017.39" r="128.424" style="fill:rgb(49,49,81);fill-opacity:0.2;"/>
    </g>
    <g transform="matrix(7.79294e-17,1.27268,-1.27268,7.79294e-17,27644.4,67246.8)">
        <circle cx="2589.32" cy="3017.39" r="128.424" style="fill:rgb(49,49,81);fill-opacity:0;"/>
    </g>
    <g transform="matrix(7.79294e-17,1.27268,-1.27268,7.79294e-17,27644.4,73839.6)">
        <circle cx="2589.32" cy="3017.39" r="128.424" style="fill:rgb(49,49,81);fill-opacity:0;"/>
    </g>
    <g transform="matrix(7.79294e-17,1.27268,-1.27268,7.79294e-17,27644.4,80482)">
        <circle cx="2589.32" cy="3017.39" r="128.424" style="fill:rgb(49,49,81);fill-opacity:0.2;"/>
    </g>
    <g transform="matrix(7.79294e-17,1.27268,-1.27268,7.79294e-17,27644.4,71163.9)">
        <circle cx="2589.32" cy="3017.39" r="128.424" style="fill:rgb(49,49,81);fill-opacity:0;"/>
    </g>
    <g transform="matrix(7.79294e-17,1.27268,-1.27268,7.79294e-17,27644.4,77806.3)">
        <circle cx="2589.32" cy="3017.39" r="128.424" style="fill:rgb(49,49,81);fill-opacity:0.2;"/>
    </g>
    <g transform="matrix(7.79294e-17,1.27268,-1.27268,7.79294e-17,27644.4,84482.5)">
        <circle cx="2589.32" cy="3017.39" r="128.424" style="fill:rgb(49,49,81);fill-opacity:0;"/>
    </g>
    <g transform="matrix(7.79294e-17,1.27268,-1.27268,7.79294e-17,27644.4,68554.3)">
        <circle cx="2589.32" cy="3017.39" r="128.424" style="fill:rgb(49,49,81);fill-opacity:0;"/>
    </g>
    <g transform="matrix(7.79294e-17,1.27268,-1.27268,7.79294e-17,27644.4,75147.2)">
        <circle cx="2589.32" cy="3017.39" r="128.424" style="fill:rgb(49,49,81);fill-opacity:0.2;"/>
    </g>
    <g transform="matrix(7.79294e-17,1.27268,-1.27268,7.79294e-17,27644.4,81789.5)">
        <circle cx="2589.32" cy="3017.39" r="128.424" style="fill:rgb(49,49,81);fill-opacity:0.2;"/>
    </g>
    <g transform="matrix(7.79294e-17,1.27268,-1.27268,7.79294e-17,32212.8,17055.6)">
        <circle cx="2589.32" cy="3017.39" r="128.424" style="fill:rgb(49,49,81);fill-opacity:0;"/>
    </g>
    <g transform="matrix(7.79294e-17,1.27268,-1.27268,7.79294e-17,32943.8,67464.1)">
        <circle cx="2589.32" cy="3017.39" r="128.424" style="fill:rgb(49,49,81);fill-opacity:0;"/>
    </g>
    <g transform="matrix(7.79294e-17,1.27268,-1.27268,7.79294e-17,31793.6,65485.5)">
        <circle cx="2589.32" cy="3017.39" r="128.424" style="fill:rgb(49,49,81);fill-opacity:0;"/>
    </g>
    <g transform="matrix(7.79294e-17,1.27268,-1.27268,7.79294e-17,10206.5,62597.3)">
        <circle cx="2589.32" cy="3017.39" r="128.424" style="fill:rgb(49,49,81);fill-opacity:0;"/>
    </g>
    <g transform="matrix(7.79294e-17,1.27268,-1.27268,7.79294e-17,10206.5,69190.2)">
        <circle cx="2589.32" cy="3017.39" r="128.424" style="fill:rgb(49,49,81);fill-opacity:0;"/>
    </g>
    <g transform="matrix(7.79294e-17,1.27268,-1.27268,7.79294e-17,10206.5,66580.6)">
        <circle cx="2589.32" cy="3017.39" r="128.424" style="fill:rgb(49,49,81);fill-opacity:0;"/>
    </g>
    <g transform="matrix(7.79294e-17,1.27268,-1.27268,7.79294e-17,10206.5,63917.3)">
        <circle cx="2589.32" cy="3017.39" r="128.424" style="fill:rgb(49,49,81);fill-opacity:0;"/>
    </g>
    <g transform="matrix(7.79294e-17,1.27268,-1.27268,7.79294e-17,10206.5,67900.5)">
        <circle cx="2589.32" cy="3017.39" r="128.424" style="fill:rgb(49,49,81);fill-opacity:0;"/>
    </g>
    <g transform="matrix(7.79294e-17,1.27268,-1.27268,7.79294e-17,9056.32,51073.1)">
        <circle cx="2589.32" cy="3017.39" r="128.424" style="fill:rgb(49,49,81);fill-opacity:0;"/>
    </g>
    <g transform="matrix(7.79294e-17,1.27268,-1.27268,7.79294e-17,9056.32,59311.2)">
        <circle cx="2589.32" cy="3017.39" r="128.424" style="fill:rgb(175,227,255);"/>
    </g>
    <g transform="matrix(7.79294e-17,1.27268,-1.27268,7.79294e-17,9056.32,63263.5)">
        <circle cx="2589.32" cy="3017.39" r="128.424" style="fill:rgb(49,49,81);fill-opacity:0;"/>
    </g>
    <g transform="matrix(7.79294e-17,1.27268,-1.27268,7.79294e-17,9056.32,69856.4)">
        <circle cx="2589.32" cy="3017.39" r="128.424" style="fill:rgb(49,49,81);fill-opacity:0;"/>
    </g>
    <g transform="matrix(7.79294e-17,1.27268,-1.27268,7.79294e-17,9056.32,67246.8)">
        <circle cx="2589.32" cy="3017.39" r="128.424" style="fill:rgb(49,49,81);fill-opacity:0;"/>
    </g>
    <g transform="matrix(7.79294e-17,1.27268,-1.27268,7.79294e-17,9056.32,52380.7)">
        <circle cx="2589.32" cy="3017.39" r="128.424" style="fill:rgb(49,49,81);fill-opacity:0;"/>
    </g>
    <g transform="matrix(7.79294e-17,1.27268,-1.27268,7.79294e-17,9056.32,60618.7)">
        <circle cx="2589.32" cy="3017.39" r="128.424" style="fill:rgb(175,227,255);"/>
    </g>
    <g transform="matrix(7.79294e-17,1.27268,-1.27268,7.79294e-17,9056.32,64571.1)">
        <circle cx="2589.32" cy="3017.39" r="128.424" style="fill:rgb(49,49,81);fill-opacity:0;"/>
    </g>
    <g transform="matrix(7.79294e-17,1.27268,-1.27268,7.79294e-17,9056.32,68554.3)">
        <circle cx="2589.32" cy="3017.39" r="128.424" style="fill:rgb(49,49,81);fill-opacity:0;"/>
    </g>
    <g transform="matrix(7.79294e-17,1.27268,-1.27268,7.79294e-17,33410.1,69190.2)">
        <circle cx="2589.32" cy="3017.39" r="128.424" style="fill:rgb(49,49,81);fill-opacity:0;"/>
    </g>
    <g transform="matrix(7.79294e-17,1.27268,-1.27268,7.79294e-17,33410.1,75832.6)">
        <circle cx="2589.32" cy="3017.39" r="128.424" style="fill:rgb(175,227,255);"/>
    </g>
    <g transform="matrix(7.79294e-17,1.27268,-1.27268,7.79294e-17,33410.1,82508.8)">
        <circle cx="2589.32" cy="3017.39" r="128.424" style="fill:rgb(49,49,81);fill-opacity:0.2;"/>
    </g>
    <g transform="matrix(7.79294e-17,1.27268,-1.27268,7.79294e-17,33410.1,66580.6)">
        <circle cx="2589.32" cy="3017.39" r="128.424" style="fill:rgb(49,49,81);fill-opacity:0;"/>
    </g>
    <g transform="matrix(7.79294e-17,1.27268,-1.27268,7.79294e-17,33410.1,73173.4)">
        <circle cx="2589.32" cy="3017.39" r="128.424" style="fill:rgb(49,49,81);fill-opacity:0.2;"/>
    </g>
    <g transform="matrix(7.79294e-17,1.27268,-1.27268,7.79294e-17,33410.1,79815.8)">
        <circle cx="2589.32" cy="3017.39" r="128.424" style="fill:rgb(49,49,81);fill-opacity:0.2;"/>
    </g>
    <g transform="matrix(7.79294e-17,1.27268,-1.27268,7.79294e-17,33410.1,70510.2)">
        <circle cx="2589.32" cy="3017.39" r="128.424" style="fill:rgb(49,49,81);fill-opacity:0.2;"/>
    </g>
    <g transform="matrix(7.79294e-17,1.27268,-1.27268,7.79294e-17,33410.1,77152.5)">
        <circle cx="2589.32" cy="3017.39" r="128.424" style="fill:rgb(49,49,81);fill-opacity:0.2;"/>
    </g>
    <g transform="matrix(7.79294e-17,1.27268,-1.27268,7.79294e-17,33410.1,83828.8)">
        <circle cx="2589.32" cy="3017.39" r="128.424" style="fill:rgb(49,49,81);fill-opacity:0.2;"/>
    </g>
    <g transform="matrix(7.79294e-17,1.27268,-1.27268,7.79294e-17,33410.1,67900.5)">
        <circle cx="2589.32" cy="3017.39" r="128.424" style="fill:rgb(49,49,81);fill-opacity:0;"/>
    </g>
    <g transform="matrix(7.79294e-17,1.27268,-1.27268,7.79294e-17,33410.1,74493.4)">
        <circle cx="2589.32" cy="3017.39" r="128.424" style="fill:rgb(49,49,81);fill-opacity:0.2;"/>
    </g>
    <g transform="matrix(7.79294e-17,1.27268,-1.27268,7.79294e-17,33410.1,81135.8)">
        <circle cx="2589.32" cy="3017.39" r="128.424" style="fill:rgb(49,49,81);fill-opacity:0.2;"/>
    </g>
    <g transform="matrix(7.79294e-17,1.27268,-1.27268,7.79294e-17,32260,69856.4)">
        <circle cx="2589.32" cy="3017.39" r="128.424" style="fill:rgb(49,49,81);fill-opacity:0.2;"/>
    </g>
    <g transform="matrix(7.79294e-17,1.27268,-1.27268,7.79294e-17,32260,76498.8)">
        <circle cx="2589.32" cy="3017.39" r="128.424" style="fill:rgb(49,49,81);fill-opacity:0.2;"/>
    </g>
    <g transform="matrix(7.79294e-17,1.27268,-1.27268,7.79294e-17,32260,83175)">
        <circle cx="2589.32" cy="3017.39" r="128.424" style="fill:rgb(49,49,81);fill-opacity:0.2;"/>
    </g>
    <g transform="matrix(7.79294e-17,1.27268,-1.27268,7.79294e-17,32260,67246.8)">
        <circle cx="2589.32" cy="3017.39" r="128.424" style="fill:rgb(49,49,81);fill-opacity:0;"/>
    </g>
    <g transform="matrix(7.79294e-17,1.27268,-1.27268,7.79294e-17,32260,73839.6)">
        <circle cx="2589.32" cy="3017.39" r="128.424" style="fill:rgb(49,49,81);fill-opacity:0.2;"/>
    </g>
    <g transform="matrix(7.79294e-17,1.27268,-1.27268,7.79294e-17,32260,80482)">
        <circle cx="2589.32" cy="3017.39" r="128.424" style="fill:rgb(49,49,81);fill-opacity:0.2;"/>
    </g>
    <g transform="matrix(7.79294e-17,1.27268,-1.27268,7.79294e-17,32260,71163.9)">
        <circle cx="2589.32" cy="3017.39" r="128.424" style="fill:rgb(49,49,81);fill-opacity:0.2;"/>
    </g>
    <g transform="matrix(7.79294e-17,1.27268,-1.27268,7.79294e-17,32260,77806.3)">
        <circle cx="2589.32" cy="3017.39" r="128.424" style="fill:rgb(49,49,81);fill-opacity:0.2;"/>
    </g>
    <g transform="matrix(7.79294e-17,1.27268,-1.27268,7.79294e-17,32260,84482.5)">
        <circle cx="2589.32" cy="3017.39" r="128.424" style="fill:rgb(49,49,81);fill-opacity:0.2;"/>
    </g>
    <g transform="matrix(7.79294e-17,1.27268,-1.27268,7.79294e-17,32260,68554.3)">
        <circle cx="2589.32" cy="3017.39" r="128.424" style="fill:rgb(49,49,81);fill-opacity:0;"/>
    </g>
    <g transform="matrix(7.79294e-17,1.27268,-1.27268,7.79294e-17,32260,75147.2)">
        <circle cx="2589.32" cy="3017.39" r="128.424" style="fill:rgb(175,227,255);"/>
    </g>
    <g transform="matrix(7.79294e-17,1.27268,-1.27268,7.79294e-17,32260,81789.5)">
        <circle cx="2589.32" cy="3017.39" r="128.424" style="fill:rgb(49,49,81);fill-opacity:0.2;"/>
    </g>
    <g transform="matrix(7.79294e-17,1.27268,-1.27268,7.79294e-17,36832.1,17055.6)">
        <circle cx="2589.32" cy="3017.39" r="128.424" style="fill:rgb(49,49,81);fill-opacity:0.2;"/>
    </g>
    <g transform="matrix(7.79294e-17,1.27268,-1.27268,7.79294e-17,36832.1,21142.5)">
        <circle cx="2589.32" cy="3017.39" r="128.424" style="fill:rgb(175,227,255);"/>
    </g>
    <g transform="matrix(7.79294e-17,1.27268,-1.27268,7.79294e-17,36832.1,25293.6)">
        <circle cx="2589.32" cy="3017.39" r="128.424" style="fill:rgb(49,49,81);fill-opacity:0.2;"/>
    </g>
    <g transform="matrix(7.79294e-17,1.27268,-1.27268,7.79294e-17,36832.1,18375.5)">
        <circle cx="2589.32" cy="3017.39" r="128.424" style="fill:rgb(49,49,81);fill-opacity:0.2;"/>
    </g>
    <g transform="matrix(7.79294e-17,1.27268,-1.27268,7.79294e-17,36832.1,22462.4)">
        <circle cx="2589.32" cy="3017.39" r="128.424" style="fill:rgb(49,49,81);fill-opacity:0.2;"/>
    </g>
    <g transform="matrix(7.79294e-17,1.27268,-1.27268,7.79294e-17,36832.1,26613.6)">
        <circle cx="2589.32" cy="3017.39" r="128.424" style="fill:rgb(49,49,81);fill-opacity:0.2;"/>
    </g>
    <g transform="matrix(7.79294e-17,1.27268,-1.27268,7.79294e-17,35682,17721.8)">
        <circle cx="2589.32" cy="3017.39" r="128.424" style="fill:rgb(49,49,81);fill-opacity:0.2;"/>
    </g>
    <g transform="matrix(7.79294e-17,1.27268,-1.27268,7.79294e-17,35682,25959.8)">
        <circle cx="2589.32" cy="3017.39" r="128.424" style="fill:rgb(49,49,81);fill-opacity:0.2;"/>
    </g>
    <g transform="matrix(7.79294e-17,1.27268,-1.27268,7.79294e-17,35682,19029.3)">
        <circle cx="2589.32" cy="3017.39" r="128.424" style="fill:rgb(175,227,255);"/>
    </g>
    <g transform="matrix(7.79294e-17,1.27268,-1.27268,7.79294e-17,35682,27267.3)">
        <circle cx="2589.32" cy="3017.39" r="128.424" style="fill:rgb(49,49,81);fill-opacity:0.2;"/>
    </g>
    <g transform="matrix(7.79294e-17,1.27268,-1.27268,7.79294e-17,7436,31150.6)">
        <circle cx="2589.32" cy="3017.39" r="128.424" style="fill:rgb(49,49,81);fill-opacity:0.2;"/>
    </g>
    <g transform="matrix(7.79294e-17,1.27268,-1.27268,7.79294e-17,28383.9,67464.1)">
        <circle cx="2589.32" cy="3017.39" r="128.424" style="fill:rgb(49,49,81);fill-opacity:0;"/>
    </g>
    <g transform="matrix(7.79294e-17,1.27268,-1.27268,7.79294e-17,27233.7,65485.5)">
        <circle cx="2589.32" cy="3017.39" r="128.424" style="fill:rgb(49,49,81);fill-opacity:0;"/>
    </g>
    <g transform="matrix(7.79294e-17,1.27268,-1.27268,7.79294e-17,5646.57,54493.8)">
        <circle cx="2589.32" cy="3017.39" r="128.424" style="fill:rgb(49,49,81);fill-opacity:0;"/>
    </g>
    <g transform="matrix(7.79294e-17,1.27268,-1.27268,7.79294e-17,5646.57,58645)">
        <circle cx="2589.32" cy="3017.39" r="128.424" style="fill:rgb(49,49,81);fill-opacity:0;"/>
    </g>
    <g transform="matrix(7.79294e-17,1.27268,-1.27268,7.79294e-17,5646.57,62597.3)">
        <circle cx="2589.32" cy="3017.39" r="128.424" style="fill:rgb(49,49,81);fill-opacity:0;"/>
    </g>
    <g transform="matrix(7.79294e-17,1.27268,-1.27268,7.79294e-17,5646.57,69190.2)">
        <circle cx="2589.32" cy="3017.39" r="128.424" style="fill:rgb(49,49,81);fill-opacity:0.2;"/>
    </g>
    <g transform="matrix(7.79294e-17,1.27268,-1.27268,7.79294e-17,5646.57,66580.6)">
        <circle cx="2589.32" cy="3017.39" r="128.424" style="fill:rgb(49,49,81);fill-opacity:0.2;"/>
    </g>
    <g transform="matrix(7.79294e-17,1.27268,-1.27268,7.79294e-17,5646.57,51726.9)">
        <circle cx="2589.32" cy="3017.39" r="128.424" style="fill:rgb(49,49,81);fill-opacity:0;"/>
    </g>
    <g transform="matrix(7.79294e-17,1.27268,-1.27268,7.79294e-17,5646.57,55813.8)">
        <circle cx="2589.32" cy="3017.39" r="128.424" style="fill:rgb(49,49,81);fill-opacity:0;"/>
    </g>
    <g transform="matrix(7.79294e-17,1.27268,-1.27268,7.79294e-17,5646.57,59964.9)">
        <circle cx="2589.32" cy="3017.39" r="128.424" style="fill:rgb(49,49,81);fill-opacity:0;"/>
    </g>
    <g transform="matrix(7.79294e-17,1.27268,-1.27268,7.79294e-17,5646.57,63917.3)">
        <circle cx="2589.32" cy="3017.39" r="128.424" style="fill:rgb(49,49,81);fill-opacity:0;"/>
    </g>
    <g transform="matrix(7.79294e-17,1.27268,-1.27268,7.79294e-17,5646.57,67900.5)">
        <circle cx="2589.32" cy="3017.39" r="128.424" style="fill:rgb(49,49,81);fill-opacity:0.2;"/>
    </g>
    <g transform="matrix(7.79294e-17,1.27268,-1.27268,7.79294e-17,4496.42,51073.1)">
        <circle cx="2589.32" cy="3017.39" r="128.424" style="fill:rgb(49,49,81);fill-opacity:0;"/>
    </g>
    <g transform="matrix(7.79294e-17,1.27268,-1.27268,7.79294e-17,4496.42,55160)">
        <circle cx="2589.32" cy="3017.39" r="128.424" style="fill:rgb(49,49,81);fill-opacity:0;"/>
    </g>
    <g transform="matrix(7.79294e-17,1.27268,-1.27268,7.79294e-17,4496.42,59311.2)">
        <circle cx="2589.32" cy="3017.39" r="128.424" style="fill:rgb(49,49,81);fill-opacity:0;"/>
    </g>
    <g transform="matrix(7.79294e-17,1.27268,-1.27268,7.79294e-17,4496.42,63263.5)">
        <circle cx="2589.32" cy="3017.39" r="128.424" style="fill:rgb(49,49,81);fill-opacity:0;"/>
    </g>
    <g transform="matrix(7.79294e-17,1.27268,-1.27268,7.79294e-17,4496.42,69856.4)">
        <circle cx="2589.32" cy="3017.39" r="128.424" style="fill:rgb(49,49,81);fill-opacity:0.2;"/>
    </g>
    <g transform="matrix(7.79294e-17,1.27268,-1.27268,7.79294e-17,4496.42,67246.8)">
        <circle cx="2589.32" cy="3017.39" r="128.424" style="fill:rgb(49,49,81);fill-opacity:0.2;"/>
    </g>
    <g transform="matrix(7.79294e-17,1.27268,-1.27268,7.79294e-17,4496.42,52380.7)">
        <circle cx="2589.32" cy="3017.39" r="128.424" style="fill:rgb(49,49,81);fill-opacity:0;"/>
    </g>
    <g transform="matrix(7.79294e-17,1.27268,-1.27268,7.79294e-17,4496.42,56467.6)">
        <circle cx="2589.32" cy="3017.39" r="128.424" style="fill:rgb(49,49,81);fill-opacity:0;"/>
    </g>
    <g transform="matrix(7.79294e-17,1.27268,-1.27268,7.79294e-17,4496.42,60618.7)">
        <circle cx="2589.32" cy="3017.39" r="128.424" style="fill:rgb(49,49,81);fill-opacity:0;"/>
    </g>
    <g transform="matrix(7.79294e-17,1.27268,-1.27268,7.79294e-17,4496.42,64571.1)">
        <circle cx="2589.32" cy="3017.39" r="128.424" style="fill:rgb(49,49,81);fill-opacity:0;"/>
    </g>
    <g transform="matrix(7.79294e-17,1.27268,-1.27268,7.79294e-17,4496.42,68554.3)">
        <circle cx="2589.32" cy="3017.39" r="128.424" style="fill:rgb(49,49,81);fill-opacity:0.2;"/>
    </g>
    <g transform="matrix(7.79294e-17,1.27268,-1.27268,7.79294e-17,14587.1,30685.2)">
        <circle cx="2589.32" cy="3017.39" r="128.424" style="fill:rgb(49,49,81);fill-opacity:0;"/>
    </g>
    <g transform="matrix(7.79294e-17,1.27268,-1.27268,7.79294e-17,13436.9,30031.4)">
        <circle cx="2589.32" cy="3017.39" r="128.424" style="fill:rgb(49,49,81);fill-opacity:0;"/>
    </g>
    <g transform="matrix(7.79294e-17,1.27268,-1.27268,7.79294e-17,13436.9,31339)">
        <circle cx="2589.32" cy="3017.39" r="128.424" style="fill:rgb(49,49,81);fill-opacity:0;"/>
    </g>
    <g transform="matrix(7.79294e-17,1.27268,-1.27268,7.79294e-17,14323.9,29270.5)">
        <circle cx="2589.32" cy="3017.39" r="128.424" style="fill:rgb(49,49,81);fill-opacity:0;"/>
    </g>
    <g transform="matrix(7.79294e-17,1.27268,-1.27268,7.79294e-17,14323.9,30590.4)">
        <circle cx="2589.32" cy="3017.39" r="128.424" style="fill:rgb(49,49,81);fill-opacity:0;"/>
    </g>
    <g transform="matrix(7.79294e-17,1.27268,-1.27268,7.79294e-17,13173.8,29936.7)">
        <circle cx="2589.32" cy="3017.39" r="128.424" style="fill:rgb(49,49,81);fill-opacity:0;"/>
    </g>
    <g transform="matrix(7.79294e-17,1.27268,-1.27268,7.79294e-17,13173.8,31244.2)">
        <circle cx="2589.32" cy="3017.39" r="128.424" style="fill:rgb(49,49,81);fill-opacity:0;"/>
    </g>
    <g transform="matrix(7.79294e-17,1.27268,-1.27268,7.79294e-17,32212.8,12999.2)">
        <circle cx="2589.32" cy="3017.39" r="128.424" style="fill:rgb(49,49,81);fill-opacity:0;"/>
    </g>
    <g transform="matrix(7.79294e-17,1.27268,-1.27268,7.79294e-17,36832.1,12999.2)">
        <circle cx="2589.32" cy="3017.39" r="128.424" style="fill:rgb(49,49,81);fill-opacity:0;"/>
    </g>
    <g transform="matrix(7.79294e-17,1.27268,-1.27268,7.79294e-17,35682,12345.4)">
        <circle cx="2589.32" cy="3017.39" r="128.424" style="fill:rgb(49,49,81);fill-opacity:0;"/>
    </g>
    <g transform="matrix(7.79294e-17,1.27268,-1.27268,7.79294e-17,35682,13652.9)">
        <circle cx="2589.32" cy="3017.39" r="128.424" style="fill:rgb(49,49,81);fill-opacity:0.2;"/>
    </g>
    <g transform="matrix(7.79294e-17,1.27268,-1.27268,7.79294e-17,14323.9,26553.3)">
        <circle cx="2589.32" cy="3017.39" r="128.424" style="fill:rgb(49,49,81);fill-opacity:0;"/>
    </g>
    <g transform="matrix(7.79294e-17,1.27268,-1.27268,7.79294e-17,14323.9,27873.3)">
        <circle cx="2589.32" cy="3017.39" r="128.424" style="fill:rgb(49,49,81);fill-opacity:0;"/>
    </g>
    <g transform="matrix(7.79294e-17,1.27268,-1.27268,7.79294e-17,13173.8,27219.5)">
        <circle cx="2589.32" cy="3017.39" r="128.424" style="fill:rgb(49,49,81);fill-opacity:0;"/>
    </g>
    <g transform="matrix(7.79294e-17,1.27268,-1.27268,7.79294e-17,13173.8,28527.1)">
        <circle cx="2589.32" cy="3017.39" r="128.424" style="fill:rgb(49,49,81);fill-opacity:0;"/>
    </g>
    <g transform="matrix(7.79294e-17,1.27268,-1.27268,7.79294e-17,12304.8,32053.4)">
        <circle cx="2589.32" cy="3017.39" r="128.424" style="fill:rgb(49,49,81);fill-opacity:0;"/>
    </g>
    <g transform="matrix(7.79294e-17,1.27268,-1.27268,7.79294e-17,12304.8,33373.4)">
        <circle cx="2589.32" cy="3017.39" r="128.424" style="fill:rgb(49,49,81);fill-opacity:0;"/>
    </g>
    <g transform="matrix(7.79294e-17,1.27268,-1.27268,7.79294e-17,19349.8,36920.2)">
        <circle cx="2589.32" cy="3017.39" r="128.424" style="fill:rgb(49,49,81);fill-opacity:0;"/>
    </g>
    <g transform="matrix(7.79294e-17,1.27268,-1.27268,7.79294e-17,19349.8,38240.2)">
        <circle cx="2589.32" cy="3017.39" r="128.424" style="fill:rgb(49,49,81);fill-opacity:0;"/>
    </g>
    <g transform="matrix(7.79294e-17,1.27268,-1.27268,7.79294e-17,18199.7,37586.4)">
        <circle cx="2589.32" cy="3017.39" r="128.424" style="fill:rgb(49,49,81);fill-opacity:0;"/>
    </g>
    <g transform="matrix(7.79294e-17,1.27268,-1.27268,7.79294e-17,18199.7,38894)">
        <circle cx="2589.32" cy="3017.39" r="128.424" style="fill:rgb(49,49,81);fill-opacity:0;"/>
    </g>
    <g transform="matrix(7.79294e-17,1.27268,-1.27268,7.79294e-17,12041.7,31958.7)">
        <circle cx="2589.32" cy="3017.39" r="128.424" style="fill:rgb(49,49,81);fill-opacity:0;"/>
    </g>
    <g transform="matrix(7.79294e-17,1.27268,-1.27268,7.79294e-17,12041.7,33278.6)">
        <circle cx="2589.32" cy="3017.39" r="128.424" style="fill:rgb(49,49,81);fill-opacity:0;"/>
    </g>
    <g transform="matrix(7.79294e-17,1.27268,-1.27268,7.79294e-17,12304.8,48258.8)">
        <circle cx="2589.32" cy="3017.39" r="128.424" style="fill:rgb(49,49,81);fill-opacity:0;"/>
    </g>
    <g transform="matrix(7.79294e-17,1.27268,-1.27268,7.79294e-17,12304.8,52409.9)">
        <circle cx="2589.32" cy="3017.39" r="128.424" style="fill:rgb(49,49,81);fill-opacity:0;"/>
    </g>
    <g transform="matrix(7.79294e-17,1.27268,-1.27268,7.79294e-17,12304.8,56362.3)">
        <circle cx="2589.32" cy="3017.39" r="128.424" style="fill:rgb(49,49,81);fill-opacity:0;"/>
    </g>
    <g transform="matrix(7.79294e-17,1.27268,-1.27268,7.79294e-17,25898.8,65212.4)">
        <circle cx="2589.32" cy="3017.39" r="128.424" style="fill:rgb(49,49,81);fill-opacity:0;"/>
    </g>
    <g transform="matrix(7.79294e-17,1.27268,-1.27268,7.79294e-17,35687.8,71805.2)">
        <circle cx="2589.32" cy="3017.39" r="128.424" style="fill:rgb(49,49,81);fill-opacity:0.2;"/>
    </g>
    <g transform="matrix(7.79294e-17,1.27268,-1.27268,7.79294e-17,35687.8,78447.6)">
        <circle cx="2589.32" cy="3017.39" r="128.424" style="fill:rgb(49,49,81);fill-opacity:0.2;"/>
    </g>
    <g transform="matrix(7.79294e-17,1.27268,-1.27268,7.79294e-17,34537.6,72459)">
        <circle cx="2589.32" cy="3017.39" r="128.424" style="fill:rgb(49,49,81);fill-opacity:0.2;"/>
    </g>
    <g transform="matrix(7.79294e-17,1.27268,-1.27268,7.79294e-17,34537.6,79101.4)">
        <circle cx="2589.32" cy="3017.39" r="128.424" style="fill:rgb(49,49,81);fill-opacity:0.2;"/>
    </g>
    <g transform="matrix(7.79294e-17,1.27268,-1.27268,7.79294e-17,39109.8,14367.4)">
        <circle cx="2589.32" cy="3017.39" r="128.424" style="fill:rgb(49,49,81);fill-opacity:0;"/>
    </g>
    <g transform="matrix(7.79294e-17,1.27268,-1.27268,7.79294e-17,39109.8,15687.4)">
        <circle cx="2589.32" cy="3017.39" r="128.424" style="fill:rgb(49,49,81);fill-opacity:0.2;"/>
    </g>
    <g transform="matrix(7.79294e-17,1.27268,-1.27268,7.79294e-17,39109.8,19774.3)">
        <circle cx="2589.32" cy="3017.39" r="128.424" style="fill:rgb(49,49,81);fill-opacity:0.2;"/>
    </g>
    <g transform="matrix(7.79294e-17,1.27268,-1.27268,7.79294e-17,39109.8,23925.4)">
        <circle cx="2589.32" cy="3017.39" r="128.424" style="fill:rgb(49,49,81);fill-opacity:0.2;"/>
    </g>
    <g transform="matrix(7.79294e-17,1.27268,-1.27268,7.79294e-17,39109.8,27877.7)">
        <circle cx="2589.32" cy="3017.39" r="128.424" style="fill:rgb(49,49,81);fill-opacity:0;"/>
    </g>
    <g transform="matrix(7.79294e-17,1.27268,-1.27268,7.79294e-17,26512.3,71805.2)">
        <circle cx="2589.32" cy="3017.39" r="128.424" style="fill:rgb(49,49,81);fill-opacity:0;"/>
    </g>
    <g transform="matrix(7.79294e-17,1.27268,-1.27268,7.79294e-17,26512.3,78447.6)">
        <circle cx="2589.32" cy="3017.39" r="128.424" style="fill:rgb(49,49,81);fill-opacity:0.2;"/>
    </g>
    <g transform="matrix(7.79294e-17,1.27268,-1.27268,7.79294e-17,26512.3,85123.8)">
        <circle cx="2589.32" cy="3017.39" r="128.424" style="fill:rgb(49,49,81);fill-opacity:0;"/>
    </g>
    <g transform="matrix(7.79294e-17,1.27268,-1.27268,7.79294e-17,37959.7,15033.6)">
        <circle cx="2589.32" cy="3017.39" r="128.424" style="fill:rgb(49,49,81);fill-opacity:0.2;"/>
    </g>
    <g transform="matrix(7.79294e-17,1.27268,-1.27268,7.79294e-17,37959.7,16341.1)">
        <circle cx="2589.32" cy="3017.39" r="128.424" style="fill:rgb(49,49,81);fill-opacity:0.2;"/>
    </g>
    <g transform="matrix(7.79294e-17,1.27268,-1.27268,7.79294e-17,37959.7,20428)">
        <circle cx="2589.32" cy="3017.39" r="128.424" style="fill:rgb(49,49,81);fill-opacity:0.2;"/>
    </g>
    <g transform="matrix(7.79294e-17,1.27268,-1.27268,7.79294e-17,37959.7,24579.2)">
        <circle cx="2589.32" cy="3017.39" r="128.424" style="fill:rgb(49,49,81);fill-opacity:0.2;"/>
    </g>
    <g transform="matrix(7.79294e-17,1.27268,-1.27268,7.79294e-17,25362.1,79101.4)">
        <circle cx="2589.32" cy="3017.39" r="128.424" style="fill:rgb(49,49,81);fill-opacity:0.2;"/>
    </g>
    <g transform="matrix(7.79294e-17,1.27268,-1.27268,7.79294e-17,9713.68,29782.4)">
        <circle cx="2589.32" cy="3017.39" r="128.424" style="fill:rgb(49,49,81);fill-opacity:0.2;"/>
    </g>
    <g transform="matrix(7.79294e-17,1.27268,-1.27268,7.79294e-17,30661.5,66095.9)">
        <circle cx="2589.32" cy="3017.39" r="128.424" style="fill:rgb(49,49,81);fill-opacity:0;"/>
    </g>
    <g transform="matrix(7.79294e-17,1.27268,-1.27268,7.79294e-17,8563.53,30436.2)">
        <circle cx="2589.32" cy="3017.39" r="128.424" style="fill:rgb(49,49,81);fill-opacity:0.2;"/>
    </g>
    <g transform="matrix(7.79294e-17,1.27268,-1.27268,7.79294e-17,29511.4,66749.7)">
        <circle cx="2589.32" cy="3017.39" r="128.424" style="fill:rgb(49,49,81);fill-opacity:0;"/>
    </g>
    <g transform="matrix(7.79294e-17,1.27268,-1.27268,7.79294e-17,7924.24,61229.1)">
        <circle cx="2589.32" cy="3017.39" r="128.424" style="fill:rgb(49,49,81);fill-opacity:0.2;"/>
    </g>
    <g transform="matrix(7.79294e-17,1.27268,-1.27268,7.79294e-17,7924.24,65212.4)">
        <circle cx="2589.32" cy="3017.39" r="128.424" style="fill:rgb(49,49,81);fill-opacity:0.2;"/>
    </g>
    <g transform="matrix(7.79294e-17,1.27268,-1.27268,7.79294e-17,6774.09,53779.4)">
        <circle cx="2589.32" cy="3017.39" r="128.424" style="fill:rgb(49,49,81);fill-opacity:0;"/>
    </g>
    <g transform="matrix(7.79294e-17,1.27268,-1.27268,7.79294e-17,6774.09,57930.5)">
        <circle cx="2589.32" cy="3017.39" r="128.424" style="fill:rgb(49,49,81);fill-opacity:0;"/>
    </g>
    <g transform="matrix(7.79294e-17,1.27268,-1.27268,7.79294e-17,6774.09,61882.9)">
        <circle cx="2589.32" cy="3017.39" r="128.424" style="fill:rgb(49,49,81);fill-opacity:0;"/>
    </g>
    <g transform="matrix(7.79294e-17,1.27268,-1.27268,7.79294e-17,6774.09,65866.1)">
        <circle cx="2589.32" cy="3017.39" r="128.424" style="fill:rgb(49,49,81);fill-opacity:0.2;"/>
    </g>
    <g transform="matrix(7.79294e-17,1.27268,-1.27268,7.79294e-17,31127.9,71805.2)">
        <circle cx="2589.32" cy="3017.39" r="128.424" style="fill:rgb(49,49,81);fill-opacity:0.2;"/>
    </g>
    <g transform="matrix(7.79294e-17,1.27268,-1.27268,7.79294e-17,31127.9,78447.6)">
        <circle cx="2589.32" cy="3017.39" r="128.424" style="fill:rgb(49,49,81);fill-opacity:0.2;"/>
    </g>
    <g transform="matrix(7.79294e-17,1.27268,-1.27268,7.79294e-17,29977.7,72459)">
        <circle cx="2589.32" cy="3017.39" r="128.424" style="fill:rgb(49,49,81);fill-opacity:0;"/>
    </g>
    <g transform="matrix(7.79294e-17,1.27268,-1.27268,7.79294e-17,29977.7,79101.4)">
        <circle cx="2589.32" cy="3017.39" r="128.424" style="fill:rgb(175,227,255);"/>
    </g>
    <g transform="matrix(7.79294e-17,1.27268,-1.27268,7.79294e-17,34549.9,14367.4)">
        <circle cx="2589.32" cy="3017.39" r="128.424" style="fill:rgb(49,49,81);fill-opacity:0.2;"/>
    </g>
    <g transform="matrix(7.79294e-17,1.27268,-1.27268,7.79294e-17,34549.9,15687.4)">
        <circle cx="2589.32" cy="3017.39" r="128.424" style="fill:rgb(49,49,81);fill-opacity:0.2;"/>
    </g>
    <g transform="matrix(7.79294e-17,1.27268,-1.27268,7.79294e-17,34549.9,27877.7)">
        <circle cx="2589.32" cy="3017.39" r="128.424" style="fill:rgb(49,49,81);fill-opacity:0.2;"/>
    </g>
    <g transform="matrix(7.79294e-17,1.27268,-1.27268,7.79294e-17,33399.8,15033.6)">
        <circle cx="2589.32" cy="3017.39" r="128.424" style="fill:rgb(49,49,81);fill-opacity:0.2;"/>
    </g>
    <g transform="matrix(7.79294e-17,1.27268,-1.27268,7.79294e-17,33399.8,16341.1)">
        <circle cx="2589.32" cy="3017.39" r="128.424" style="fill:rgb(49,49,81);fill-opacity:0.2;"/>
    </g>
    <g transform="matrix(7.79294e-17,1.27268,-1.27268,7.79294e-17,5153.77,29782.4)">
        <circle cx="2589.32" cy="3017.39" r="128.424" style="fill:rgb(49,49,81);fill-opacity:0.2;"/>
    </g>
    <g transform="matrix(7.79294e-17,1.27268,-1.27268,7.79294e-17,26101.6,66095.9)">
        <circle cx="2589.32" cy="3017.39" r="128.424" style="fill:rgb(49,49,81);fill-opacity:0;"/>
    </g>
    <g transform="matrix(7.79294e-17,1.27268,-1.27268,7.79294e-17,26101.6,70079.2)">
        <circle cx="2589.32" cy="3017.39" r="128.424" style="fill:rgb(49,49,81);fill-opacity:0;"/>
    </g>
    <g transform="matrix(7.79294e-17,1.27268,-1.27268,7.79294e-17,4003.62,30436.2)">
        <circle cx="2589.32" cy="3017.39" r="128.424" style="fill:rgb(49,49,81);fill-opacity:0.2;"/>
    </g>
    <g transform="matrix(7.79294e-17,1.27268,-1.27268,7.79294e-17,24951.5,66749.7)">
        <circle cx="2589.32" cy="3017.39" r="128.424" style="fill:rgb(49,49,81);fill-opacity:0;"/>
    </g>
    <g transform="matrix(7.79294e-17,1.27268,-1.27268,7.79294e-17,24951.5,70732.9)">
        <circle cx="2589.32" cy="3017.39" r="128.424" style="fill:rgb(49,49,81);fill-opacity:0;"/>
    </g>
    <g transform="matrix(7.79294e-17,1.27268,-1.27268,7.79294e-17,19349.8,47718.8)">
        <circle cx="2589.32" cy="3017.39" r="128.424" style="fill:rgb(49,49,81);fill-opacity:0;"/>
    </g>
    <g transform="matrix(7.79294e-17,1.27268,-1.27268,7.79294e-17,19349.8,49038.7)">
        <circle cx="2589.32" cy="3017.39" r="128.424" style="fill:rgb(49,49,81);fill-opacity:0;"/>
    </g>
    <g transform="matrix(7.79294e-17,1.27268,-1.27268,7.79294e-17,18199.7,48385)">
        <circle cx="2589.32" cy="3017.39" r="128.424" style="fill:rgb(49,49,81);fill-opacity:0;"/>
    </g>
    <g transform="matrix(7.79294e-17,1.27268,-1.27268,7.79294e-17,18199.7,49692.5)">
        <circle cx="2589.32" cy="3017.39" r="128.424" style="fill:rgb(49,49,81);fill-opacity:0;"/>
    </g>
    <g transform="matrix(7.79294e-17,1.27268,-1.27268,7.79294e-17,19349.8,32847)">
        <circle cx="2589.32" cy="3017.39" r="128.424" style="fill:rgb(49,49,81);fill-opacity:0;"/>
    </g>
    <g transform="matrix(7.79294e-17,1.27268,-1.27268,7.79294e-17,18199.7,33500.8)">
        <circle cx="2589.32" cy="3017.39" r="128.424" style="fill:rgb(49,49,81);fill-opacity:0;"/>
    </g>
    <g transform="matrix(7.79294e-17,1.27268,-1.27268,7.79294e-17,12304.8,34741.6)">
        <circle cx="2589.32" cy="3017.39" r="128.424" style="fill:rgb(49,49,81);fill-opacity:0;"/>
    </g>
    <g transform="matrix(7.79294e-17,1.27268,-1.27268,7.79294e-17,12041.7,25168.3)">
        <circle cx="2589.32" cy="3017.39" r="128.424" style="fill:rgb(49,49,81);fill-opacity:0;"/>
    </g>
    <g transform="matrix(7.79294e-17,1.27268,-1.27268,7.79294e-17,19349.8,39608.4)">
        <circle cx="2589.32" cy="3017.39" r="128.424" style="fill:rgb(49,49,81);fill-opacity:0;"/>
    </g>
    <g transform="matrix(7.79294e-17,1.27268,-1.27268,7.79294e-17,19349.8,40928.4)">
        <circle cx="2589.32" cy="3017.39" r="128.424" style="fill:rgb(49,49,81);fill-opacity:0;"/>
    </g>
    <g transform="matrix(7.79294e-17,1.27268,-1.27268,7.79294e-17,18199.7,40274.6)">
        <circle cx="2589.32" cy="3017.39" r="128.424" style="fill:rgb(49,49,81);fill-opacity:0;"/>
    </g>
    <g transform="matrix(7.79294e-17,1.27268,-1.27268,7.79294e-17,18199.7,41582.2)">
        <circle cx="2589.32" cy="3017.39" r="128.424" style="fill:rgb(49,49,81);fill-opacity:0;"/>
    </g>
    <g transform="matrix(7.79294e-17,1.27268,-1.27268,7.79294e-17,12041.7,34646.8)">
        <circle cx="2589.32" cy="3017.39" r="128.424" style="fill:rgb(49,49,81);fill-opacity:0;"/>
    </g>
    <g transform="matrix(7.79294e-17,1.27268,-1.27268,7.79294e-17,12304.8,49627)">
        <circle cx="2589.32" cy="3017.39" r="128.424" style="fill:rgb(49,49,81);fill-opacity:0;"/>
    </g>
    <g transform="matrix(7.79294e-17,1.27268,-1.27268,7.79294e-17,12304.8,53778.1)">
        <circle cx="2589.32" cy="3017.39" r="128.424" style="fill:rgb(49,49,81);fill-opacity:0;"/>
    </g>
    <g transform="matrix(7.79294e-17,1.27268,-1.27268,7.79294e-17,12304.8,57730.5)">
        <circle cx="2589.32" cy="3017.39" r="128.424" style="fill:rgb(49,49,81);fill-opacity:0;"/>
    </g>
    <g transform="matrix(7.79294e-17,1.27268,-1.27268,7.79294e-17,35687.8,69190.2)">
        <circle cx="2589.32" cy="3017.39" r="128.424" style="fill:rgb(49,49,81);fill-opacity:0;"/>
    </g>
    <g transform="matrix(7.79294e-17,1.27268,-1.27268,7.79294e-17,35687.8,75832.6)">
        <circle cx="2589.32" cy="3017.39" r="128.424" style="fill:rgb(49,49,81);fill-opacity:0.2;"/>
    </g>
    <g transform="matrix(7.79294e-17,1.27268,-1.27268,7.79294e-17,35687.8,82508.8)">
        <circle cx="2589.32" cy="3017.39" r="128.424" style="fill:rgb(49,49,81);fill-opacity:0.2;"/>
    </g>
    <g transform="matrix(7.79294e-17,1.27268,-1.27268,7.79294e-17,35687.8,66580.6)">
        <circle cx="2589.32" cy="3017.39" r="128.424" style="fill:rgb(49,49,81);fill-opacity:0;"/>
    </g>
    <g transform="matrix(7.79294e-17,1.27268,-1.27268,7.79294e-17,35687.8,73173.4)">
        <circle cx="2589.32" cy="3017.39" r="128.424" style="fill:rgb(175,227,255);"/>
    </g>
    <g transform="matrix(7.79294e-17,1.27268,-1.27268,7.79294e-17,35687.8,79815.8)">
        <circle cx="2589.32" cy="3017.39" r="128.424" style="fill:rgb(49,49,81);fill-opacity:0.2;"/>
    </g>
    <g transform="matrix(7.79294e-17,1.27268,-1.27268,7.79294e-17,12041.7,35966.8)">
        <circle cx="2589.32" cy="3017.39" r="128.424" style="fill:rgb(49,49,81);fill-opacity:0;"/>
    </g>
    <g transform="matrix(7.79294e-17,1.27268,-1.27268,7.79294e-17,12304.8,50947)">
        <circle cx="2589.32" cy="3017.39" r="128.424" style="fill:rgb(49,49,81);fill-opacity:0;"/>
    </g>
    <g transform="matrix(7.79294e-17,1.27268,-1.27268,7.79294e-17,12304.8,55098.1)">
        <circle cx="2589.32" cy="3017.39" r="128.424" style="fill:rgb(49,49,81);fill-opacity:0;"/>
    </g>
    <g transform="matrix(7.79294e-17,1.27268,-1.27268,7.79294e-17,25898.8,63917.3)">
        <circle cx="2589.32" cy="3017.39" r="128.424" style="fill:rgb(49,49,81);fill-opacity:0;"/>
    </g>
    <g transform="matrix(7.79294e-17,1.27268,-1.27268,7.79294e-17,35687.8,70510.2)">
        <circle cx="2589.32" cy="3017.39" r="128.424" style="fill:rgb(49,49,81);fill-opacity:0;"/>
    </g>
    <g transform="matrix(7.79294e-17,1.27268,-1.27268,7.79294e-17,35687.8,77152.5)">
        <circle cx="2589.32" cy="3017.39" r="128.424" style="fill:rgb(49,49,81);fill-opacity:0.2;"/>
    </g>
    <g transform="matrix(7.79294e-17,1.27268,-1.27268,7.79294e-17,35687.8,83828.8)">
        <circle cx="2589.32" cy="3017.39" r="128.424" style="fill:rgb(49,49,81);fill-opacity:0.2;"/>
    </g>
    <g transform="matrix(7.79294e-17,1.27268,-1.27268,7.79294e-17,35687.8,67900.5)">
        <circle cx="2589.32" cy="3017.39" r="128.424" style="fill:rgb(49,49,81);fill-opacity:0;"/>
    </g>
    <g transform="matrix(7.79294e-17,1.27268,-1.27268,7.79294e-17,35687.8,74493.4)">
        <circle cx="2589.32" cy="3017.39" r="128.424" style="fill:rgb(175,227,255);"/>
    </g>
    <g transform="matrix(7.79294e-17,1.27268,-1.27268,7.79294e-17,35687.8,81135.8)">
        <circle cx="2589.32" cy="3017.39" r="128.424" style="fill:rgb(49,49,81);fill-opacity:0.2;"/>
    </g>
    <g transform="matrix(7.79294e-17,1.27268,-1.27268,7.79294e-17,34537.6,69856.4)">
        <circle cx="2589.32" cy="3017.39" r="128.424" style="fill:rgb(49,49,81);fill-opacity:0;"/>
    </g>
    <g transform="matrix(7.79294e-17,1.27268,-1.27268,7.79294e-17,34537.6,76498.8)">
        <circle cx="2589.32" cy="3017.39" r="128.424" style="fill:rgb(49,49,81);fill-opacity:0.2;"/>
    </g>
    <g transform="matrix(7.79294e-17,1.27268,-1.27268,7.79294e-17,34537.6,83175)">
        <circle cx="2589.32" cy="3017.39" r="128.424" style="fill:rgb(49,49,81);fill-opacity:0.2;"/>
    </g>
    <g transform="matrix(7.79294e-17,1.27268,-1.27268,7.79294e-17,34537.6,67246.8)">
        <circle cx="2589.32" cy="3017.39" r="128.424" style="fill:rgb(49,49,81);fill-opacity:0;"/>
    </g>
    <g transform="matrix(7.79294e-17,1.27268,-1.27268,7.79294e-17,34537.6,73839.6)">
        <circle cx="2589.32" cy="3017.39" r="128.424" style="fill:rgb(49,49,81);fill-opacity:0.2;"/>
    </g>
    <g transform="matrix(7.79294e-17,1.27268,-1.27268,7.79294e-17,34537.6,80482)">
        <circle cx="2589.32" cy="3017.39" r="128.424" style="fill:rgb(49,49,81);fill-opacity:0.2;"/>
    </g>
    <g transform="matrix(7.79294e-17,1.27268,-1.27268,7.79294e-17,34537.6,71163.9)">
        <circle cx="2589.32" cy="3017.39" r="128.424" style="fill:rgb(49,49,81);fill-opacity:0.2;"/>
    </g>
    <g transform="matrix(7.79294e-17,1.27268,-1.27268,7.79294e-17,34537.6,77806.3)">
        <circle cx="2589.32" cy="3017.39" r="128.424" style="fill:rgb(49,49,81);fill-opacity:0.2;"/>
    </g>
    <g transform="matrix(7.79294e-17,1.27268,-1.27268,7.79294e-17,34537.6,84482.5)">
        <circle cx="2589.32" cy="3017.39" r="128.424" style="fill:rgb(49,49,81);fill-opacity:0.2;"/>
    </g>
    <g transform="matrix(7.79294e-17,1.27268,-1.27268,7.79294e-17,34537.6,68554.3)">
        <circle cx="2589.32" cy="3017.39" r="128.424" style="fill:rgb(49,49,81);fill-opacity:0;"/>
    </g>
    <g transform="matrix(7.79294e-17,1.27268,-1.27268,7.79294e-17,34537.6,75147.2)">
        <circle cx="2589.32" cy="3017.39" r="128.424" style="fill:rgb(175,227,255);"/>
    </g>
    <g transform="matrix(7.79294e-17,1.27268,-1.27268,7.79294e-17,34537.6,81789.5)">
        <circle cx="2589.32" cy="3017.39" r="128.424" style="fill:rgb(49,49,81);fill-opacity:0.2;"/>
    </g>
    <g transform="matrix(7.79294e-17,1.27268,-1.27268,7.79294e-17,39109.8,17055.6)">
        <circle cx="2589.32" cy="3017.39" r="128.424" style="fill:rgb(49,49,81);fill-opacity:0.2;"/>
    </g>
    <g transform="matrix(7.79294e-17,1.27268,-1.27268,7.79294e-17,39109.8,21142.5)">
        <circle cx="2589.32" cy="3017.39" r="128.424" style="fill:rgb(49,49,81);fill-opacity:0.2;"/>
    </g>
    <g transform="matrix(7.79294e-17,1.27268,-1.27268,7.79294e-17,39109.8,25293.6)">
        <circle cx="2589.32" cy="3017.39" r="128.424" style="fill:rgb(49,49,81);fill-opacity:0.2;"/>
    </g>
    <g transform="matrix(7.79294e-17,1.27268,-1.27268,7.79294e-17,26512.3,69190.2)">
        <circle cx="2589.32" cy="3017.39" r="128.424" style="fill:rgb(49,49,81);fill-opacity:0;"/>
    </g>
    <g transform="matrix(7.79294e-17,1.27268,-1.27268,7.79294e-17,26512.3,75832.6)">
        <circle cx="2589.32" cy="3017.39" r="128.424" style="fill:rgb(49,49,81);fill-opacity:0.2;"/>
    </g>
    <g transform="matrix(7.79294e-17,1.27268,-1.27268,7.79294e-17,26512.3,82508.8)">
        <circle cx="2589.32" cy="3017.39" r="128.424" style="fill:rgb(49,49,81);fill-opacity:0.2;"/>
    </g>
    <g transform="matrix(7.79294e-17,1.27268,-1.27268,7.79294e-17,26512.3,66580.6)">
        <circle cx="2589.32" cy="3017.39" r="128.424" style="fill:rgb(49,49,81);fill-opacity:0;"/>
    </g>
    <g transform="matrix(7.79294e-17,1.27268,-1.27268,7.79294e-17,26512.3,73173.4)">
        <circle cx="2589.32" cy="3017.39" r="128.424" style="fill:rgb(49,49,81);fill-opacity:0;"/>
    </g>
    <g transform="matrix(7.79294e-17,1.27268,-1.27268,7.79294e-17,26512.3,79815.8)">
        <circle cx="2589.32" cy="3017.39" r="128.424" style="fill:rgb(49,49,81);fill-opacity:0.2;"/>
    </g>
    <g transform="matrix(7.79294e-17,1.27268,-1.27268,7.79294e-17,39109.8,18375.5)">
        <circle cx="2589.32" cy="3017.39" r="128.424" style="fill:rgb(49,49,81);fill-opacity:0.2;"/>
    </g>
    <g transform="matrix(7.79294e-17,1.27268,-1.27268,7.79294e-17,39109.8,22462.4)">
        <circle cx="2589.32" cy="3017.39" r="128.424" style="fill:rgb(49,49,81);fill-opacity:0.2;"/>
    </g>
    <g transform="matrix(7.79294e-17,1.27268,-1.27268,7.79294e-17,39109.8,26613.6)">
        <circle cx="2589.32" cy="3017.39" r="128.424" style="fill:rgb(49,49,81);fill-opacity:0;"/>
    </g>
    <g transform="matrix(7.79294e-17,1.27268,-1.27268,7.79294e-17,26512.3,70510.2)">
        <circle cx="2589.32" cy="3017.39" r="128.424" style="fill:rgb(49,49,81);fill-opacity:0;"/>
    </g>
    <g transform="matrix(7.79294e-17,1.27268,-1.27268,7.79294e-17,26512.3,77152.5)">
        <circle cx="2589.32" cy="3017.39" r="128.424" style="fill:rgb(49,49,81);fill-opacity:0.2;"/>
    </g>
    <g transform="matrix(7.79294e-17,1.27268,-1.27268,7.79294e-17,26512.3,83828.8)">
        <circle cx="2589.32" cy="3017.39" r="128.424" style="fill:rgb(49,49,81);fill-opacity:0;"/>
    </g>
    <g transform="matrix(7.79294e-17,1.27268,-1.27268,7.79294e-17,26512.3,67900.5)">
        <circle cx="2589.32" cy="3017.39" r="128.424" style="fill:rgb(49,49,81);fill-opacity:0;"/>
    </g>
    <g transform="matrix(7.79294e-17,1.27268,-1.27268,7.79294e-17,26512.3,74493.4)">
        <circle cx="2589.32" cy="3017.39" r="128.424" style="fill:rgb(49,49,81);fill-opacity:0;"/>
    </g>
    <g transform="matrix(7.79294e-17,1.27268,-1.27268,7.79294e-17,26512.3,81135.8)">
        <circle cx="2589.32" cy="3017.39" r="128.424" style="fill:rgb(49,49,81);fill-opacity:0.2;"/>
    </g>
    <g transform="matrix(7.79294e-17,1.27268,-1.27268,7.79294e-17,37959.7,17721.8)">
        <circle cx="2589.32" cy="3017.39" r="128.424" style="fill:rgb(49,49,81);fill-opacity:0.2;"/>
    </g>
    <g transform="matrix(7.79294e-17,1.27268,-1.27268,7.79294e-17,37959.7,21808.7)">
        <circle cx="2589.32" cy="3017.39" r="128.424" style="fill:rgb(49,49,81);fill-opacity:0.2;"/>
    </g>
    <g transform="matrix(7.79294e-17,1.27268,-1.27268,7.79294e-17,37959.7,25959.8)">
        <circle cx="2589.32" cy="3017.39" r="128.424" style="fill:rgb(49,49,81);fill-opacity:0.2;"/>
    </g>
    <g transform="matrix(7.79294e-17,1.27268,-1.27268,7.79294e-17,25362.1,76498.8)">
        <circle cx="2589.32" cy="3017.39" r="128.424" style="fill:rgb(49,49,81);fill-opacity:0;"/>
    </g>
    <g transform="matrix(7.79294e-17,1.27268,-1.27268,7.79294e-17,25362.1,83175)">
        <circle cx="2589.32" cy="3017.39" r="128.424" style="fill:rgb(49,49,81);fill-opacity:0;"/>
    </g>
    <g transform="matrix(7.79294e-17,1.27268,-1.27268,7.79294e-17,25362.1,80482)">
        <circle cx="2589.32" cy="3017.39" r="128.424" style="fill:rgb(49,49,81);fill-opacity:0.2;"/>
    </g>
    <g transform="matrix(7.79294e-17,1.27268,-1.27268,7.79294e-17,37959.7,19029.3)">
        <circle cx="2589.32" cy="3017.39" r="128.424" style="fill:rgb(175,227,255);"/>
    </g>
    <g transform="matrix(7.79294e-17,1.27268,-1.27268,7.79294e-17,37959.7,23116.2)">
        <circle cx="2589.32" cy="3017.39" r="128.424" style="fill:rgb(49,49,81);fill-opacity:0.2;"/>
    </g>
    <g transform="matrix(7.79294e-17,1.27268,-1.27268,7.79294e-17,37959.7,27267.3)">
        <circle cx="2589.32" cy="3017.39" r="128.424" style="fill:rgb(49,49,81);fill-opacity:0.2;"/>
    </g>
    <g transform="matrix(7.79294e-17,1.27268,-1.27268,7.79294e-17,25362.1,77806.3)">
        <circle cx="2589.32" cy="3017.39" r="128.424" style="fill:rgb(49,49,81);fill-opacity:0;"/>
    </g>
    <g transform="matrix(7.79294e-17,1.27268,-1.27268,7.79294e-17,25362.1,84482.5)">
        <circle cx="2589.32" cy="3017.39" r="128.424" style="fill:rgb(49,49,81);fill-opacity:0;"/>
    </g>
    <g transform="matrix(7.79294e-17,1.27268,-1.27268,7.79294e-17,25362.1,75147.2)">
        <circle cx="2589.32" cy="3017.39" r="128.424" style="fill:rgb(49,49,81);fill-opacity:0;"/>
    </g>
    <g transform="matrix(7.79294e-17,1.27268,-1.27268,7.79294e-17,25362.1,81789.5)">
        <circle cx="2589.32" cy="3017.39" r="128.424" style="fill:rgb(49,49,81);fill-opacity:0.2;"/>
    </g>
    <g transform="matrix(7.79294e-17,1.27268,-1.27268,7.79294e-17,9713.68,31150.6)">
        <circle cx="2589.32" cy="3017.39" r="128.424" style="fill:rgb(49,49,81);fill-opacity:0.2;"/>
    </g>
    <g transform="matrix(7.79294e-17,1.27268,-1.27268,7.79294e-17,30661.5,67464.1)">
        <circle cx="2589.32" cy="3017.39" r="128.424" style="fill:rgb(49,49,81);fill-opacity:0;"/>
    </g>
    <g transform="matrix(7.79294e-17,1.27268,-1.27268,7.79294e-17,29511.4,65485.5)">
        <circle cx="2589.32" cy="3017.39" r="128.424" style="fill:rgb(49,49,81);fill-opacity:0;"/>
    </g>
    <g transform="matrix(7.79294e-17,1.27268,-1.27268,7.79294e-17,7924.24,58645)">
        <circle cx="2589.32" cy="3017.39" r="128.424" style="fill:rgb(49,49,81);fill-opacity:0;"/>
    </g>
    <g transform="matrix(7.79294e-17,1.27268,-1.27268,7.79294e-17,7924.24,62597.3)">
        <circle cx="2589.32" cy="3017.39" r="128.424" style="fill:rgb(175,227,255);"/>
    </g>
    <g transform="matrix(7.79294e-17,1.27268,-1.27268,7.79294e-17,7924.24,69190.2)">
        <circle cx="2589.32" cy="3017.39" r="128.424" style="fill:rgb(49,49,81);fill-opacity:0;"/>
    </g>
    <g transform="matrix(7.79294e-17,1.27268,-1.27268,7.79294e-17,7924.24,66580.6)">
        <circle cx="2589.32" cy="3017.39" r="128.424" style="fill:rgb(49,49,81);fill-opacity:0.2;"/>
    </g>
    <g transform="matrix(7.79294e-17,1.27268,-1.27268,7.79294e-17,7924.24,51726.9)">
        <circle cx="2589.32" cy="3017.39" r="128.424" style="fill:rgb(49,49,81);fill-opacity:0;"/>
    </g>
    <g transform="matrix(7.79294e-17,1.27268,-1.27268,7.79294e-17,7924.24,59964.9)">
        <circle cx="2589.32" cy="3017.39" r="128.424" style="fill:rgb(49,49,81);fill-opacity:0;"/>
    </g>
    <g transform="matrix(7.79294e-17,1.27268,-1.27268,7.79294e-17,7924.24,63917.3)">
        <circle cx="2589.32" cy="3017.39" r="128.424" style="fill:rgb(175,227,255);"/>
    </g>
    <g transform="matrix(7.79294e-17,1.27268,-1.27268,7.79294e-17,7924.24,67900.5)">
        <circle cx="2589.32" cy="3017.39" r="128.424" style="fill:rgb(49,49,81);fill-opacity:0;"/>
    </g>
    <g transform="matrix(7.79294e-17,1.27268,-1.27268,7.79294e-17,6774.09,51073.1)">
        <circle cx="2589.32" cy="3017.39" r="128.424" style="fill:rgb(49,49,81);fill-opacity:0;"/>
    </g>
    <g transform="matrix(7.79294e-17,1.27268,-1.27268,7.79294e-17,6774.09,55160)">
        <circle cx="2589.32" cy="3017.39" r="128.424" style="fill:rgb(49,49,81);fill-opacity:0;"/>
    </g>
    <g transform="matrix(7.79294e-17,1.27268,-1.27268,7.79294e-17,6774.09,59311.2)">
        <circle cx="2589.32" cy="3017.39" r="128.424" style="fill:rgb(49,49,81);fill-opacity:0;"/>
    </g>
    <g transform="matrix(7.79294e-17,1.27268,-1.27268,7.79294e-17,6774.09,63263.5)">
        <circle cx="2589.32" cy="3017.39" r="128.424" style="fill:rgb(49,49,81);fill-opacity:0;"/>
    </g>
    <g transform="matrix(7.79294e-17,1.27268,-1.27268,7.79294e-17,6774.09,69856.4)">
        <circle cx="2589.32" cy="3017.39" r="128.424" style="fill:rgb(49,49,81);fill-opacity:0;"/>
    </g>
    <g transform="matrix(7.79294e-17,1.27268,-1.27268,7.79294e-17,6774.09,67246.8)">
        <circle cx="2589.32" cy="3017.39" r="128.424" style="fill:rgb(49,49,81);fill-opacity:0.2;"/>
    </g>
    <g transform="matrix(7.79294e-17,1.27268,-1.27268,7.79294e-17,6774.09,52380.7)">
        <circle cx="2589.32" cy="3017.39" r="128.424" style="fill:rgb(49,49,81);fill-opacity:0;"/>
    </g>
    <g transform="matrix(7.79294e-17,1.27268,-1.27268,7.79294e-17,6774.09,56467.6)">
        <circle cx="2589.32" cy="3017.39" r="128.424" style="fill:rgb(49,49,81);fill-opacity:0;"/>
    </g>
    <g transform="matrix(7.79294e-17,1.27268,-1.27268,7.79294e-17,6774.09,60618.7)">
        <circle cx="2589.32" cy="3017.39" r="128.424" style="fill:rgb(49,49,81);fill-opacity:0;"/>
    </g>
    <g transform="matrix(7.79294e-17,1.27268,-1.27268,7.79294e-17,6774.09,64571.1)">
        <circle cx="2589.32" cy="3017.39" r="128.424" style="fill:rgb(49,49,81);fill-opacity:0.2;"/>
    </g>
    <g transform="matrix(7.79294e-17,1.27268,-1.27268,7.79294e-17,6774.09,68554.3)">
        <circle cx="2589.32" cy="3017.39" r="128.424" style="fill:rgb(49,49,81);fill-opacity:0;"/>
    </g>
    <g transform="matrix(7.79294e-17,1.27268,-1.27268,7.79294e-17,31127.9,69190.2)">
        <circle cx="2589.32" cy="3017.39" r="128.424" style="fill:rgb(49,49,81);fill-opacity:0.2;"/>
    </g>
    <g transform="matrix(7.79294e-17,1.27268,-1.27268,7.79294e-17,31127.9,75832.6)">
        <circle cx="2589.32" cy="3017.39" r="128.424" style="fill:rgb(49,49,81);fill-opacity:0.2;"/>
    </g>
    <g transform="matrix(7.79294e-17,1.27268,-1.27268,7.79294e-17,31127.9,82508.8)">
        <circle cx="2589.32" cy="3017.39" r="128.424" style="fill:rgb(49,49,81);fill-opacity:0.2;"/>
    </g>
    <g transform="matrix(7.79294e-17,1.27268,-1.27268,7.79294e-17,31127.9,66580.6)">
        <circle cx="2589.32" cy="3017.39" r="128.424" style="fill:rgb(49,49,81);fill-opacity:0;"/>
    </g>
    <g transform="matrix(7.79294e-17,1.27268,-1.27268,7.79294e-17,31127.9,73173.4)">
        <circle cx="2589.32" cy="3017.39" r="128.424" style="fill:rgb(49,49,81);fill-opacity:0.2;"/>
    </g>
    <g transform="matrix(7.79294e-17,1.27268,-1.27268,7.79294e-17,31127.9,79815.8)">
        <circle cx="2589.32" cy="3017.39" r="128.424" style="fill:rgb(49,49,81);fill-opacity:0.2;"/>
    </g>
    <g transform="matrix(7.79294e-17,1.27268,-1.27268,7.79294e-17,31127.9,70510.2)">
        <circle cx="2589.32" cy="3017.39" r="128.424" style="fill:rgb(49,49,81);fill-opacity:0.2;"/>
    </g>
    <g transform="matrix(7.79294e-17,1.27268,-1.27268,7.79294e-17,31127.9,77152.5)">
        <circle cx="2589.32" cy="3017.39" r="128.424" style="fill:rgb(49,49,81);fill-opacity:0.2;"/>
    </g>
    <g transform="matrix(7.79294e-17,1.27268,-1.27268,7.79294e-17,31127.9,83828.8)">
        <circle cx="2589.32" cy="3017.39" r="128.424" style="fill:rgb(49,49,81);fill-opacity:0.2;"/>
    </g>
    <g transform="matrix(7.79294e-17,1.27268,-1.27268,7.79294e-17,31127.9,67900.5)">
        <circle cx="2589.32" cy="3017.39" r="128.424" style="fill:rgb(49,49,81);fill-opacity:0;"/>
    </g>
    <g transform="matrix(7.79294e-17,1.27268,-1.27268,7.79294e-17,31127.9,74493.4)">
        <circle cx="2589.32" cy="3017.39" r="128.424" style="fill:rgb(49,49,81);fill-opacity:0.2;"/>
    </g>
    <g transform="matrix(7.79294e-17,1.27268,-1.27268,7.79294e-17,31127.9,81135.8)">
        <circle cx="2589.32" cy="3017.39" r="128.424" style="fill:rgb(49,49,81);fill-opacity:0.2;"/>
    </g>
    <g transform="matrix(7.79294e-17,1.27268,-1.27268,7.79294e-17,29977.7,69856.4)">
        <circle cx="2589.32" cy="3017.39" r="128.424" style="fill:rgb(49,49,81);fill-opacity:0;"/>
    </g>
    <g transform="matrix(7.79294e-17,1.27268,-1.27268,7.79294e-17,29977.7,76498.8)">
        <circle cx="2589.32" cy="3017.39" r="128.424" style="fill:rgb(49,49,81);fill-opacity:0.2;"/>
    </g>
    <g transform="matrix(7.79294e-17,1.27268,-1.27268,7.79294e-17,29977.7,83175)">
        <circle cx="2589.32" cy="3017.39" r="128.424" style="fill:rgb(49,49,81);fill-opacity:0.2;"/>
    </g>
    <g transform="matrix(7.79294e-17,1.27268,-1.27268,7.79294e-17,29977.7,67246.8)">
        <circle cx="2589.32" cy="3017.39" r="128.424" style="fill:rgb(49,49,81);fill-opacity:0;"/>
    </g>
    <g transform="matrix(7.79294e-17,1.27268,-1.27268,7.79294e-17,29977.7,73839.6)">
        <circle cx="2589.32" cy="3017.39" r="128.424" style="fill:rgb(49,49,81);fill-opacity:0.2;"/>
    </g>
    <g transform="matrix(7.79294e-17,1.27268,-1.27268,7.79294e-17,29977.7,80482)">
        <circle cx="2589.32" cy="3017.39" r="128.424" style="fill:rgb(49,49,81);fill-opacity:0.2;"/>
    </g>
    <g transform="matrix(7.79294e-17,1.27268,-1.27268,7.79294e-17,29977.7,71163.9)">
        <circle cx="2589.32" cy="3017.39" r="128.424" style="fill:rgb(49,49,81);fill-opacity:0;"/>
    </g>
    <g transform="matrix(7.79294e-17,1.27268,-1.27268,7.79294e-17,29977.7,77806.3)">
        <circle cx="2589.32" cy="3017.39" r="128.424" style="fill:rgb(175,227,255);"/>
    </g>
    <g transform="matrix(7.79294e-17,1.27268,-1.27268,7.79294e-17,29977.7,84482.5)">
        <circle cx="2589.32" cy="3017.39" r="128.424" style="fill:rgb(49,49,81);fill-opacity:0.2;"/>
    </g>
    <g transform="matrix(7.79294e-17,1.27268,-1.27268,7.79294e-17,29977.7,68554.3)">
        <circle cx="2589.32" cy="3017.39" r="128.424" style="fill:rgb(49,49,81);fill-opacity:0;"/>
    </g>
    <g transform="matrix(7.79294e-17,1.27268,-1.27268,7.79294e-17,29977.7,75147.2)">
        <circle cx="2589.32" cy="3017.39" r="128.424" style="fill:rgb(49,49,81);fill-opacity:0.2;"/>
    </g>
    <g transform="matrix(7.79294e-17,1.27268,-1.27268,7.79294e-17,29977.7,81789.5)">
        <circle cx="2589.32" cy="3017.39" r="128.424" style="fill:rgb(49,49,81);fill-opacity:0.2;"/>
    </g>
    <g transform="matrix(7.79294e-17,1.27268,-1.27268,7.79294e-17,34549.9,17055.6)">
        <circle cx="2589.32" cy="3017.39" r="128.424" style="fill:rgb(49,49,81);fill-opacity:0.2;"/>
    </g>
    <g transform="matrix(7.79294e-17,1.27268,-1.27268,7.79294e-17,34549.9,18375.5)">
        <circle cx="2589.32" cy="3017.39" r="128.424" style="fill:rgb(49,49,81);fill-opacity:0.2;"/>
    </g>
    <g transform="matrix(7.79294e-17,1.27268,-1.27268,7.79294e-17,34549.9,26613.6)">
        <circle cx="2589.32" cy="3017.39" r="128.424" style="fill:rgb(49,49,81);fill-opacity:0.2;"/>
    </g>
    <g transform="matrix(7.79294e-17,1.27268,-1.27268,7.79294e-17,33399.8,17721.8)">
        <circle cx="2589.32" cy="3017.39" r="128.424" style="fill:rgb(49,49,81);fill-opacity:0.2;"/>
    </g>
    <g transform="matrix(7.79294e-17,1.27268,-1.27268,7.79294e-17,33399.8,27267.3)">
        <circle cx="2589.32" cy="3017.39" r="128.424" style="fill:rgb(49,49,81);fill-opacity:0.2;"/>
    </g>
    <g transform="matrix(7.79294e-17,1.27268,-1.27268,7.79294e-17,5153.77,31150.6)">
        <circle cx="2589.32" cy="3017.39" r="128.424" style="fill:rgb(49,49,81);fill-opacity:0.2;"/>
    </g>
    <g transform="matrix(7.79294e-17,1.27268,-1.27268,7.79294e-17,26101.6,67464.1)">
        <circle cx="2589.32" cy="3017.39" r="128.424" style="fill:rgb(49,49,81);fill-opacity:0;"/>
    </g>
    <g transform="matrix(7.79294e-17,1.27268,-1.27268,7.79294e-17,26101.6,74057)">
        <circle cx="2589.32" cy="3017.39" r="128.424" style="fill:rgb(49,49,81);fill-opacity:0;"/>
    </g>
    <g transform="matrix(7.79294e-17,1.27268,-1.27268,7.79294e-17,26101.6,71447.4)">
        <circle cx="2589.32" cy="3017.39" r="128.424" style="fill:rgb(49,49,81);fill-opacity:0;"/>
    </g>
    <g transform="matrix(7.79294e-17,1.27268,-1.27268,7.79294e-17,26101.6,68784.1)">
        <circle cx="2589.32" cy="3017.39" r="128.424" style="fill:rgb(49,49,81);fill-opacity:0;"/>
    </g>
    <g transform="matrix(7.79294e-17,1.27268,-1.27268,7.79294e-17,26101.6,72767.3)">
        <circle cx="2589.32" cy="3017.39" r="128.424" style="fill:rgb(49,49,81);fill-opacity:0;"/>
    </g>
    <g transform="matrix(7.79294e-17,1.27268,-1.27268,7.79294e-17,24951.5,68130.3)">
        <circle cx="2589.32" cy="3017.39" r="128.424" style="fill:rgb(49,49,81);fill-opacity:0;"/>
    </g>
    <g transform="matrix(7.79294e-17,1.27268,-1.27268,7.79294e-17,24951.5,74723.2)">
        <circle cx="2589.32" cy="3017.39" r="128.424" style="fill:rgb(49,49,81);fill-opacity:0;"/>
    </g>
    <g transform="matrix(7.79294e-17,1.27268,-1.27268,7.79294e-17,24951.5,72113.6)">
        <circle cx="2589.32" cy="3017.39" r="128.424" style="fill:rgb(49,49,81);fill-opacity:0;"/>
    </g>
    <g transform="matrix(7.79294e-17,1.27268,-1.27268,7.79294e-17,24951.5,65485.5)">
        <circle cx="2589.32" cy="3017.39" r="128.424" style="fill:rgb(49,49,81);fill-opacity:0;"/>
    </g>
    <g transform="matrix(7.79294e-17,1.27268,-1.27268,7.79294e-17,24951.5,69437.9)">
        <circle cx="2589.32" cy="3017.39" r="128.424" style="fill:rgb(49,49,81);fill-opacity:0;"/>
    </g>
    <g transform="matrix(7.79294e-17,1.27268,-1.27268,7.79294e-17,24951.5,73421.1)">
        <circle cx="2589.32" cy="3017.39" r="128.424" style="fill:rgb(49,49,81);fill-opacity:0;"/>
    </g>
    <g transform="matrix(7.79294e-17,1.27268,-1.27268,7.79294e-17,12304.8,30685.2)">
        <circle cx="2589.32" cy="3017.39" r="128.424" style="fill:rgb(49,49,81);fill-opacity:0;"/>
    </g>
    <g transform="matrix(7.79294e-17,1.27268,-1.27268,7.79294e-17,19349.8,34232)">
        <circle cx="2589.32" cy="3017.39" r="128.424" style="fill:rgb(49,49,81);fill-opacity:0;"/>
    </g>
    <g transform="matrix(7.79294e-17,1.27268,-1.27268,7.79294e-17,19349.8,35552)">
        <circle cx="2589.32" cy="3017.39" r="128.424" style="fill:rgb(49,49,81);fill-opacity:0;"/>
    </g>
    <g transform="matrix(7.79294e-17,1.27268,-1.27268,7.79294e-17,18199.7,34898.2)">
        <circle cx="2589.32" cy="3017.39" r="128.424" style="fill:rgb(49,49,81);fill-opacity:0;"/>
    </g>
    <g transform="matrix(7.79294e-17,1.27268,-1.27268,7.79294e-17,18199.7,36205.8)">
        <circle cx="2589.32" cy="3017.39" r="128.424" style="fill:rgb(49,49,81);fill-opacity:0;"/>
    </g>
    <g transform="matrix(7.79294e-17,1.27268,-1.27268,7.79294e-17,12041.7,29270.5)">
        <circle cx="2589.32" cy="3017.39" r="128.424" style="fill:rgb(49,49,81);fill-opacity:0;"/>
    </g>
    <g transform="matrix(7.79294e-17,1.27268,-1.27268,7.79294e-17,12041.7,30590.4)">
        <circle cx="2589.32" cy="3017.39" r="128.424" style="fill:rgb(49,49,81);fill-opacity:0;"/>
    </g>
    <g transform="matrix(7.79294e-17,1.27268,-1.27268,7.79294e-17,39109.8,12999.2)">
        <circle cx="2589.32" cy="3017.39" r="128.424" style="fill:rgb(49,49,81);fill-opacity:0;"/>
    </g>
    <g transform="matrix(7.79294e-17,1.27268,-1.27268,7.79294e-17,37959.7,12345.4)">
        <circle cx="2589.32" cy="3017.39" r="128.424" style="fill:rgb(49,49,81);fill-opacity:0;"/>
    </g>
    <g transform="matrix(7.79294e-17,1.27268,-1.27268,7.79294e-17,37959.7,13652.9)">
        <circle cx="2589.32" cy="3017.39" r="128.424" style="fill:rgb(49,49,81);fill-opacity:0;"/>
    </g>
    <g transform="matrix(7.79294e-17,1.27268,-1.27268,7.79294e-17,34549.9,12999.2)">
        <circle cx="2589.32" cy="3017.39" r="128.424" style="fill:rgb(49,49,81);fill-opacity:0;"/>
    </g>
    <g transform="matrix(7.79294e-17,1.27268,-1.27268,7.79294e-17,33399.8,12345.4)">
        <circle cx="2589.32" cy="3017.39" r="128.424" style="fill:rgb(49,49,81);fill-opacity:0;"/>
    </g>
    <g transform="matrix(7.79294e-17,1.27268,-1.27268,7.79294e-17,33399.8,13652.9)">
        <circle cx="2589.32" cy="3017.39" r="128.424" style="fill:rgb(49,49,81);fill-opacity:0;"/>
    </g>
    <g transform="matrix(7.79294e-17,1.27268,-1.27268,7.79294e-17,19349.8,45030.6)">
        <circle cx="2589.32" cy="3017.39" r="128.424" style="fill:rgb(49,49,81);fill-opacity:0;"/>
    </g>
    <g transform="matrix(7.79294e-17,1.27268,-1.27268,7.79294e-17,19349.8,46350.5)">
        <circle cx="2589.32" cy="3017.39" r="128.424" style="fill:rgb(49,49,81);fill-opacity:0;"/>
    </g>
    <g transform="matrix(7.79294e-17,1.27268,-1.27268,7.79294e-17,18199.7,45696.8)">
        <circle cx="2589.32" cy="3017.39" r="128.424" style="fill:rgb(49,49,81);fill-opacity:0;"/>
    </g>
    <g transform="matrix(7.79294e-17,1.27268,-1.27268,7.79294e-17,18199.7,47004.3)">
        <circle cx="2589.32" cy="3017.39" r="128.424" style="fill:rgb(49,49,81);fill-opacity:0;"/>
    </g>
    <g transform="matrix(7.79294e-17,1.27268,-1.27268,7.79294e-17,12041.7,26553.3)">
        <circle cx="2589.32" cy="3017.39" r="128.424" style="fill:rgb(49,49,81);fill-opacity:0;"/>
    </g>
    <g transform="matrix(7.79294e-17,1.27268,-1.27268,7.79294e-17,12041.7,27873.3)">
        <circle cx="2589.32" cy="3017.39" r="128.424" style="fill:rgb(49,49,81);fill-opacity:0;"/>
    </g>
    <g transform="matrix(7.79294e-17,1.27268,-1.27268,7.79294e-17,19349.8,42313.4)">
        <circle cx="2589.32" cy="3017.39" r="128.424" style="fill:rgb(49,49,81);fill-opacity:0;"/>
    </g>
    <g transform="matrix(7.79294e-17,1.27268,-1.27268,7.79294e-17,19349.8,43633.4)">
        <circle cx="2589.32" cy="3017.39" r="128.424" style="fill:rgb(49,49,81);fill-opacity:0;"/>
    </g>
    <g transform="matrix(7.79294e-17,1.27268,-1.27268,7.79294e-17,18199.7,42979.6)">
        <circle cx="2589.32" cy="3017.39" r="128.424" style="fill:rgb(49,49,81);fill-opacity:0;"/>
    </g>
    <g transform="matrix(7.79294e-17,1.27268,-1.27268,7.79294e-17,18199.7,44287.2)">
        <circle cx="2589.32" cy="3017.39" r="128.424" style="fill:rgb(49,49,81);fill-opacity:0;"/>
    </g>
    <g transform="matrix(7.79294e-17,1.27268,-1.27268,7.79294e-17,9114,1661.06)">
        <circle cx="2589.32" cy="3017.39" r="128.424" style="fill:rgb(49,49,81);fill-opacity:0.2;"/>
    </g>
    <g transform="matrix(7.79294e-17,1.27268,-1.27268,7.79294e-17,7963.85,2314.83)">
        <circle cx="2589.32" cy="3017.39" r="128.424" style="fill:rgb(49,49,81);fill-opacity:0.2;"/>
    </g>
    <g transform="matrix(7.79294e-17,1.27268,-1.27268,7.79294e-17,4554.1,1661.06)">
        <circle cx="2589.32" cy="3017.39" r="128.424" style="fill:rgb(49,49,81);fill-opacity:0.2;"/>
    </g>
    <g transform="matrix(7.79294e-17,1.27268,-1.27268,7.79294e-17,9114,3029.27)">
        <circle cx="2589.32" cy="3017.39" r="128.424" style="fill:rgb(49,49,81);fill-opacity:0.2;"/>
    </g>
    <g transform="matrix(7.79294e-17,1.27268,-1.27268,7.79294e-17,9114,4349.24)">
        <circle cx="2589.32" cy="3017.39" r="128.424" style="fill:rgb(49,49,81);fill-opacity:0.2;"/>
    </g>
    <g transform="matrix(7.79294e-17,1.27268,-1.27268,7.79294e-17,7963.85,6388.48)">
        <circle cx="2589.32" cy="3017.39" r="128.424" style="fill:rgb(49,49,81);fill-opacity:0.2;"/>
    </g>
    <g transform="matrix(7.79294e-17,1.27268,-1.27268,7.79294e-17,7963.85,3695.47)">
        <circle cx="2589.32" cy="3017.39" r="128.424" style="fill:rgb(49,49,81);fill-opacity:0.2;"/>
    </g>
    <g transform="matrix(7.79294e-17,1.27268,-1.27268,7.79294e-17,7963.85,1019.76)">
        <circle cx="2589.32" cy="3017.39" r="128.424" style="fill:rgb(49,49,81);fill-opacity:0.2;"/>
    </g>
    <g transform="matrix(7.79294e-17,1.27268,-1.27268,7.79294e-17,7963.85,5003.01)">
        <circle cx="2589.32" cy="3017.39" r="128.424" style="fill:rgb(49,49,81);fill-opacity:0.2;"/>
    </g>
    <g transform="matrix(7.79294e-17,1.27268,-1.27268,7.79294e-17,4554.1,5722.28)">
        <circle cx="2589.32" cy="3017.39" r="128.424" style="fill:rgb(49,49,81);fill-opacity:0.2;"/>
    </g>
    <g transform="matrix(7.79294e-17,1.27268,-1.27268,7.79294e-17,4554.1,3029.27)">
        <circle cx="2589.32" cy="3017.39" r="128.424" style="fill:rgb(49,49,81);fill-opacity:0.2;"/>
    </g>
    <g transform="matrix(7.79294e-17,1.27268,-1.27268,7.79294e-17,4554.1,7042.25)">
        <circle cx="2589.32" cy="3017.39" r="128.424" style="fill:rgb(49,49,81);fill-opacity:0.2;"/>
    </g>
    <g transform="matrix(7.79294e-17,1.27268,-1.27268,7.79294e-17,4554.1,4349.24)">
        <circle cx="2589.32" cy="3017.39" r="128.424" style="fill:rgb(49,49,81);fill-opacity:0.2;"/>
    </g>
    <g transform="matrix(7.79294e-17,1.27268,-1.27268,7.79294e-17,6831.78,1661.06)">
        <circle cx="2589.32" cy="3017.39" r="128.424" style="fill:rgb(49,49,81);fill-opacity:0.2;"/>
    </g>
    <g transform="matrix(7.79294e-17,1.27268,-1.27268,7.79294e-17,5681.63,2314.83)">
        <circle cx="2589.32" cy="3017.39" r="128.424" style="fill:rgb(49,49,81);fill-opacity:0.2;"/>
    </g>
    <g transform="matrix(7.79294e-17,1.27268,-1.27268,7.79294e-17,6831.78,5722.28)">
        <circle cx="2589.32" cy="3017.39" r="128.424" style="fill:rgb(49,49,81);fill-opacity:0.2;"/>
    </g>
    <g transform="matrix(7.79294e-17,1.27268,-1.27268,7.79294e-17,6831.78,3029.27)">
        <circle cx="2589.32" cy="3017.39" r="128.424" style="fill:rgb(49,49,81);fill-opacity:0.2;"/>
    </g>
    <g transform="matrix(7.79294e-17,1.27268,-1.27268,7.79294e-17,6831.78,7042.25)">
        <circle cx="2589.32" cy="3017.39" r="128.424" style="fill:rgb(49,49,81);fill-opacity:0.2;"/>
    </g>
    <g transform="matrix(7.79294e-17,1.27268,-1.27268,7.79294e-17,6831.78,4349.24)">
        <circle cx="2589.32" cy="3017.39" r="128.424" style="fill:rgb(49,49,81);fill-opacity:0.2;"/>
    </g>
    <g transform="matrix(7.79294e-17,1.27268,-1.27268,7.79294e-17,5681.63,6388.48)">
        <circle cx="2589.32" cy="3017.39" r="128.424" style="fill:rgb(49,49,81);fill-opacity:0.2;"/>
    </g>
    <g transform="matrix(7.79294e-17,1.27268,-1.27268,7.79294e-17,5681.63,3695.47)">
        <circle cx="2589.32" cy="3017.39" r="128.424" style="fill:rgb(49,49,81);fill-opacity:0.2;"/>
    </g>
    <g transform="matrix(7.79294e-17,1.27268,-1.27268,7.79294e-17,5681.63,1019.76)">
        <circle cx="2589.32" cy="3017.39" r="128.424" style="fill:rgb(49,49,81);fill-opacity:0.2;"/>
    </g>
    <g transform="matrix(7.79294e-17,1.27268,-1.27268,7.79294e-17,5681.63,7696.02)">
        <circle cx="2589.32" cy="3017.39" r="128.424" style="fill:rgb(49,49,81);fill-opacity:0.2;"/>
    </g>
    <g transform="matrix(7.79294e-17,1.27268,-1.27268,7.79294e-17,5681.63,5003.01)">
        <circle cx="2589.32" cy="3017.39" r="128.424" style="fill:rgb(49,49,81);fill-opacity:0.2;"/>
    </g>
</svg>
