<?xml version="1.0" encoding="UTF-8" standalone="no"?>
<!DOCTYPE svg PUBLIC "-//W3C//DTD SVG 1.1//EN" "http://www.w3.org/Graphics/SVG/1.1/DTD/svg11.dtd">
<svg width="100%" height="100%" viewBox="0 0 21260 14044" version="1.1" xmlns="http://www.w3.org/2000/svg" xmlns:xlink="http://www.w3.org/1999/xlink" xml:space="preserve" xmlns:serif="http://www.serif.com/" style="fill-rule:evenodd;clip-rule:evenodd;stroke-linecap:round;stroke-linejoin:round;stroke-miterlimit:1.5;">
    <path d="M20424.1,3488.22L20807.5,3736.54L20807.5,4192.61" style="fill:none;stroke:rgb(55,184,255);stroke-width:33.33px;"/>
    <path d="M21183.3,3488.22L20807.5,3736.54" style="fill:none;stroke:rgb(55,184,255);stroke-width:33.33px;"/>
    <path d="M17651,12285.5L18034.4,12514L18410.2,12285.5L18793.6,12067.6L18793.6,11627.6" style="fill:none;stroke:rgb(55,184,255);stroke-width:33.33px;"/>
    <path d="M16495.9,12954L16890.3,13171.9L16890.3,13603.6L16495.9,13841.7" style="fill:none;stroke:rgb(55,184,255);stroke-width:33.33px;"/>
    <path d="M1036.11,8542.24L1036.11,8102.25L1413.46,7864.11L1413.46,6546.66" style="fill:none;stroke:rgb(55,184,255);stroke-width:33.33px;"/>
    <g transform="matrix(2.59765e-17,0.424228,-0.424228,2.59765e-17,17571.4,-1115.24)">
        <circle cx="2589.32" cy="3017.39" r="128.424" style="fill:rgb(49,49,81);fill-opacity:0;"/>
    </g>
    <g transform="matrix(2.59765e-17,0.424228,-0.424228,2.59765e-17,17188,-897.319)">
        <circle cx="2589.32" cy="3017.39" r="128.424" style="fill:rgb(49,49,81);fill-opacity:0;"/>
    </g>
    <g transform="matrix(2.59765e-17,0.424228,-0.424228,2.59765e-17,17571.4,2044.28)">
        <circle cx="2589.32" cy="3017.39" r="128.424" style="fill:rgb(49,49,81);fill-opacity:0;"/>
    </g>
    <g transform="matrix(2.59765e-17,0.424228,-0.424228,2.59765e-17,17571.4,2484.27)">
        <circle cx="2589.32" cy="3017.39" r="128.424" style="fill:rgb(49,49,81);fill-opacity:0;"/>
    </g>
    <g transform="matrix(2.59765e-17,0.424228,-0.424228,2.59765e-17,17571.4,3846.56)">
        <circle cx="2589.32" cy="3017.39" r="128.424" style="fill:rgb(49,49,81);fill-opacity:0;"/>
    </g>
    <g transform="matrix(2.59765e-17,0.424228,-0.424228,2.59765e-17,17571.4,5230.28)">
        <circle cx="2589.32" cy="3017.39" r="128.424" style="fill:rgb(49,49,81);fill-opacity:0;"/>
    </g>
    <g transform="matrix(2.59765e-17,0.424228,-0.424228,2.59765e-17,17571.4,6547.72)">
        <circle cx="2589.32" cy="3017.39" r="128.424" style="fill:rgb(49,49,81);fill-opacity:0;"/>
    </g>
    <g transform="matrix(2.59765e-17,0.424228,-0.424228,2.59765e-17,17571.4,7875.47)">
        <circle cx="2589.32" cy="3017.39" r="128.424" style="fill:rgb(49,49,81);fill-opacity:0;"/>
    </g>
    <g transform="matrix(2.59765e-17,0.424228,-0.424228,2.59765e-17,20834.4,10073.1)">
        <circle cx="2589.32" cy="3017.39" r="128.424" style="fill:rgb(49,49,81);fill-opacity:0;"/>
    </g>
    <g transform="matrix(2.59765e-17,0.424228,-0.424228,2.59765e-17,20834.4,12287.2)">
        <circle cx="2589.32" cy="3017.39" r="128.424" style="fill:rgb(49,49,81);fill-opacity:0.2;"/>
    </g>
    <g transform="matrix(2.59765e-17,0.424228,-0.424228,2.59765e-17,17188,2266.34)">
        <circle cx="2589.32" cy="3017.39" r="128.424" style="fill:rgb(49,49,81);fill-opacity:0;"/>
    </g>
    <g transform="matrix(2.59765e-17,0.424228,-0.424228,2.59765e-17,17188,2702.19)">
        <circle cx="2589.32" cy="3017.39" r="128.424" style="fill:rgb(49,49,81);fill-opacity:0;"/>
    </g>
    <g transform="matrix(2.59765e-17,0.424228,-0.424228,2.59765e-17,17188,4064.48)">
        <circle cx="2589.32" cy="3017.39" r="128.424" style="fill:rgb(49,49,81);fill-opacity:0;"/>
    </g>
    <g transform="matrix(2.59765e-17,0.424228,-0.424228,2.59765e-17,17188,5448.2)">
        <circle cx="2589.32" cy="3017.39" r="128.424" style="fill:rgb(49,49,81);fill-opacity:0;"/>
    </g>
    <g transform="matrix(2.59765e-17,0.424228,-0.424228,2.59765e-17,17188,6765.65)">
        <circle cx="2589.32" cy="3017.39" r="128.424" style="fill:rgb(49,49,81);fill-opacity:0;"/>
    </g>
    <g transform="matrix(2.59765e-17,0.424228,-0.424228,2.59765e-17,17188,8093.39)">
        <circle cx="2589.32" cy="3017.39" r="128.424" style="fill:rgb(49,49,81);fill-opacity:0;"/>
    </g>
    <g transform="matrix(2.59765e-17,0.424228,-0.424228,2.59765e-17,20451,10291)">
        <circle cx="2589.32" cy="3017.39" r="128.424" style="fill:rgb(49,49,81);fill-opacity:0.2;"/>
    </g>
    <g transform="matrix(2.59765e-17,0.424228,-0.424228,2.59765e-17,20451,12505.1)">
        <circle cx="2589.32" cy="3017.39" r="128.424" style="fill:rgb(49,49,81);fill-opacity:0.2;"/>
    </g>
    <g transform="matrix(2.59765e-17,0.424228,-0.424228,2.59765e-17,17775.9,10073.1)">
        <circle cx="2589.32" cy="3017.39" r="128.424" style="fill:rgb(49,49,81);fill-opacity:0;"/>
    </g>
    <g transform="matrix(2.59765e-17,0.424228,-0.424228,2.59765e-17,17775.9,12287.2)">
        <circle cx="2589.32" cy="3017.39" r="128.424" style="fill:rgb(49,49,81);fill-opacity:0.2;"/>
    </g>
    <g transform="matrix(2.59765e-17,0.424228,-0.424228,2.59765e-17,17392.5,10291)">
        <circle cx="2589.32" cy="3017.39" r="128.424" style="fill:rgb(49,49,81);fill-opacity:0;"/>
    </g>
    <g transform="matrix(2.59765e-17,0.424228,-0.424228,2.59765e-17,17392.5,12505.1)">
        <circle cx="2589.32" cy="3017.39" r="128.424" style="fill:rgb(49,49,81);fill-opacity:0.2;"/>
    </g>
    <g transform="matrix(2.59765e-17,0.424228,-0.424228,2.59765e-17,20547.7,835.79)">
        <circle cx="2589.32" cy="3017.39" r="128.424" style="fill:rgb(49,49,81);fill-opacity:0;"/>
    </g>
    <g transform="matrix(2.59765e-17,0.424228,-0.424228,2.59765e-17,20547.7,1275.78)">
        <circle cx="2589.32" cy="3017.39" r="128.424" style="fill:rgb(49,49,81);fill-opacity:0;"/>
    </g>
    <g transform="matrix(2.59765e-17,0.424228,-0.424228,2.59765e-17,6124.69,6547.72)">
        <circle cx="2589.32" cy="3017.39" r="128.424" style="fill:rgb(49,49,81);fill-opacity:0;"/>
    </g>
    <g transform="matrix(2.59765e-17,0.424228,-0.424228,2.59765e-17,11453.2,12287.2)">
        <circle cx="2589.32" cy="3017.39" r="128.424" style="fill:rgb(49,49,81);fill-opacity:0;"/>
    </g>
    <g transform="matrix(2.59765e-17,0.424228,-0.424228,2.59765e-17,3377.72,-85.4898)">
        <circle cx="2589.32" cy="3017.39" r="128.424" style="fill:rgb(49,49,81);fill-opacity:0.2;"/>
    </g>
    <g transform="matrix(2.59765e-17,0.424228,-0.424228,2.59765e-17,5741.31,6765.65)">
        <circle cx="2589.32" cy="3017.39" r="128.424" style="fill:rgb(49,49,81);fill-opacity:0;"/>
    </g>
    <g transform="matrix(2.59765e-17,0.424228,-0.424228,2.59765e-17,11069.8,12505.1)">
        <circle cx="2589.32" cy="3017.39" r="128.424" style="fill:rgb(49,49,81);fill-opacity:0;"/>
    </g>
    <g transform="matrix(2.59765e-17,0.424228,-0.424228,2.59765e-17,3076.91,6547.72)">
        <circle cx="2589.32" cy="3017.39" r="128.424" style="fill:rgb(49,49,81);fill-opacity:0;"/>
    </g>
    <g transform="matrix(2.59765e-17,0.424228,-0.424228,2.59765e-17,3076.91,7875.47)">
        <circle cx="2589.32" cy="3017.39" r="128.424" style="fill:rgb(49,49,81);fill-opacity:0;"/>
    </g>
    <g transform="matrix(2.59765e-17,0.424228,-0.424228,2.59765e-17,2693.52,5448.2)">
        <circle cx="2589.32" cy="3017.39" r="128.424" style="fill:rgb(55,184,255);"/>
    </g>
    <g transform="matrix(2.59765e-17,0.424228,-0.424228,2.59765e-17,2693.52,6765.65)">
        <circle cx="2589.32" cy="3017.39" r="128.424" style="fill:rgb(55,184,255);"/>
    </g>
    <g transform="matrix(2.59765e-17,0.424228,-0.424228,2.59765e-17,2693.52,8093.39)">
        <circle cx="2589.32" cy="3017.39" r="128.424" style="fill:rgb(49,49,81);fill-opacity:0;"/>
    </g>
    <g transform="matrix(2.59765e-17,0.424228,-0.424228,2.59765e-17,19314.5,10073.1)">
        <circle cx="2589.32" cy="3017.39" r="128.424" style="fill:rgb(49,49,81);fill-opacity:0.2;"/>
    </g>
    <g transform="matrix(2.59765e-17,0.424228,-0.424228,2.59765e-17,19314.5,12287.2)">
        <circle cx="2589.32" cy="3017.39" r="128.424" style="fill:rgb(49,49,81);fill-opacity:0.2;"/>
    </g>
    <g transform="matrix(2.59765e-17,0.424228,-0.424228,2.59765e-17,18931.1,10291)">
        <circle cx="2589.32" cy="3017.39" r="128.424" style="fill:rgb(49,49,81);fill-opacity:0.2;"/>
    </g>
    <g transform="matrix(2.59765e-17,0.424228,-0.424228,2.59765e-17,18931.1,12505.1)">
        <circle cx="2589.32" cy="3017.39" r="128.424" style="fill:rgb(49,49,81);fill-opacity:0.2;"/>
    </g>
    <g transform="matrix(2.59765e-17,0.424228,-0.424228,2.59765e-17,22087.5,835.79)">
        <circle cx="2589.32" cy="3017.39" r="128.424" style="fill:rgb(49,49,81);fill-opacity:0.2;"/>
    </g>
    <g transform="matrix(2.59765e-17,0.424228,-0.424228,2.59765e-17,22087.5,1275.78)">
        <circle cx="2589.32" cy="3017.39" r="128.424" style="fill:rgb(49,49,81);fill-opacity:0.2;"/>
    </g>
    <g transform="matrix(2.59765e-17,0.424228,-0.424228,2.59765e-17,22087.5,2638.07)">
        <circle cx="2589.32" cy="3017.39" r="128.424" style="fill:rgb(55,184,255);"/>
    </g>
    <g transform="matrix(2.59765e-17,0.424228,-0.424228,2.59765e-17,22087.5,4021.79)">
        <circle cx="2589.32" cy="3017.39" r="128.424" style="fill:rgb(49,49,81);fill-opacity:0.2;"/>
    </g>
    <g transform="matrix(2.59765e-17,0.424228,-0.424228,2.59765e-17,22087.5,5339.24)">
        <circle cx="2589.32" cy="3017.39" r="128.424" style="fill:rgb(49,49,81);fill-opacity:0.2;"/>
    </g>
    <g transform="matrix(2.59765e-17,0.424228,-0.424228,2.59765e-17,12993,12287.2)">
        <circle cx="2589.32" cy="3017.39" r="128.424" style="fill:rgb(49,49,81);fill-opacity:0;"/>
    </g>
    <g transform="matrix(2.59765e-17,0.424228,-0.424228,2.59765e-17,21704.1,1057.86)">
        <circle cx="2589.32" cy="3017.39" r="128.424" style="fill:rgb(49,49,81);fill-opacity:0.2;"/>
    </g>
    <g transform="matrix(2.59765e-17,0.424228,-0.424228,2.59765e-17,21704.1,1493.7)">
        <circle cx="2589.32" cy="3017.39" r="128.424" style="fill:rgb(49,49,81);fill-opacity:0.2;"/>
    </g>
    <g transform="matrix(2.59765e-17,0.424228,-0.424228,2.59765e-17,12609.6,12505.1)">
        <circle cx="2589.32" cy="3017.39" r="128.424" style="fill:rgb(49,49,81);fill-opacity:0;"/>
    </g>
    <g transform="matrix(2.59765e-17,0.424228,-0.424228,2.59765e-17,2241.13,-303.413)">
        <circle cx="2589.32" cy="3017.39" r="128.424" style="fill:rgb(49,49,81);fill-opacity:0.2;"/>
    </g>
    <g transform="matrix(2.59765e-17,0.424228,-0.424228,2.59765e-17,4604.72,6547.72)">
        <circle cx="2589.32" cy="3017.39" r="128.424" style="fill:rgb(49,49,81);fill-opacity:0;"/>
    </g>
    <g transform="matrix(2.59765e-17,0.424228,-0.424228,2.59765e-17,1857.75,-85.4898)">
        <circle cx="2589.32" cy="3017.39" r="128.424" style="fill:rgb(49,49,81);fill-opacity:0.2;"/>
    </g>
    <g transform="matrix(2.59765e-17,0.424228,-0.424228,2.59765e-17,4221.34,6765.65)">
        <circle cx="2589.32" cy="3017.39" r="128.424" style="fill:rgb(49,49,81);fill-opacity:0;"/>
    </g>
    <g transform="matrix(2.59765e-17,0.424228,-0.424228,2.59765e-17,1556.94,3846.56)">
        <circle cx="2589.32" cy="3017.39" r="128.424" style="fill:rgb(49,49,81);fill-opacity:0;"/>
    </g>
    <g transform="matrix(2.59765e-17,0.424228,-0.424228,2.59765e-17,1556.94,5230.28)">
        <circle cx="2589.32" cy="3017.39" r="128.424" style="fill:rgb(49,49,81);fill-opacity:0;"/>
    </g>
    <g transform="matrix(2.59765e-17,0.424228,-0.424228,2.59765e-17,1556.94,6547.72)">
        <circle cx="2589.32" cy="3017.39" r="128.424" style="fill:rgb(49,49,81);fill-opacity:0;"/>
    </g>
    <g transform="matrix(2.59765e-17,0.424228,-0.424228,2.59765e-17,1556.94,7875.47)">
        <circle cx="2589.32" cy="3017.39" r="128.424" style="fill:rgb(49,49,81);fill-opacity:0.2;"/>
    </g>
    <g transform="matrix(2.59765e-17,0.424228,-0.424228,2.59765e-17,17571.4,-659.175)">
        <circle cx="2589.32" cy="3017.39" r="128.424" style="fill:rgb(49,49,81);fill-opacity:0;"/>
    </g>
    <g transform="matrix(2.59765e-17,0.424228,-0.424228,2.59765e-17,17571.4,-219.185)">
        <circle cx="2589.32" cy="3017.39" r="128.424" style="fill:rgb(49,49,81);fill-opacity:0;"/>
    </g>
    <g transform="matrix(2.59765e-17,0.424228,-0.424228,2.59765e-17,17188,-437.108)">
        <circle cx="2589.32" cy="3017.39" r="128.424" style="fill:rgb(49,49,81);fill-opacity:0;"/>
    </g>
    <g transform="matrix(2.59765e-17,0.424228,-0.424228,2.59765e-17,17188,-1.26166)">
        <circle cx="2589.32" cy="3017.39" r="128.424" style="fill:rgb(49,49,81);fill-opacity:0;"/>
    </g>
    <g transform="matrix(2.59765e-17,0.424228,-0.424228,2.59765e-17,17571.4,2940.33)">
        <circle cx="2589.32" cy="3017.39" r="128.424" style="fill:rgb(49,49,81);fill-opacity:0;"/>
    </g>
    <g transform="matrix(2.59765e-17,0.424228,-0.424228,2.59765e-17,17571.4,4302.63)">
        <circle cx="2589.32" cy="3017.39" r="128.424" style="fill:rgb(49,49,81);fill-opacity:0;"/>
    </g>
    <g transform="matrix(2.59765e-17,0.424228,-0.424228,2.59765e-17,17571.4,5686.34)">
        <circle cx="2589.32" cy="3017.39" r="128.424" style="fill:rgb(49,49,81);fill-opacity:0;"/>
    </g>
    <g transform="matrix(2.59765e-17,0.424228,-0.424228,2.59765e-17,17571.4,7003.79)">
        <circle cx="2589.32" cy="3017.39" r="128.424" style="fill:rgb(49,49,81);fill-opacity:0;"/>
    </g>
    <g transform="matrix(2.59765e-17,0.424228,-0.424228,2.59765e-17,20834.4,9201.42)">
        <circle cx="2589.32" cy="3017.39" r="128.424" style="fill:rgb(49,49,81);fill-opacity:0;"/>
    </g>
    <g transform="matrix(2.59765e-17,0.424228,-0.424228,2.59765e-17,20834.4,11415.5)">
        <circle cx="2589.32" cy="3017.39" r="128.424" style="fill:rgb(49,49,81);fill-opacity:0.2;"/>
    </g>
    <g transform="matrix(2.59765e-17,0.424228,-0.424228,2.59765e-17,20834.4,8331.54)">
        <circle cx="2589.32" cy="3017.39" r="128.424" style="fill:rgb(49,49,81);fill-opacity:0;"/>
    </g>
    <g transform="matrix(2.59765e-17,0.424228,-0.424228,2.59765e-17,20834.4,10529.2)">
        <circle cx="2589.32" cy="3017.39" r="128.424" style="fill:rgb(49,49,81);fill-opacity:0.2;"/>
    </g>
    <g transform="matrix(2.59765e-17,0.424228,-0.424228,2.59765e-17,20834.4,12743.3)">
        <circle cx="2589.32" cy="3017.39" r="128.424" style="fill:rgb(49,49,81);fill-opacity:0.2;"/>
    </g>
    <g transform="matrix(2.59765e-17,0.424228,-0.424228,2.59765e-17,17571.4,3380.32)">
        <circle cx="2589.32" cy="3017.39" r="128.424" style="fill:rgb(49,49,81);fill-opacity:0;"/>
    </g>
    <g transform="matrix(2.59765e-17,0.424228,-0.424228,2.59765e-17,17571.4,4742.62)">
        <circle cx="2589.32" cy="3017.39" r="128.424" style="fill:rgb(49,49,81);fill-opacity:0;"/>
    </g>
    <g transform="matrix(2.59765e-17,0.424228,-0.424228,2.59765e-17,17571.4,6126.33)">
        <circle cx="2589.32" cy="3017.39" r="128.424" style="fill:rgb(49,49,81);fill-opacity:0;"/>
    </g>
    <g transform="matrix(2.59765e-17,0.424228,-0.424228,2.59765e-17,17571.4,7443.78)">
        <circle cx="2589.32" cy="3017.39" r="128.424" style="fill:rgb(49,49,81);fill-opacity:0;"/>
    </g>
    <g transform="matrix(2.59765e-17,0.424228,-0.424228,2.59765e-17,20834.4,9641.41)">
        <circle cx="2589.32" cy="3017.39" r="128.424" style="fill:rgb(49,49,81);fill-opacity:0;"/>
    </g>
    <g transform="matrix(2.59765e-17,0.424228,-0.424228,2.59765e-17,20834.4,11855.5)">
        <circle cx="2589.32" cy="3017.39" r="128.424" style="fill:rgb(49,49,81);fill-opacity:0.2;"/>
    </g>
    <g transform="matrix(2.59765e-17,0.424228,-0.424228,2.59765e-17,20834.4,8771.53)">
        <circle cx="2589.32" cy="3017.39" r="128.424" style="fill:rgb(49,49,81);fill-opacity:0;"/>
    </g>
    <g transform="matrix(2.59765e-17,0.424228,-0.424228,2.59765e-17,20834.4,10969.2)">
        <circle cx="2589.32" cy="3017.39" r="128.424" style="fill:rgb(49,49,81);fill-opacity:0.2;"/>
    </g>
    <g transform="matrix(2.59765e-17,0.424228,-0.424228,2.59765e-17,17188,3162.4)">
        <circle cx="2589.32" cy="3017.39" r="128.424" style="fill:rgb(49,49,81);fill-opacity:0;"/>
    </g>
    <g transform="matrix(2.59765e-17,0.424228,-0.424228,2.59765e-17,17188,4524.7)">
        <circle cx="2589.32" cy="3017.39" r="128.424" style="fill:rgb(49,49,81);fill-opacity:0;"/>
    </g>
    <g transform="matrix(2.59765e-17,0.424228,-0.424228,2.59765e-17,17188,5908.41)">
        <circle cx="2589.32" cy="3017.39" r="128.424" style="fill:rgb(49,49,81);fill-opacity:0;"/>
    </g>
    <g transform="matrix(2.59765e-17,0.424228,-0.424228,2.59765e-17,17188,7225.86)">
        <circle cx="2589.32" cy="3017.39" r="128.424" style="fill:rgb(49,49,81);fill-opacity:0;"/>
    </g>
    <g transform="matrix(2.59765e-17,0.424228,-0.424228,2.59765e-17,20451,9423.49)">
        <circle cx="2589.32" cy="3017.39" r="128.424" style="fill:rgb(49,49,81);fill-opacity:0;"/>
    </g>
    <g transform="matrix(2.59765e-17,0.424228,-0.424228,2.59765e-17,20451,11637.6)">
        <circle cx="2589.32" cy="3017.39" r="128.424" style="fill:rgb(49,49,81);fill-opacity:0.2;"/>
    </g>
    <g transform="matrix(2.59765e-17,0.424228,-0.424228,2.59765e-17,20451,8553.61)">
        <circle cx="2589.32" cy="3017.39" r="128.424" style="fill:rgb(49,49,81);fill-opacity:0;"/>
    </g>
    <g transform="matrix(2.59765e-17,0.424228,-0.424228,2.59765e-17,20451,10751.2)">
        <circle cx="2589.32" cy="3017.39" r="128.424" style="fill:rgb(49,49,81);fill-opacity:0.2;"/>
    </g>
    <g transform="matrix(2.59765e-17,0.424228,-0.424228,2.59765e-17,20451,12965.4)">
        <circle cx="2589.32" cy="3017.39" r="128.424" style="fill:rgb(49,49,81);fill-opacity:0.2;"/>
    </g>
    <g transform="matrix(2.59765e-17,0.424228,-0.424228,2.59765e-17,17188,3598.25)">
        <circle cx="2589.32" cy="3017.39" r="128.424" style="fill:rgb(49,49,81);fill-opacity:0;"/>
    </g>
    <g transform="matrix(2.59765e-17,0.424228,-0.424228,2.59765e-17,17188,4960.54)">
        <circle cx="2589.32" cy="3017.39" r="128.424" style="fill:rgb(49,49,81);fill-opacity:0;"/>
    </g>
    <g transform="matrix(2.59765e-17,0.424228,-0.424228,2.59765e-17,17188,6344.26)">
        <circle cx="2589.32" cy="3017.39" r="128.424" style="fill:rgb(49,49,81);fill-opacity:0;"/>
    </g>
    <g transform="matrix(2.59765e-17,0.424228,-0.424228,2.59765e-17,17188,7661.71)">
        <circle cx="2589.32" cy="3017.39" r="128.424" style="fill:rgb(49,49,81);fill-opacity:0;"/>
    </g>
    <g transform="matrix(2.59765e-17,0.424228,-0.424228,2.59765e-17,20451,9859.34)">
        <circle cx="2589.32" cy="3017.39" r="128.424" style="fill:rgb(49,49,81);fill-opacity:0;"/>
    </g>
    <g transform="matrix(2.59765e-17,0.424228,-0.424228,2.59765e-17,20451,12073.5)">
        <circle cx="2589.32" cy="3017.39" r="128.424" style="fill:rgb(49,49,81);fill-opacity:0.2;"/>
    </g>
    <g transform="matrix(2.59765e-17,0.424228,-0.424228,2.59765e-17,20451,8989.45)">
        <circle cx="2589.32" cy="3017.39" r="128.424" style="fill:rgb(49,49,81);fill-opacity:0;"/>
    </g>
    <g transform="matrix(2.59765e-17,0.424228,-0.424228,2.59765e-17,20451,11187.1)">
        <circle cx="2589.32" cy="3017.39" r="128.424" style="fill:rgb(49,49,81);fill-opacity:0.2;"/>
    </g>
    <g transform="matrix(2.59765e-17,0.424228,-0.424228,2.59765e-17,17775.9,9201.42)">
        <circle cx="2589.32" cy="3017.39" r="128.424" style="fill:rgb(49,49,81);fill-opacity:0;"/>
    </g>
    <g transform="matrix(2.59765e-17,0.424228,-0.424228,2.59765e-17,17775.9,11415.5)">
        <circle cx="2589.32" cy="3017.39" r="128.424" style="fill:rgb(49,49,81);fill-opacity:0.2;"/>
    </g>
    <g transform="matrix(2.59765e-17,0.424228,-0.424228,2.59765e-17,17775.9,8331.54)">
        <circle cx="2589.32" cy="3017.39" r="128.424" style="fill:rgb(49,49,81);fill-opacity:0;"/>
    </g>
    <g transform="matrix(2.59765e-17,0.424228,-0.424228,2.59765e-17,17775.9,10529.2)">
        <circle cx="2589.32" cy="3017.39" r="128.424" style="fill:rgb(49,49,81);fill-opacity:0;"/>
    </g>
    <g transform="matrix(2.59765e-17,0.424228,-0.424228,2.59765e-17,17775.9,12743.3)">
        <circle cx="2589.32" cy="3017.39" r="128.424" style="fill:rgb(55,184,255);"/>
    </g>
    <g transform="matrix(2.59765e-17,0.424228,-0.424228,2.59765e-17,17775.9,9641.41)">
        <circle cx="2589.32" cy="3017.39" r="128.424" style="fill:rgb(49,49,81);fill-opacity:0;"/>
    </g>
    <g transform="matrix(2.59765e-17,0.424228,-0.424228,2.59765e-17,17775.9,11855.5)">
        <circle cx="2589.32" cy="3017.39" r="128.424" style="fill:rgb(55,184,255);"/>
    </g>
    <g transform="matrix(2.59765e-17,0.424228,-0.424228,2.59765e-17,17775.9,8771.53)">
        <circle cx="2589.32" cy="3017.39" r="128.424" style="fill:rgb(49,49,81);fill-opacity:0;"/>
    </g>
    <g transform="matrix(2.59765e-17,0.424228,-0.424228,2.59765e-17,17775.9,10969.2)">
        <circle cx="2589.32" cy="3017.39" r="128.424" style="fill:rgb(49,49,81);fill-opacity:0.2;"/>
    </g>
    <g transform="matrix(2.59765e-17,0.424228,-0.424228,2.59765e-17,17392.5,9423.49)">
        <circle cx="2589.32" cy="3017.39" r="128.424" style="fill:rgb(49,49,81);fill-opacity:0;"/>
    </g>
    <g transform="matrix(2.59765e-17,0.424228,-0.424228,2.59765e-17,17392.5,11637.6)">
        <circle cx="2589.32" cy="3017.39" r="128.424" style="fill:rgb(49,49,81);fill-opacity:0.2;"/>
    </g>
    <g transform="matrix(2.59765e-17,0.424228,-0.424228,2.59765e-17,17392.5,8553.61)">
        <circle cx="2589.32" cy="3017.39" r="128.424" style="fill:rgb(49,49,81);fill-opacity:0;"/>
    </g>
    <g transform="matrix(2.59765e-17,0.424228,-0.424228,2.59765e-17,17392.5,10751.2)">
        <circle cx="2589.32" cy="3017.39" r="128.424" style="fill:rgb(49,49,81);fill-opacity:0;"/>
    </g>
    <g transform="matrix(2.59765e-17,0.424228,-0.424228,2.59765e-17,17392.5,12965.4)">
        <circle cx="2589.32" cy="3017.39" r="128.424" style="fill:rgb(49,49,81);fill-opacity:0.2;"/>
    </g>
    <g transform="matrix(2.59765e-17,0.424228,-0.424228,2.59765e-17,17392.5,9859.34)">
        <circle cx="2589.32" cy="3017.39" r="128.424" style="fill:rgb(49,49,81);fill-opacity:0;"/>
    </g>
    <g transform="matrix(2.59765e-17,0.424228,-0.424228,2.59765e-17,17392.5,12073.5)">
        <circle cx="2589.32" cy="3017.39" r="128.424" style="fill:rgb(49,49,81);fill-opacity:0.2;"/>
    </g>
    <g transform="matrix(2.59765e-17,0.424228,-0.424228,2.59765e-17,17392.5,8989.45)">
        <circle cx="2589.32" cy="3017.39" r="128.424" style="fill:rgb(49,49,81);fill-opacity:0;"/>
    </g>
    <g transform="matrix(2.59765e-17,0.424228,-0.424228,2.59765e-17,17392.5,11187.1)">
        <circle cx="2589.32" cy="3017.39" r="128.424" style="fill:rgb(49,49,81);fill-opacity:0.2;"/>
    </g>
    <g transform="matrix(2.59765e-17,0.424228,-0.424228,2.59765e-17,20547.7,1731.85)">
        <circle cx="2589.32" cy="3017.39" r="128.424" style="fill:rgb(49,49,81);fill-opacity:0;"/>
    </g>
    <g transform="matrix(2.59765e-17,0.424228,-0.424228,2.59765e-17,6124.69,7003.79)">
        <circle cx="2589.32" cy="3017.39" r="128.424" style="fill:rgb(49,49,81);fill-opacity:0;"/>
    </g>
    <g transform="matrix(2.59765e-17,0.424228,-0.424228,2.59765e-17,11453.2,11415.5)">
        <circle cx="2589.32" cy="3017.39" r="128.424" style="fill:rgb(49,49,81);fill-opacity:0;"/>
    </g>
    <g transform="matrix(2.59765e-17,0.424228,-0.424228,2.59765e-17,11453.2,12743.3)">
        <circle cx="2589.32" cy="3017.39" r="128.424" style="fill:rgb(49,49,81);fill-opacity:0;"/>
    </g>
    <g transform="matrix(2.59765e-17,0.424228,-0.424228,2.59765e-17,11453.2,11855.5)">
        <circle cx="2589.32" cy="3017.39" r="128.424" style="fill:rgb(49,49,81);fill-opacity:0;"/>
    </g>
    <g transform="matrix(2.59765e-17,0.424228,-0.424228,2.59765e-17,11453.2,10969.2)">
        <circle cx="2589.32" cy="3017.39" r="128.424" style="fill:rgb(49,49,81);fill-opacity:0;"/>
    </g>
    <g transform="matrix(2.59765e-17,0.424228,-0.424228,2.59765e-17,11069.8,11637.6)">
        <circle cx="2589.32" cy="3017.39" r="128.424" style="fill:rgb(49,49,81);fill-opacity:0;"/>
    </g>
    <g transform="matrix(2.59765e-17,0.424228,-0.424228,2.59765e-17,11069.8,12965.4)">
        <circle cx="2589.32" cy="3017.39" r="128.424" style="fill:rgb(49,49,81);fill-opacity:0;"/>
    </g>
    <g transform="matrix(2.59765e-17,0.424228,-0.424228,2.59765e-17,5741.31,6344.26)">
        <circle cx="2589.32" cy="3017.39" r="128.424" style="fill:rgb(49,49,81);fill-opacity:0;"/>
    </g>
    <g transform="matrix(2.59765e-17,0.424228,-0.424228,2.59765e-17,11069.8,12073.5)">
        <circle cx="2589.32" cy="3017.39" r="128.424" style="fill:rgb(49,49,81);fill-opacity:0;"/>
    </g>
    <g transform="matrix(2.59765e-17,0.424228,-0.424228,2.59765e-17,11069.8,11187.1)">
        <circle cx="2589.32" cy="3017.39" r="128.424" style="fill:rgb(49,49,81);fill-opacity:0;"/>
    </g>
    <g transform="matrix(2.59765e-17,0.424228,-0.424228,2.59765e-17,3076.91,7003.79)">
        <circle cx="2589.32" cy="3017.39" r="128.424" style="fill:rgb(49,49,81);fill-opacity:0;"/>
    </g>
    <g transform="matrix(2.59765e-17,0.424228,-0.424228,2.59765e-17,3076.91,9201.42)">
        <circle cx="2589.32" cy="3017.39" r="128.424" style="fill:rgb(49,49,81);fill-opacity:0;"/>
    </g>
    <g transform="matrix(2.59765e-17,0.424228,-0.424228,2.59765e-17,3076.91,8331.54)">
        <circle cx="2589.32" cy="3017.39" r="128.424" style="fill:rgb(49,49,81);fill-opacity:0;"/>
    </g>
    <g transform="matrix(2.59765e-17,0.424228,-0.424228,2.59765e-17,3076.91,7443.78)">
        <circle cx="2589.32" cy="3017.39" r="128.424" style="fill:rgb(49,49,81);fill-opacity:0;"/>
    </g>
    <g transform="matrix(2.59765e-17,0.424228,-0.424228,2.59765e-17,3076.91,8771.53)">
        <circle cx="2589.32" cy="3017.39" r="128.424" style="fill:rgb(49,49,81);fill-opacity:0;"/>
    </g>
    <g transform="matrix(2.59765e-17,0.424228,-0.424228,2.59765e-17,2693.52,3162.4)">
        <circle cx="2589.32" cy="3017.39" r="128.424" style="fill:rgb(49,49,81);fill-opacity:0;"/>
    </g>
    <g transform="matrix(2.59765e-17,0.424228,-0.424228,2.59765e-17,2693.52,5908.41)">
        <circle cx="2589.32" cy="3017.39" r="128.424" style="fill:rgb(55,184,255);"/>
    </g>
    <g transform="matrix(2.59765e-17,0.424228,-0.424228,2.59765e-17,2693.52,7225.86)">
        <circle cx="2589.32" cy="3017.39" r="128.424" style="fill:rgb(49,49,81);fill-opacity:0;"/>
    </g>
    <g transform="matrix(2.59765e-17,0.424228,-0.424228,2.59765e-17,2693.52,9423.49)">
        <circle cx="2589.32" cy="3017.39" r="128.424" style="fill:rgb(49,49,81);fill-opacity:0;"/>
    </g>
    <g transform="matrix(2.59765e-17,0.424228,-0.424228,2.59765e-17,2693.52,8553.61)">
        <circle cx="2589.32" cy="3017.39" r="128.424" style="fill:rgb(49,49,81);fill-opacity:0;"/>
    </g>
    <g transform="matrix(2.59765e-17,0.424228,-0.424228,2.59765e-17,2693.52,3598.25)">
        <circle cx="2589.32" cy="3017.39" r="128.424" style="fill:rgb(49,49,81);fill-opacity:0;"/>
    </g>
    <g transform="matrix(2.59765e-17,0.424228,-0.424228,2.59765e-17,2693.52,6344.26)">
        <circle cx="2589.32" cy="3017.39" r="128.424" style="fill:rgb(55,184,255);"/>
    </g>
    <g transform="matrix(2.59765e-17,0.424228,-0.424228,2.59765e-17,2693.52,7661.71)">
        <circle cx="2589.32" cy="3017.39" r="128.424" style="fill:rgb(49,49,81);fill-opacity:0;"/>
    </g>
    <g transform="matrix(2.59765e-17,0.424228,-0.424228,2.59765e-17,2693.52,8989.45)">
        <circle cx="2589.32" cy="3017.39" r="128.424" style="fill:rgb(49,49,81);fill-opacity:0;"/>
    </g>
    <g transform="matrix(2.59765e-17,0.424228,-0.424228,2.59765e-17,19314.5,9201.42)">
        <circle cx="2589.32" cy="3017.39" r="128.424" style="fill:rgb(49,49,81);fill-opacity:0;"/>
    </g>
    <g transform="matrix(2.59765e-17,0.424228,-0.424228,2.59765e-17,19314.5,11415.5)">
        <circle cx="2589.32" cy="3017.39" r="128.424" style="fill:rgb(55,184,255);"/>
    </g>
    <g transform="matrix(2.59765e-17,0.424228,-0.424228,2.59765e-17,19314.5,8331.54)">
        <circle cx="2589.32" cy="3017.39" r="128.424" style="fill:rgb(49,49,81);fill-opacity:0;"/>
    </g>
    <g transform="matrix(2.59765e-17,0.424228,-0.424228,2.59765e-17,19314.5,10529.2)">
        <circle cx="2589.32" cy="3017.39" r="128.424" style="fill:rgb(49,49,81);fill-opacity:0.2;"/>
    </g>
    <g transform="matrix(2.59765e-17,0.424228,-0.424228,2.59765e-17,19314.5,12743.3)">
        <circle cx="2589.32" cy="3017.39" r="128.424" style="fill:rgb(49,49,81);fill-opacity:0.2;"/>
    </g>
    <g transform="matrix(2.59765e-17,0.424228,-0.424228,2.59765e-17,19314.5,9641.41)">
        <circle cx="2589.32" cy="3017.39" r="128.424" style="fill:rgb(49,49,81);fill-opacity:0.2;"/>
    </g>
    <g transform="matrix(2.59765e-17,0.424228,-0.424228,2.59765e-17,19314.5,11855.5)">
        <circle cx="2589.32" cy="3017.39" r="128.424" style="fill:rgb(49,49,81);fill-opacity:0.2;"/>
    </g>
    <g transform="matrix(2.59765e-17,0.424228,-0.424228,2.59765e-17,19314.5,8771.53)">
        <circle cx="2589.32" cy="3017.39" r="128.424" style="fill:rgb(49,49,81);fill-opacity:0;"/>
    </g>
    <g transform="matrix(2.59765e-17,0.424228,-0.424228,2.59765e-17,19314.5,10969.2)">
        <circle cx="2589.32" cy="3017.39" r="128.424" style="fill:rgb(49,49,81);fill-opacity:0.2;"/>
    </g>
    <g transform="matrix(2.59765e-17,0.424228,-0.424228,2.59765e-17,18931.1,9423.49)">
        <circle cx="2589.32" cy="3017.39" r="128.424" style="fill:rgb(49,49,81);fill-opacity:0.2;"/>
    </g>
    <g transform="matrix(2.59765e-17,0.424228,-0.424228,2.59765e-17,18931.1,11637.6)">
        <circle cx="2589.32" cy="3017.39" r="128.424" style="fill:rgb(49,49,81);fill-opacity:0.2;"/>
    </g>
    <g transform="matrix(2.59765e-17,0.424228,-0.424228,2.59765e-17,18931.1,8553.61)">
        <circle cx="2589.32" cy="3017.39" r="128.424" style="fill:rgb(49,49,81);fill-opacity:0;"/>
    </g>
    <g transform="matrix(2.59765e-17,0.424228,-0.424228,2.59765e-17,18931.1,10751.2)">
        <circle cx="2589.32" cy="3017.39" r="128.424" style="fill:rgb(49,49,81);fill-opacity:0.2;"/>
    </g>
    <g transform="matrix(2.59765e-17,0.424228,-0.424228,2.59765e-17,18931.1,12965.4)">
        <circle cx="2589.32" cy="3017.39" r="128.424" style="fill:rgb(49,49,81);fill-opacity:0.2;"/>
    </g>
    <g transform="matrix(2.59765e-17,0.424228,-0.424228,2.59765e-17,18931.1,9859.34)">
        <circle cx="2589.32" cy="3017.39" r="128.424" style="fill:rgb(49,49,81);fill-opacity:0.2;"/>
    </g>
    <g transform="matrix(2.59765e-17,0.424228,-0.424228,2.59765e-17,18931.1,12073.5)">
        <circle cx="2589.32" cy="3017.39" r="128.424" style="fill:rgb(49,49,81);fill-opacity:0.2;"/>
    </g>
    <g transform="matrix(2.59765e-17,0.424228,-0.424228,2.59765e-17,18931.1,8989.45)">
        <circle cx="2589.32" cy="3017.39" r="128.424" style="fill:rgb(49,49,81);fill-opacity:0;"/>
    </g>
    <g transform="matrix(2.59765e-17,0.424228,-0.424228,2.59765e-17,18931.1,11187.1)">
        <circle cx="2589.32" cy="3017.39" r="128.424" style="fill:rgb(55,184,255);"/>
    </g>
    <g transform="matrix(2.59765e-17,0.424228,-0.424228,2.59765e-17,22087.5,1731.85)">
        <circle cx="2589.32" cy="3017.39" r="128.424" style="fill:rgb(49,49,81);fill-opacity:0.2;"/>
    </g>
    <g transform="matrix(2.59765e-17,0.424228,-0.424228,2.59765e-17,22087.5,3094.14)">
        <circle cx="2589.32" cy="3017.39" r="128.424" style="fill:rgb(55,184,255);"/>
    </g>
    <g transform="matrix(2.59765e-17,0.424228,-0.424228,2.59765e-17,22087.5,4477.86)">
        <circle cx="2589.32" cy="3017.39" r="128.424" style="fill:rgb(49,49,81);fill-opacity:0.2;"/>
    </g>
    <g transform="matrix(2.59765e-17,0.424228,-0.424228,2.59765e-17,12993,11415.5)">
        <circle cx="2589.32" cy="3017.39" r="128.424" style="fill:rgb(49,49,81);fill-opacity:0;"/>
    </g>
    <g transform="matrix(2.59765e-17,0.424228,-0.424228,2.59765e-17,12993,12743.3)">
        <circle cx="2589.32" cy="3017.39" r="128.424" style="fill:rgb(49,49,81);fill-opacity:0;"/>
    </g>
    <g transform="matrix(2.59765e-17,0.424228,-0.424228,2.59765e-17,22087.5,2171.84)">
        <circle cx="2589.32" cy="3017.39" r="128.424" style="fill:rgb(49,49,81);fill-opacity:0.2;"/>
    </g>
    <g transform="matrix(2.59765e-17,0.424228,-0.424228,2.59765e-17,22087.5,3534.13)">
        <circle cx="2589.32" cy="3017.39" r="128.424" style="fill:rgb(49,49,81);fill-opacity:0.2;"/>
    </g>
    <g transform="matrix(2.59765e-17,0.424228,-0.424228,2.59765e-17,22087.5,4917.85)">
        <circle cx="2589.32" cy="3017.39" r="128.424" style="fill:rgb(49,49,81);fill-opacity:0.2;"/>
    </g>
    <g transform="matrix(2.59765e-17,0.424228,-0.424228,2.59765e-17,12993,11855.5)">
        <circle cx="2589.32" cy="3017.39" r="128.424" style="fill:rgb(49,49,81);fill-opacity:0;"/>
    </g>
    <g transform="matrix(2.59765e-17,0.424228,-0.424228,2.59765e-17,12993,10969.2)">
        <circle cx="2589.32" cy="3017.39" r="128.424" style="fill:rgb(49,49,81);fill-opacity:0;"/>
    </g>
    <g transform="matrix(2.59765e-17,0.424228,-0.424228,2.59765e-17,21704.1,1953.91)">
        <circle cx="2589.32" cy="3017.39" r="128.424" style="fill:rgb(49,49,81);fill-opacity:0.2;"/>
    </g>
    <g transform="matrix(2.59765e-17,0.424228,-0.424228,2.59765e-17,21704.1,4699.92)">
        <circle cx="2589.32" cy="3017.39" r="128.424" style="fill:rgb(49,49,81);fill-opacity:0.2;"/>
    </g>
    <g transform="matrix(2.59765e-17,0.424228,-0.424228,2.59765e-17,12609.6,11637.6)">
        <circle cx="2589.32" cy="3017.39" r="128.424" style="fill:rgb(49,49,81);fill-opacity:0;"/>
    </g>
    <g transform="matrix(2.59765e-17,0.424228,-0.424228,2.59765e-17,12609.6,12965.4)">
        <circle cx="2589.32" cy="3017.39" r="128.424" style="fill:rgb(49,49,81);fill-opacity:0;"/>
    </g>
    <g transform="matrix(2.59765e-17,0.424228,-0.424228,2.59765e-17,21704.1,2389.76)">
        <circle cx="2589.32" cy="3017.39" r="128.424" style="fill:rgb(55,184,255);"/>
    </g>
    <g transform="matrix(2.59765e-17,0.424228,-0.424228,2.59765e-17,21704.1,5135.77)">
        <circle cx="2589.32" cy="3017.39" r="128.424" style="fill:rgb(49,49,81);fill-opacity:0.2;"/>
    </g>
    <g transform="matrix(2.59765e-17,0.424228,-0.424228,2.59765e-17,12609.6,12073.5)">
        <circle cx="2589.32" cy="3017.39" r="128.424" style="fill:rgb(49,49,81);fill-opacity:0;"/>
    </g>
    <g transform="matrix(2.59765e-17,0.424228,-0.424228,2.59765e-17,12609.6,11187.1)">
        <circle cx="2589.32" cy="3017.39" r="128.424" style="fill:rgb(49,49,81);fill-opacity:0;"/>
    </g>
    <g transform="matrix(2.59765e-17,0.424228,-0.424228,2.59765e-17,2241.13,152.655)">
        <circle cx="2589.32" cy="3017.39" r="128.424" style="fill:rgb(49,49,81);fill-opacity:0.2;"/>
    </g>
    <g transform="matrix(2.59765e-17,0.424228,-0.424228,2.59765e-17,4604.72,7003.79)">
        <circle cx="2589.32" cy="3017.39" r="128.424" style="fill:rgb(49,49,81);fill-opacity:0;"/>
    </g>
    <g transform="matrix(2.59765e-17,0.424228,-0.424228,2.59765e-17,4221.34,6344.26)">
        <circle cx="2589.32" cy="3017.39" r="128.424" style="fill:rgb(49,49,81);fill-opacity:0;"/>
    </g>
    <g transform="matrix(2.59765e-17,0.424228,-0.424228,2.59765e-17,1556.94,4302.63)">
        <circle cx="2589.32" cy="3017.39" r="128.424" style="fill:rgb(49,49,81);fill-opacity:0;"/>
    </g>
    <g transform="matrix(2.59765e-17,0.424228,-0.424228,2.59765e-17,1556.94,5686.34)">
        <circle cx="2589.32" cy="3017.39" r="128.424" style="fill:rgb(49,49,81);fill-opacity:0;"/>
    </g>
    <g transform="matrix(2.59765e-17,0.424228,-0.424228,2.59765e-17,1556.94,7003.79)">
        <circle cx="2589.32" cy="3017.39" r="128.424" style="fill:rgb(49,49,81);fill-opacity:0;"/>
    </g>
    <g transform="matrix(2.59765e-17,0.424228,-0.424228,2.59765e-17,1556.94,9201.42)">
        <circle cx="2589.32" cy="3017.39" r="128.424" style="fill:rgb(49,49,81);fill-opacity:0.2;"/>
    </g>
    <g transform="matrix(2.59765e-17,0.424228,-0.424228,2.59765e-17,1556.94,8331.54)">
        <circle cx="2589.32" cy="3017.39" r="128.424" style="fill:rgb(49,49,81);fill-opacity:0.2;"/>
    </g>
    <g transform="matrix(2.59765e-17,0.424228,-0.424228,2.59765e-17,1556.94,3380.32)">
        <circle cx="2589.32" cy="3017.39" r="128.424" style="fill:rgb(49,49,81);fill-opacity:0;"/>
    </g>
    <g transform="matrix(2.59765e-17,0.424228,-0.424228,2.59765e-17,1556.94,4742.62)">
        <circle cx="2589.32" cy="3017.39" r="128.424" style="fill:rgb(49,49,81);fill-opacity:0;"/>
    </g>
    <g transform="matrix(2.59765e-17,0.424228,-0.424228,2.59765e-17,1556.94,6126.33)">
        <circle cx="2589.32" cy="3017.39" r="128.424" style="fill:rgb(49,49,81);fill-opacity:0;"/>
    </g>
    <g transform="matrix(2.59765e-17,0.424228,-0.424228,2.59765e-17,1556.94,7443.78)">
        <circle cx="2589.32" cy="3017.39" r="128.424" style="fill:rgb(49,49,81);fill-opacity:0;"/>
    </g>
    <g transform="matrix(2.59765e-17,0.424228,-0.424228,2.59765e-17,1556.94,8771.53)">
        <circle cx="2589.32" cy="3017.39" r="128.424" style="fill:rgb(49,49,81);fill-opacity:0.2;"/>
    </g>
    <g transform="matrix(2.59765e-17,0.424228,-0.424228,2.59765e-17,17571.4,1148.21)">
        <circle cx="2589.32" cy="3017.39" r="128.424" style="fill:rgb(49,49,81);fill-opacity:0;"/>
    </g>
    <g transform="matrix(2.59765e-17,0.424228,-0.424228,2.59765e-17,17571.4,1588.2)">
        <circle cx="2589.32" cy="3017.39" r="128.424" style="fill:rgb(49,49,81);fill-opacity:0;"/>
    </g>
    <g transform="matrix(2.59765e-17,0.424228,-0.424228,2.59765e-17,17188,1370.28)">
        <circle cx="2589.32" cy="3017.39" r="128.424" style="fill:rgb(49,49,81);fill-opacity:0;"/>
    </g>
    <g transform="matrix(2.59765e-17,0.424228,-0.424228,2.59765e-17,17188,1806.13)">
        <circle cx="2589.32" cy="3017.39" r="128.424" style="fill:rgb(49,49,81);fill-opacity:0;"/>
    </g>
    <g transform="matrix(2.59765e-17,0.424228,-0.424228,2.59765e-17,20547.7,379.716)">
        <circle cx="2589.32" cy="3017.39" r="128.424" style="fill:rgb(49,49,81);fill-opacity:0;"/>
    </g>
    <g transform="matrix(2.59765e-17,0.424228,-0.424228,2.59765e-17,22087.5,379.716)">
        <circle cx="2589.32" cy="3017.39" r="128.424" style="fill:rgb(49,49,81);fill-opacity:0;"/>
    </g>
    <g transform="matrix(2.59765e-17,0.424228,-0.424228,2.59765e-17,21704.1,161.792)">
        <circle cx="2589.32" cy="3017.39" r="128.424" style="fill:rgb(49,49,81);fill-opacity:0;"/>
    </g>
    <g transform="matrix(2.59765e-17,0.424228,-0.424228,2.59765e-17,21704.1,597.639)">
        <circle cx="2589.32" cy="3017.39" r="128.424" style="fill:rgb(49,49,81);fill-opacity:0.2;"/>
    </g>
    <g transform="matrix(2.59765e-17,0.424228,-0.424228,2.59765e-17,17571.4,242.499)">
        <circle cx="2589.32" cy="3017.39" r="128.424" style="fill:rgb(49,49,81);fill-opacity:0;"/>
    </g>
    <g transform="matrix(2.59765e-17,0.424228,-0.424228,2.59765e-17,17571.4,682.489)">
        <circle cx="2589.32" cy="3017.39" r="128.424" style="fill:rgb(49,49,81);fill-opacity:0;"/>
    </g>
    <g transform="matrix(2.59765e-17,0.424228,-0.424228,2.59765e-17,17188,464.565)">
        <circle cx="2589.32" cy="3017.39" r="128.424" style="fill:rgb(49,49,81);fill-opacity:0;"/>
    </g>
    <g transform="matrix(2.59765e-17,0.424228,-0.424228,2.59765e-17,17188,900.412)">
        <circle cx="2589.32" cy="3017.39" r="128.424" style="fill:rgb(49,49,81);fill-opacity:0;"/>
    </g>
    <g transform="matrix(2.59765e-17,0.424228,-0.424228,2.59765e-17,16810.7,-1115.24)">
        <circle cx="2589.32" cy="3017.39" r="128.424" style="fill:rgb(49,49,81);fill-opacity:0;"/>
    </g>
    <g transform="matrix(2.59765e-17,0.424228,-0.424228,2.59765e-17,6124.69,-1115.24)">
        <circle cx="2589.32" cy="3017.39" r="128.424" style="fill:rgb(49,49,81);fill-opacity:0;"/>
    </g>
    <g transform="matrix(2.59765e-17,0.424228,-0.424228,2.59765e-17,5741.31,-897.319)">
        <circle cx="2589.32" cy="3017.39" r="128.424" style="fill:rgb(49,49,81);fill-opacity:0;"/>
    </g>
    <g transform="matrix(2.59765e-17,0.424228,-0.424228,2.59765e-17,16810.7,2044.28)">
        <circle cx="2589.32" cy="3017.39" r="128.424" style="fill:rgb(49,49,81);fill-opacity:0;"/>
    </g>
    <g transform="matrix(2.59765e-17,0.424228,-0.424228,2.59765e-17,16810.7,2484.27)">
        <circle cx="2589.32" cy="3017.39" r="128.424" style="fill:rgb(49,49,81);fill-opacity:0;"/>
    </g>
    <g transform="matrix(2.59765e-17,0.424228,-0.424228,2.59765e-17,16810.7,3846.56)">
        <circle cx="2589.32" cy="3017.39" r="128.424" style="fill:rgb(49,49,81);fill-opacity:0;"/>
    </g>
    <g transform="matrix(2.59765e-17,0.424228,-0.424228,2.59765e-17,16810.7,5230.28)">
        <circle cx="2589.32" cy="3017.39" r="128.424" style="fill:rgb(49,49,81);fill-opacity:0;"/>
    </g>
    <g transform="matrix(2.59765e-17,0.424228,-0.424228,2.59765e-17,16810.7,6547.72)">
        <circle cx="2589.32" cy="3017.39" r="128.424" style="fill:rgb(49,49,81);fill-opacity:0;"/>
    </g>
    <g transform="matrix(2.59765e-17,0.424228,-0.424228,2.59765e-17,16810.7,7875.47)">
        <circle cx="2589.32" cy="3017.39" r="128.424" style="fill:rgb(49,49,81);fill-opacity:0;"/>
    </g>
    <g transform="matrix(2.59765e-17,0.424228,-0.424228,2.59765e-17,20073.7,10073.1)">
        <circle cx="2589.32" cy="3017.39" r="128.424" style="fill:rgb(49,49,81);fill-opacity:0.2;"/>
    </g>
    <g transform="matrix(2.59765e-17,0.424228,-0.424228,2.59765e-17,20073.7,12287.2)">
        <circle cx="2589.32" cy="3017.39" r="128.424" style="fill:rgb(49,49,81);fill-opacity:0.2;"/>
    </g>
    <g transform="matrix(2.59765e-17,0.424228,-0.424228,2.59765e-17,19690.3,10291)">
        <circle cx="2589.32" cy="3017.39" r="128.424" style="fill:rgb(49,49,81);fill-opacity:0.2;"/>
    </g>
    <g transform="matrix(2.59765e-17,0.424228,-0.424228,2.59765e-17,19690.3,12505.1)">
        <circle cx="2589.32" cy="3017.39" r="128.424" style="fill:rgb(49,49,81);fill-opacity:0.2;"/>
    </g>
    <g transform="matrix(2.59765e-17,0.424228,-0.424228,2.59765e-17,17015.2,10073.1)">
        <circle cx="2589.32" cy="3017.39" r="128.424" style="fill:rgb(49,49,81);fill-opacity:0;"/>
    </g>
    <g transform="matrix(2.59765e-17,0.424228,-0.424228,2.59765e-17,17015.2,12287.2)">
        <circle cx="2589.32" cy="3017.39" r="128.424" style="fill:rgb(49,49,81);fill-opacity:0.2;"/>
    </g>
    <g transform="matrix(2.59765e-17,0.424228,-0.424228,2.59765e-17,22463.4,1057.86)">
        <circle cx="2589.32" cy="3017.39" r="128.424" style="fill:rgb(49,49,81);fill-opacity:0.2;"/>
    </g>
    <g transform="matrix(2.59765e-17,0.424228,-0.424228,2.59765e-17,22463.4,1493.7)">
        <circle cx="2589.32" cy="3017.39" r="128.424" style="fill:rgb(49,49,81);fill-opacity:0.2;"/>
    </g>
    <g transform="matrix(2.59765e-17,0.424228,-0.424228,2.59765e-17,22463.4,2856)">
        <circle cx="2589.32" cy="3017.39" r="128.424" style="fill:rgb(49,49,81);fill-opacity:0.2;"/>
    </g>
    <g transform="matrix(2.59765e-17,0.424228,-0.424228,2.59765e-17,22463.4,4239.71)">
        <circle cx="2589.32" cy="3017.39" r="128.424" style="fill:rgb(49,49,81);fill-opacity:0.2;"/>
    </g>
    <g transform="matrix(2.59765e-17,0.424228,-0.424228,2.59765e-17,16631.8,12505.1)">
        <circle cx="2589.32" cy="3017.39" r="128.424" style="fill:rgb(49,49,81);fill-opacity:0.2;"/>
    </g>
    <g transform="matrix(2.59765e-17,0.424228,-0.424228,2.59765e-17,3000.36,-303.413)">
        <circle cx="2589.32" cy="3017.39" r="128.424" style="fill:rgb(49,49,81);fill-opacity:0.2;"/>
    </g>
    <g transform="matrix(2.59765e-17,0.424228,-0.424228,2.59765e-17,5363.95,6547.72)">
        <circle cx="2589.32" cy="3017.39" r="128.424" style="fill:rgb(49,49,81);fill-opacity:0;"/>
    </g>
    <g transform="matrix(2.59765e-17,0.424228,-0.424228,2.59765e-17,10692.4,12287.2)">
        <circle cx="2589.32" cy="3017.39" r="128.424" style="fill:rgb(49,49,81);fill-opacity:0;"/>
    </g>
    <g transform="matrix(2.59765e-17,0.424228,-0.424228,2.59765e-17,2616.98,-85.4898)">
        <circle cx="2589.32" cy="3017.39" r="128.424" style="fill:rgb(49,49,81);fill-opacity:0.2;"/>
    </g>
    <g transform="matrix(2.59765e-17,0.424228,-0.424228,2.59765e-17,4980.57,6765.65)">
        <circle cx="2589.32" cy="3017.39" r="128.424" style="fill:rgb(49,49,81);fill-opacity:0;"/>
    </g>
    <g transform="matrix(2.59765e-17,0.424228,-0.424228,2.59765e-17,2316.17,6547.72)">
        <circle cx="2589.32" cy="3017.39" r="128.424" style="fill:rgb(49,49,81);fill-opacity:0.2;"/>
    </g>
    <g transform="matrix(2.59765e-17,0.424228,-0.424228,2.59765e-17,2316.17,7875.47)">
        <circle cx="2589.32" cy="3017.39" r="128.424" style="fill:rgb(49,49,81);fill-opacity:0.2;"/>
    </g>
    <g transform="matrix(2.59765e-17,0.424228,-0.424228,2.59765e-17,1932.78,4064.48)">
        <circle cx="2589.32" cy="3017.39" r="128.424" style="fill:rgb(49,49,81);fill-opacity:0;"/>
    </g>
    <g transform="matrix(2.59765e-17,0.424228,-0.424228,2.59765e-17,1932.78,5448.2)">
        <circle cx="2589.32" cy="3017.39" r="128.424" style="fill:rgb(49,49,81);fill-opacity:0;"/>
    </g>
    <g transform="matrix(2.59765e-17,0.424228,-0.424228,2.59765e-17,1932.78,6765.65)">
        <circle cx="2589.32" cy="3017.39" r="128.424" style="fill:rgb(49,49,81);fill-opacity:0;"/>
    </g>
    <g transform="matrix(2.59765e-17,0.424228,-0.424228,2.59765e-17,1932.78,8093.39)">
        <circle cx="2589.32" cy="3017.39" r="128.424" style="fill:rgb(49,49,81);fill-opacity:0.2;"/>
    </g>
    <g transform="matrix(2.59765e-17,0.424228,-0.424228,2.59765e-17,18553.7,10073.1)">
        <circle cx="2589.32" cy="3017.39" r="128.424" style="fill:rgb(49,49,81);fill-opacity:0.2;"/>
    </g>
    <g transform="matrix(2.59765e-17,0.424228,-0.424228,2.59765e-17,18553.7,12287.2)">
        <circle cx="2589.32" cy="3017.39" r="128.424" style="fill:rgb(49,49,81);fill-opacity:0.2;"/>
    </g>
    <g transform="matrix(2.59765e-17,0.424228,-0.424228,2.59765e-17,18170.3,10291)">
        <circle cx="2589.32" cy="3017.39" r="128.424" style="fill:rgb(49,49,81);fill-opacity:0;"/>
    </g>
    <g transform="matrix(2.59765e-17,0.424228,-0.424228,2.59765e-17,18170.3,12505.1)">
        <circle cx="2589.32" cy="3017.39" r="128.424" style="fill:rgb(55,184,255);"/>
    </g>
    <g transform="matrix(2.59765e-17,0.424228,-0.424228,2.59765e-17,21326.8,835.79)">
        <circle cx="2589.32" cy="3017.39" r="128.424" style="fill:rgb(49,49,81);fill-opacity:0.2;"/>
    </g>
    <g transform="matrix(2.59765e-17,0.424228,-0.424228,2.59765e-17,21326.8,1275.78)">
        <circle cx="2589.32" cy="3017.39" r="128.424" style="fill:rgb(49,49,81);fill-opacity:0.2;"/>
    </g>
    <g transform="matrix(2.59765e-17,0.424228,-0.424228,2.59765e-17,21326.8,5339.24)">
        <circle cx="2589.32" cy="3017.39" r="128.424" style="fill:rgb(49,49,81);fill-opacity:0.2;"/>
    </g>
    <g transform="matrix(2.59765e-17,0.424228,-0.424228,2.59765e-17,12232.2,12287.2)">
        <circle cx="2589.32" cy="3017.39" r="128.424" style="fill:rgb(49,49,81);fill-opacity:0;"/>
    </g>
    <g transform="matrix(2.59765e-17,0.424228,-0.424228,2.59765e-17,20943.4,1057.86)">
        <circle cx="2589.32" cy="3017.39" r="128.424" style="fill:rgb(49,49,81);fill-opacity:0.2;"/>
    </g>
    <g transform="matrix(2.59765e-17,0.424228,-0.424228,2.59765e-17,20943.4,1493.7)">
        <circle cx="2589.32" cy="3017.39" r="128.424" style="fill:rgb(49,49,81);fill-opacity:0.2;"/>
    </g>
    <g transform="matrix(2.59765e-17,0.424228,-0.424228,2.59765e-17,11848.8,12505.1)">
        <circle cx="2589.32" cy="3017.39" r="128.424" style="fill:rgb(49,49,81);fill-opacity:0;"/>
    </g>
    <g transform="matrix(2.59765e-17,0.424228,-0.424228,2.59765e-17,1480.39,-303.413)">
        <circle cx="2589.32" cy="3017.39" r="128.424" style="fill:rgb(49,49,81);fill-opacity:0.2;"/>
    </g>
    <g transform="matrix(2.59765e-17,0.424228,-0.424228,2.59765e-17,3843.98,6547.72)">
        <circle cx="2589.32" cy="3017.39" r="128.424" style="fill:rgb(49,49,81);fill-opacity:0;"/>
    </g>
    <g transform="matrix(2.59765e-17,0.424228,-0.424228,2.59765e-17,3843.98,7875.47)">
        <circle cx="2589.32" cy="3017.39" r="128.424" style="fill:rgb(49,49,81);fill-opacity:0;"/>
    </g>
    <g transform="matrix(2.59765e-17,0.424228,-0.424228,2.59765e-17,3460.6,6765.65)">
        <circle cx="2589.32" cy="3017.39" r="128.424" style="fill:rgb(49,49,81);fill-opacity:0;"/>
    </g>
    <g transform="matrix(2.59765e-17,0.424228,-0.424228,2.59765e-17,3460.6,8093.39)">
        <circle cx="2589.32" cy="3017.39" r="128.424" style="fill:rgb(49,49,81);fill-opacity:0;"/>
    </g>
    <g transform="matrix(2.59765e-17,0.424228,-0.424228,2.59765e-17,6124.69,2044.28)">
        <circle cx="2589.32" cy="3017.39" r="128.424" style="fill:rgb(49,49,81);fill-opacity:0;"/>
    </g>
    <g transform="matrix(2.59765e-17,0.424228,-0.424228,2.59765e-17,6124.69,2484.27)">
        <circle cx="2589.32" cy="3017.39" r="128.424" style="fill:rgb(49,49,81);fill-opacity:0;"/>
    </g>
    <g transform="matrix(2.59765e-17,0.424228,-0.424228,2.59765e-17,5741.31,2266.34)">
        <circle cx="2589.32" cy="3017.39" r="128.424" style="fill:rgb(49,49,81);fill-opacity:0;"/>
    </g>
    <g transform="matrix(2.59765e-17,0.424228,-0.424228,2.59765e-17,5741.31,2702.19)">
        <circle cx="2589.32" cy="3017.39" r="128.424" style="fill:rgb(49,49,81);fill-opacity:0;"/>
    </g>
    <g transform="matrix(2.59765e-17,0.424228,-0.424228,2.59765e-17,16810.7,-659.175)">
        <circle cx="2589.32" cy="3017.39" r="128.424" style="fill:rgb(49,49,81);fill-opacity:0;"/>
    </g>
    <g transform="matrix(2.59765e-17,0.424228,-0.424228,2.59765e-17,16810.7,-219.185)">
        <circle cx="2589.32" cy="3017.39" r="128.424" style="fill:rgb(49,49,81);fill-opacity:0;"/>
    </g>
    <g transform="matrix(2.59765e-17,0.424228,-0.424228,2.59765e-17,6124.69,-659.175)">
        <circle cx="2589.32" cy="3017.39" r="128.424" style="fill:rgb(49,49,81);fill-opacity:0;"/>
    </g>
    <g transform="matrix(2.59765e-17,0.424228,-0.424228,2.59765e-17,6124.69,-219.185)">
        <circle cx="2589.32" cy="3017.39" r="128.424" style="fill:rgb(49,49,81);fill-opacity:0;"/>
    </g>
    <g transform="matrix(2.59765e-17,0.424228,-0.424228,2.59765e-17,5741.31,-437.108)">
        <circle cx="2589.32" cy="3017.39" r="128.424" style="fill:rgb(49,49,81);fill-opacity:0;"/>
    </g>
    <g transform="matrix(2.59765e-17,0.424228,-0.424228,2.59765e-17,5741.31,-1.26166)">
        <circle cx="2589.32" cy="3017.39" r="128.424" style="fill:rgb(49,49,81);fill-opacity:0;"/>
    </g>
    <g transform="matrix(2.59765e-17,0.424228,-0.424228,2.59765e-17,16810.7,2940.33)">
        <circle cx="2589.32" cy="3017.39" r="128.424" style="fill:rgb(49,49,81);fill-opacity:0;"/>
    </g>
    <g transform="matrix(2.59765e-17,0.424228,-0.424228,2.59765e-17,16810.7,4302.63)">
        <circle cx="2589.32" cy="3017.39" r="128.424" style="fill:rgb(49,49,81);fill-opacity:0;"/>
    </g>
    <g transform="matrix(2.59765e-17,0.424228,-0.424228,2.59765e-17,16810.7,5686.34)">
        <circle cx="2589.32" cy="3017.39" r="128.424" style="fill:rgb(49,49,81);fill-opacity:0;"/>
    </g>
    <g transform="matrix(2.59765e-17,0.424228,-0.424228,2.59765e-17,16810.7,7003.79)">
        <circle cx="2589.32" cy="3017.39" r="128.424" style="fill:rgb(49,49,81);fill-opacity:0;"/>
    </g>
    <g transform="matrix(2.59765e-17,0.424228,-0.424228,2.59765e-17,20073.7,9201.42)">
        <circle cx="2589.32" cy="3017.39" r="128.424" style="fill:rgb(49,49,81);fill-opacity:0;"/>
    </g>
    <g transform="matrix(2.59765e-17,0.424228,-0.424228,2.59765e-17,20073.7,11415.5)">
        <circle cx="2589.32" cy="3017.39" r="128.424" style="fill:rgb(49,49,81);fill-opacity:0.2;"/>
    </g>
    <g transform="matrix(2.59765e-17,0.424228,-0.424228,2.59765e-17,20073.7,8331.54)">
        <circle cx="2589.32" cy="3017.39" r="128.424" style="fill:rgb(49,49,81);fill-opacity:0;"/>
    </g>
    <g transform="matrix(2.59765e-17,0.424228,-0.424228,2.59765e-17,20073.7,10529.2)">
        <circle cx="2589.32" cy="3017.39" r="128.424" style="fill:rgb(55,184,255);"/>
    </g>
    <g transform="matrix(2.59765e-17,0.424228,-0.424228,2.59765e-17,20073.7,12743.3)">
        <circle cx="2589.32" cy="3017.39" r="128.424" style="fill:rgb(49,49,81);fill-opacity:0.2;"/>
    </g>
    <g transform="matrix(2.59765e-17,0.424228,-0.424228,2.59765e-17,16810.7,3380.32)">
        <circle cx="2589.32" cy="3017.39" r="128.424" style="fill:rgb(49,49,81);fill-opacity:0;"/>
    </g>
    <g transform="matrix(2.59765e-17,0.424228,-0.424228,2.59765e-17,16810.7,4742.62)">
        <circle cx="2589.32" cy="3017.39" r="128.424" style="fill:rgb(49,49,81);fill-opacity:0;"/>
    </g>
    <g transform="matrix(2.59765e-17,0.424228,-0.424228,2.59765e-17,16810.7,6126.33)">
        <circle cx="2589.32" cy="3017.39" r="128.424" style="fill:rgb(49,49,81);fill-opacity:0;"/>
    </g>
    <g transform="matrix(2.59765e-17,0.424228,-0.424228,2.59765e-17,16810.7,7443.78)">
        <circle cx="2589.32" cy="3017.39" r="128.424" style="fill:rgb(49,49,81);fill-opacity:0;"/>
    </g>
    <g transform="matrix(2.59765e-17,0.424228,-0.424228,2.59765e-17,20073.7,9641.41)">
        <circle cx="2589.32" cy="3017.39" r="128.424" style="fill:rgb(49,49,81);fill-opacity:0;"/>
    </g>
    <g transform="matrix(2.59765e-17,0.424228,-0.424228,2.59765e-17,20073.7,11855.5)">
        <circle cx="2589.32" cy="3017.39" r="128.424" style="fill:rgb(49,49,81);fill-opacity:0.2;"/>
    </g>
    <g transform="matrix(2.59765e-17,0.424228,-0.424228,2.59765e-17,20073.7,8771.53)">
        <circle cx="2589.32" cy="3017.39" r="128.424" style="fill:rgb(49,49,81);fill-opacity:0;"/>
    </g>
    <g transform="matrix(2.59765e-17,0.424228,-0.424228,2.59765e-17,20073.7,10969.2)">
        <circle cx="2589.32" cy="3017.39" r="128.424" style="fill:rgb(55,184,255);"/>
    </g>
    <g transform="matrix(2.59765e-17,0.424228,-0.424228,2.59765e-17,19690.3,9423.49)">
        <circle cx="2589.32" cy="3017.39" r="128.424" style="fill:rgb(49,49,81);fill-opacity:0;"/>
    </g>
    <g transform="matrix(2.59765e-17,0.424228,-0.424228,2.59765e-17,19690.3,11637.6)">
        <circle cx="2589.32" cy="3017.39" r="128.424" style="fill:rgb(49,49,81);fill-opacity:0.2;"/>
    </g>
    <g transform="matrix(2.59765e-17,0.424228,-0.424228,2.59765e-17,19690.3,8553.61)">
        <circle cx="2589.32" cy="3017.39" r="128.424" style="fill:rgb(49,49,81);fill-opacity:0;"/>
    </g>
    <g transform="matrix(2.59765e-17,0.424228,-0.424228,2.59765e-17,19690.3,10751.2)">
        <circle cx="2589.32" cy="3017.39" r="128.424" style="fill:rgb(49,49,81);fill-opacity:0.2;"/>
    </g>
    <g transform="matrix(2.59765e-17,0.424228,-0.424228,2.59765e-17,19690.3,12965.4)">
        <circle cx="2589.32" cy="3017.39" r="128.424" style="fill:rgb(49,49,81);fill-opacity:0.2;"/>
    </g>
    <g transform="matrix(2.59765e-17,0.424228,-0.424228,2.59765e-17,19690.3,9859.34)">
        <circle cx="2589.32" cy="3017.39" r="128.424" style="fill:rgb(49,49,81);fill-opacity:0.2;"/>
    </g>
    <g transform="matrix(2.59765e-17,0.424228,-0.424228,2.59765e-17,19690.3,12073.5)">
        <circle cx="2589.32" cy="3017.39" r="128.424" style="fill:rgb(49,49,81);fill-opacity:0.2;"/>
    </g>
    <g transform="matrix(2.59765e-17,0.424228,-0.424228,2.59765e-17,19690.3,8989.45)">
        <circle cx="2589.32" cy="3017.39" r="128.424" style="fill:rgb(49,49,81);fill-opacity:0;"/>
    </g>
    <g transform="matrix(2.59765e-17,0.424228,-0.424228,2.59765e-17,19690.3,11187.1)">
        <circle cx="2589.32" cy="3017.39" r="128.424" style="fill:rgb(55,184,255);"/>
    </g>
    <g transform="matrix(2.59765e-17,0.424228,-0.424228,2.59765e-17,17015.2,9201.42)">
        <circle cx="2589.32" cy="3017.39" r="128.424" style="fill:rgb(49,49,81);fill-opacity:0;"/>
    </g>
    <g transform="matrix(2.59765e-17,0.424228,-0.424228,2.59765e-17,17015.2,11415.5)">
        <circle cx="2589.32" cy="3017.39" r="128.424" style="fill:rgb(49,49,81);fill-opacity:0.2;"/>
    </g>
    <g transform="matrix(2.59765e-17,0.424228,-0.424228,2.59765e-17,17015.2,8331.54)">
        <circle cx="2589.32" cy="3017.39" r="128.424" style="fill:rgb(49,49,81);fill-opacity:0;"/>
    </g>
    <g transform="matrix(2.59765e-17,0.424228,-0.424228,2.59765e-17,17015.2,10529.2)">
        <circle cx="2589.32" cy="3017.39" r="128.424" style="fill:rgb(49,49,81);fill-opacity:0;"/>
    </g>
    <g transform="matrix(2.59765e-17,0.424228,-0.424228,2.59765e-17,17015.2,12743.3)">
        <circle cx="2589.32" cy="3017.39" r="128.424" style="fill:rgb(49,49,81);fill-opacity:0.2;"/>
    </g>
    <g transform="matrix(2.59765e-17,0.424228,-0.424228,2.59765e-17,17015.2,9641.41)">
        <circle cx="2589.32" cy="3017.39" r="128.424" style="fill:rgb(49,49,81);fill-opacity:0;"/>
    </g>
    <g transform="matrix(2.59765e-17,0.424228,-0.424228,2.59765e-17,17015.2,11855.5)">
        <circle cx="2589.32" cy="3017.39" r="128.424" style="fill:rgb(49,49,81);fill-opacity:0.2;"/>
    </g>
    <g transform="matrix(2.59765e-17,0.424228,-0.424228,2.59765e-17,17015.2,8771.53)">
        <circle cx="2589.32" cy="3017.39" r="128.424" style="fill:rgb(49,49,81);fill-opacity:0;"/>
    </g>
    <g transform="matrix(2.59765e-17,0.424228,-0.424228,2.59765e-17,17015.2,10969.2)">
        <circle cx="2589.32" cy="3017.39" r="128.424" style="fill:rgb(49,49,81);fill-opacity:0;"/>
    </g>
    <g transform="matrix(2.59765e-17,0.424228,-0.424228,2.59765e-17,22463.4,1953.91)">
        <circle cx="2589.32" cy="3017.39" r="128.424" style="fill:rgb(49,49,81);fill-opacity:0.2;"/>
    </g>
    <g transform="matrix(2.59765e-17,0.424228,-0.424228,2.59765e-17,22463.4,3316.21)">
        <circle cx="2589.32" cy="3017.39" r="128.424" style="fill:rgb(49,49,81);fill-opacity:0.2;"/>
    </g>
    <g transform="matrix(2.59765e-17,0.424228,-0.424228,2.59765e-17,22463.4,4699.92)">
        <circle cx="2589.32" cy="3017.39" r="128.424" style="fill:rgb(49,49,81);fill-opacity:0.2;"/>
    </g>
    <g transform="matrix(2.59765e-17,0.424228,-0.424228,2.59765e-17,16631.8,11637.6)">
        <circle cx="2589.32" cy="3017.39" r="128.424" style="fill:rgb(49,49,81);fill-opacity:0;"/>
    </g>
    <g transform="matrix(2.59765e-17,0.424228,-0.424228,2.59765e-17,16631.8,12965.4)">
        <circle cx="2589.32" cy="3017.39" r="128.424" style="fill:rgb(49,49,81);fill-opacity:0.2;"/>
    </g>
    <g transform="matrix(2.59765e-17,0.424228,-0.424228,2.59765e-17,22463.4,2389.76)">
        <circle cx="2589.32" cy="3017.39" r="128.424" style="fill:rgb(55,184,255);"/>
    </g>
    <g transform="matrix(2.59765e-17,0.424228,-0.424228,2.59765e-17,22463.4,3752.06)">
        <circle cx="2589.32" cy="3017.39" r="128.424" style="fill:rgb(49,49,81);fill-opacity:0.2;"/>
    </g>
    <g transform="matrix(2.59765e-17,0.424228,-0.424228,2.59765e-17,22463.4,5135.77)">
        <circle cx="2589.32" cy="3017.39" r="128.424" style="fill:rgb(49,49,81);fill-opacity:0.2;"/>
    </g>
    <g transform="matrix(2.59765e-17,0.424228,-0.424228,2.59765e-17,16631.8,12073.5)">
        <circle cx="2589.32" cy="3017.39" r="128.424" style="fill:rgb(49,49,81);fill-opacity:0;"/>
    </g>
    <g transform="matrix(2.59765e-17,0.424228,-0.424228,2.59765e-17,16631.8,11187.1)">
        <circle cx="2589.32" cy="3017.39" r="128.424" style="fill:rgb(49,49,81);fill-opacity:0;"/>
    </g>
    <g transform="matrix(2.59765e-17,0.424228,-0.424228,2.59765e-17,3000.36,152.655)">
        <circle cx="2589.32" cy="3017.39" r="128.424" style="fill:rgb(49,49,81);fill-opacity:0.2;"/>
    </g>
    <g transform="matrix(2.59765e-17,0.424228,-0.424228,2.59765e-17,5363.95,7003.79)">
        <circle cx="2589.32" cy="3017.39" r="128.424" style="fill:rgb(49,49,81);fill-opacity:0;"/>
    </g>
    <g transform="matrix(2.59765e-17,0.424228,-0.424228,2.59765e-17,10692.4,11415.5)">
        <circle cx="2589.32" cy="3017.39" r="128.424" style="fill:rgb(49,49,81);fill-opacity:0;"/>
    </g>
    <g transform="matrix(2.59765e-17,0.424228,-0.424228,2.59765e-17,10692.4,12743.3)">
        <circle cx="2589.32" cy="3017.39" r="128.424" style="fill:rgb(49,49,81);fill-opacity:0;"/>
    </g>
    <g transform="matrix(2.59765e-17,0.424228,-0.424228,2.59765e-17,10692.4,11855.5)">
        <circle cx="2589.32" cy="3017.39" r="128.424" style="fill:rgb(49,49,81);fill-opacity:0;"/>
    </g>
    <g transform="matrix(2.59765e-17,0.424228,-0.424228,2.59765e-17,10692.4,10969.2)">
        <circle cx="2589.32" cy="3017.39" r="128.424" style="fill:rgb(49,49,81);fill-opacity:0;"/>
    </g>
    <g transform="matrix(2.59765e-17,0.424228,-0.424228,2.59765e-17,4980.57,6344.26)">
        <circle cx="2589.32" cy="3017.39" r="128.424" style="fill:rgb(49,49,81);fill-opacity:0;"/>
    </g>
    <g transform="matrix(2.59765e-17,0.424228,-0.424228,2.59765e-17,2316.17,5686.34)">
        <circle cx="2589.32" cy="3017.39" r="128.424" style="fill:rgb(49,49,81);fill-opacity:0;"/>
    </g>
    <g transform="matrix(2.59765e-17,0.424228,-0.424228,2.59765e-17,2316.17,7003.79)">
        <circle cx="2589.32" cy="3017.39" r="128.424" style="fill:rgb(55,184,255);"/>
    </g>
    <g transform="matrix(2.59765e-17,0.424228,-0.424228,2.59765e-17,2316.17,9201.42)">
        <circle cx="2589.32" cy="3017.39" r="128.424" style="fill:rgb(49,49,81);fill-opacity:0;"/>
    </g>
    <g transform="matrix(2.59765e-17,0.424228,-0.424228,2.59765e-17,2316.17,8331.54)">
        <circle cx="2589.32" cy="3017.39" r="128.424" style="fill:rgb(49,49,81);fill-opacity:0.2;"/>
    </g>
    <g transform="matrix(2.59765e-17,0.424228,-0.424228,2.59765e-17,2316.17,3380.32)">
        <circle cx="2589.32" cy="3017.39" r="128.424" style="fill:rgb(49,49,81);fill-opacity:0;"/>
    </g>
    <g transform="matrix(2.59765e-17,0.424228,-0.424228,2.59765e-17,2316.17,6126.33)">
        <circle cx="2589.32" cy="3017.39" r="128.424" style="fill:rgb(49,49,81);fill-opacity:0;"/>
    </g>
    <g transform="matrix(2.59765e-17,0.424228,-0.424228,2.59765e-17,2316.17,7443.78)">
        <circle cx="2589.32" cy="3017.39" r="128.424" style="fill:rgb(55,184,255);"/>
    </g>
    <g transform="matrix(2.59765e-17,0.424228,-0.424228,2.59765e-17,2316.17,8771.53)">
        <circle cx="2589.32" cy="3017.39" r="128.424" style="fill:rgb(49,49,81);fill-opacity:0;"/>
    </g>
    <g transform="matrix(2.59765e-17,0.424228,-0.424228,2.59765e-17,1932.78,3162.4)">
        <circle cx="2589.32" cy="3017.39" r="128.424" style="fill:rgb(49,49,81);fill-opacity:0;"/>
    </g>
    <g transform="matrix(2.59765e-17,0.424228,-0.424228,2.59765e-17,1932.78,4524.7)">
        <circle cx="2589.32" cy="3017.39" r="128.424" style="fill:rgb(49,49,81);fill-opacity:0;"/>
    </g>
    <g transform="matrix(2.59765e-17,0.424228,-0.424228,2.59765e-17,1932.78,5908.41)">
        <circle cx="2589.32" cy="3017.39" r="128.424" style="fill:rgb(49,49,81);fill-opacity:0;"/>
    </g>
    <g transform="matrix(2.59765e-17,0.424228,-0.424228,2.59765e-17,1932.78,7225.86)">
        <circle cx="2589.32" cy="3017.39" r="128.424" style="fill:rgb(49,49,81);fill-opacity:0;"/>
    </g>
    <g transform="matrix(2.59765e-17,0.424228,-0.424228,2.59765e-17,1932.78,9423.49)">
        <circle cx="2589.32" cy="3017.39" r="128.424" style="fill:rgb(49,49,81);fill-opacity:0;"/>
    </g>
    <g transform="matrix(2.59765e-17,0.424228,-0.424228,2.59765e-17,1932.78,8553.61)">
        <circle cx="2589.32" cy="3017.39" r="128.424" style="fill:rgb(49,49,81);fill-opacity:0.2;"/>
    </g>
    <g transform="matrix(2.59765e-17,0.424228,-0.424228,2.59765e-17,1932.78,3598.25)">
        <circle cx="2589.32" cy="3017.39" r="128.424" style="fill:rgb(49,49,81);fill-opacity:0;"/>
    </g>
    <g transform="matrix(2.59765e-17,0.424228,-0.424228,2.59765e-17,1932.78,4960.54)">
        <circle cx="2589.32" cy="3017.39" r="128.424" style="fill:rgb(49,49,81);fill-opacity:0;"/>
    </g>
    <g transform="matrix(2.59765e-17,0.424228,-0.424228,2.59765e-17,1932.78,6344.26)">
        <circle cx="2589.32" cy="3017.39" r="128.424" style="fill:rgb(49,49,81);fill-opacity:0;"/>
    </g>
    <g transform="matrix(2.59765e-17,0.424228,-0.424228,2.59765e-17,1932.78,7661.71)">
        <circle cx="2589.32" cy="3017.39" r="128.424" style="fill:rgb(49,49,81);fill-opacity:0.2;"/>
    </g>
    <g transform="matrix(2.59765e-17,0.424228,-0.424228,2.59765e-17,1932.78,8989.45)">
        <circle cx="2589.32" cy="3017.39" r="128.424" style="fill:rgb(49,49,81);fill-opacity:0;"/>
    </g>
    <g transform="matrix(2.59765e-17,0.424228,-0.424228,2.59765e-17,18553.7,9201.42)">
        <circle cx="2589.32" cy="3017.39" r="128.424" style="fill:rgb(49,49,81);fill-opacity:0.2;"/>
    </g>
    <g transform="matrix(2.59765e-17,0.424228,-0.424228,2.59765e-17,18553.7,11415.5)">
        <circle cx="2589.32" cy="3017.39" r="128.424" style="fill:rgb(49,49,81);fill-opacity:0.2;"/>
    </g>
    <g transform="matrix(2.59765e-17,0.424228,-0.424228,2.59765e-17,18553.7,8331.54)">
        <circle cx="2589.32" cy="3017.39" r="128.424" style="fill:rgb(49,49,81);fill-opacity:0;"/>
    </g>
    <g transform="matrix(2.59765e-17,0.424228,-0.424228,2.59765e-17,18553.7,10529.2)">
        <circle cx="2589.32" cy="3017.39" r="128.424" style="fill:rgb(49,49,81);fill-opacity:0.2;"/>
    </g>
    <g transform="matrix(2.59765e-17,0.424228,-0.424228,2.59765e-17,18553.7,12743.3)">
        <circle cx="2589.32" cy="3017.39" r="128.424" style="fill:rgb(49,49,81);fill-opacity:0.2;"/>
    </g>
    <g transform="matrix(2.59765e-17,0.424228,-0.424228,2.59765e-17,18553.7,9641.41)">
        <circle cx="2589.32" cy="3017.39" r="128.424" style="fill:rgb(49,49,81);fill-opacity:0.2;"/>
    </g>
    <g transform="matrix(2.59765e-17,0.424228,-0.424228,2.59765e-17,18553.7,11855.5)">
        <circle cx="2589.32" cy="3017.39" r="128.424" style="fill:rgb(49,49,81);fill-opacity:0.2;"/>
    </g>
    <g transform="matrix(2.59765e-17,0.424228,-0.424228,2.59765e-17,18553.7,8771.53)">
        <circle cx="2589.32" cy="3017.39" r="128.424" style="fill:rgb(49,49,81);fill-opacity:0;"/>
    </g>
    <g transform="matrix(2.59765e-17,0.424228,-0.424228,2.59765e-17,18553.7,10969.2)">
        <circle cx="2589.32" cy="3017.39" r="128.424" style="fill:rgb(49,49,81);fill-opacity:0.2;"/>
    </g>
    <g transform="matrix(2.59765e-17,0.424228,-0.424228,2.59765e-17,18170.3,9423.49)">
        <circle cx="2589.32" cy="3017.39" r="128.424" style="fill:rgb(49,49,81);fill-opacity:0;"/>
    </g>
    <g transform="matrix(2.59765e-17,0.424228,-0.424228,2.59765e-17,18170.3,11637.6)">
        <circle cx="2589.32" cy="3017.39" r="128.424" style="fill:rgb(49,49,81);fill-opacity:0.2;"/>
    </g>
    <g transform="matrix(2.59765e-17,0.424228,-0.424228,2.59765e-17,18170.3,8553.61)">
        <circle cx="2589.32" cy="3017.39" r="128.424" style="fill:rgb(49,49,81);fill-opacity:0;"/>
    </g>
    <g transform="matrix(2.59765e-17,0.424228,-0.424228,2.59765e-17,18170.3,10751.2)">
        <circle cx="2589.32" cy="3017.39" r="128.424" style="fill:rgb(49,49,81);fill-opacity:0.2;"/>
    </g>
    <g transform="matrix(2.59765e-17,0.424228,-0.424228,2.59765e-17,18170.3,12965.4)">
        <circle cx="2589.32" cy="3017.39" r="128.424" style="fill:rgb(49,49,81);fill-opacity:0.2;"/>
    </g>
    <g transform="matrix(2.59765e-17,0.424228,-0.424228,2.59765e-17,18170.3,9859.34)">
        <circle cx="2589.32" cy="3017.39" r="128.424" style="fill:rgb(49,49,81);fill-opacity:0;"/>
    </g>
    <g transform="matrix(2.59765e-17,0.424228,-0.424228,2.59765e-17,18170.3,12073.5)">
        <circle cx="2589.32" cy="3017.39" r="128.424" style="fill:rgb(55,184,255);"/>
    </g>
    <g transform="matrix(2.59765e-17,0.424228,-0.424228,2.59765e-17,18170.3,8989.45)">
        <circle cx="2589.32" cy="3017.39" r="128.424" style="fill:rgb(49,49,81);fill-opacity:0;"/>
    </g>
    <g transform="matrix(2.59765e-17,0.424228,-0.424228,2.59765e-17,18170.3,11187.1)">
        <circle cx="2589.32" cy="3017.39" r="128.424" style="fill:rgb(49,49,81);fill-opacity:0.2;"/>
    </g>
    <g transform="matrix(2.59765e-17,0.424228,-0.424228,2.59765e-17,21326.8,1731.85)">
        <circle cx="2589.32" cy="3017.39" r="128.424" style="fill:rgb(49,49,81);fill-opacity:0.2;"/>
    </g>
    <g transform="matrix(2.59765e-17,0.424228,-0.424228,2.59765e-17,12232.2,11415.5)">
        <circle cx="2589.32" cy="3017.39" r="128.424" style="fill:rgb(49,49,81);fill-opacity:0;"/>
    </g>
    <g transform="matrix(2.59765e-17,0.424228,-0.424228,2.59765e-17,12232.2,12743.3)">
        <circle cx="2589.32" cy="3017.39" r="128.424" style="fill:rgb(49,49,81);fill-opacity:0;"/>
    </g>
    <g transform="matrix(2.59765e-17,0.424228,-0.424228,2.59765e-17,21326.8,2171.84)">
        <circle cx="2589.32" cy="3017.39" r="128.424" style="fill:rgb(49,49,81);fill-opacity:0.2;"/>
    </g>
    <g transform="matrix(2.59765e-17,0.424228,-0.424228,2.59765e-17,21326.8,4917.85)">
        <circle cx="2589.32" cy="3017.39" r="128.424" style="fill:rgb(49,49,81);fill-opacity:0.2;"/>
    </g>
    <g transform="matrix(2.59765e-17,0.424228,-0.424228,2.59765e-17,12232.2,11855.5)">
        <circle cx="2589.32" cy="3017.39" r="128.424" style="fill:rgb(49,49,81);fill-opacity:0;"/>
    </g>
    <g transform="matrix(2.59765e-17,0.424228,-0.424228,2.59765e-17,12232.2,10969.2)">
        <circle cx="2589.32" cy="3017.39" r="128.424" style="fill:rgb(49,49,81);fill-opacity:0;"/>
    </g>
    <g transform="matrix(2.59765e-17,0.424228,-0.424228,2.59765e-17,20943.4,1953.91)">
        <circle cx="2589.32" cy="3017.39" r="128.424" style="fill:rgb(49,49,81);fill-opacity:0.2;"/>
    </g>
    <g transform="matrix(2.59765e-17,0.424228,-0.424228,2.59765e-17,11848.8,11637.6)">
        <circle cx="2589.32" cy="3017.39" r="128.424" style="fill:rgb(49,49,81);fill-opacity:0;"/>
    </g>
    <g transform="matrix(2.59765e-17,0.424228,-0.424228,2.59765e-17,11848.8,12965.4)">
        <circle cx="2589.32" cy="3017.39" r="128.424" style="fill:rgb(49,49,81);fill-opacity:0;"/>
    </g>
    <g transform="matrix(2.59765e-17,0.424228,-0.424228,2.59765e-17,20943.4,5135.77)">
        <circle cx="2589.32" cy="3017.39" r="128.424" style="fill:rgb(49,49,81);fill-opacity:0.2;"/>
    </g>
    <g transform="matrix(2.59765e-17,0.424228,-0.424228,2.59765e-17,11848.8,12073.5)">
        <circle cx="2589.32" cy="3017.39" r="128.424" style="fill:rgb(49,49,81);fill-opacity:0;"/>
    </g>
    <g transform="matrix(2.59765e-17,0.424228,-0.424228,2.59765e-17,11848.8,11187.1)">
        <circle cx="2589.32" cy="3017.39" r="128.424" style="fill:rgb(49,49,81);fill-opacity:0;"/>
    </g>
    <g transform="matrix(2.59765e-17,0.424228,-0.424228,2.59765e-17,1480.39,152.655)">
        <circle cx="2589.32" cy="3017.39" r="128.424" style="fill:rgb(49,49,81);fill-opacity:0.2;"/>
    </g>
    <g transform="matrix(2.59765e-17,0.424228,-0.424228,2.59765e-17,3843.98,7003.79)">
        <circle cx="2589.32" cy="3017.39" r="128.424" style="fill:rgb(49,49,81);fill-opacity:0;"/>
    </g>
    <g transform="matrix(2.59765e-17,0.424228,-0.424228,2.59765e-17,3843.98,9201.42)">
        <circle cx="2589.32" cy="3017.39" r="128.424" style="fill:rgb(49,49,81);fill-opacity:0;"/>
    </g>
    <g transform="matrix(2.59765e-17,0.424228,-0.424228,2.59765e-17,3843.98,8331.54)">
        <circle cx="2589.32" cy="3017.39" r="128.424" style="fill:rgb(49,49,81);fill-opacity:0;"/>
    </g>
    <g transform="matrix(2.59765e-17,0.424228,-0.424228,2.59765e-17,3843.98,7443.78)">
        <circle cx="2589.32" cy="3017.39" r="128.424" style="fill:rgb(49,49,81);fill-opacity:0;"/>
    </g>
    <g transform="matrix(2.59765e-17,0.424228,-0.424228,2.59765e-17,3843.98,8771.53)">
        <circle cx="2589.32" cy="3017.39" r="128.424" style="fill:rgb(49,49,81);fill-opacity:0;"/>
    </g>
    <g transform="matrix(2.59765e-17,0.424228,-0.424228,2.59765e-17,3460.6,7225.86)">
        <circle cx="2589.32" cy="3017.39" r="128.424" style="fill:rgb(49,49,81);fill-opacity:0;"/>
    </g>
    <g transform="matrix(2.59765e-17,0.424228,-0.424228,2.59765e-17,3460.6,9423.49)">
        <circle cx="2589.32" cy="3017.39" r="128.424" style="fill:rgb(49,49,81);fill-opacity:0;"/>
    </g>
    <g transform="matrix(2.59765e-17,0.424228,-0.424228,2.59765e-17,3460.6,8553.61)">
        <circle cx="2589.32" cy="3017.39" r="128.424" style="fill:rgb(49,49,81);fill-opacity:0;"/>
    </g>
    <g transform="matrix(2.59765e-17,0.424228,-0.424228,2.59765e-17,3460.6,6344.26)">
        <circle cx="2589.32" cy="3017.39" r="128.424" style="fill:rgb(49,49,81);fill-opacity:0;"/>
    </g>
    <g transform="matrix(2.59765e-17,0.424228,-0.424228,2.59765e-17,3460.6,7661.71)">
        <circle cx="2589.32" cy="3017.39" r="128.424" style="fill:rgb(49,49,81);fill-opacity:0;"/>
    </g>
    <g transform="matrix(2.59765e-17,0.424228,-0.424228,2.59765e-17,3460.6,8989.45)">
        <circle cx="2589.32" cy="3017.39" r="128.424" style="fill:rgb(49,49,81);fill-opacity:0;"/>
    </g>
    <g transform="matrix(2.59765e-17,0.424228,-0.424228,2.59765e-17,16810.7,1148.21)">
        <circle cx="2589.32" cy="3017.39" r="128.424" style="fill:rgb(49,49,81);fill-opacity:0;"/>
    </g>
    <g transform="matrix(2.59765e-17,0.424228,-0.424228,2.59765e-17,16810.7,1588.2)">
        <circle cx="2589.32" cy="3017.39" r="128.424" style="fill:rgb(49,49,81);fill-opacity:0;"/>
    </g>
    <g transform="matrix(2.59765e-17,0.424228,-0.424228,2.59765e-17,22463.4,161.792)">
        <circle cx="2589.32" cy="3017.39" r="128.424" style="fill:rgb(49,49,81);fill-opacity:0;"/>
    </g>
    <g transform="matrix(2.59765e-17,0.424228,-0.424228,2.59765e-17,22463.4,597.639)">
        <circle cx="2589.32" cy="3017.39" r="128.424" style="fill:rgb(49,49,81);fill-opacity:0;"/>
    </g>
    <g transform="matrix(2.59765e-17,0.424228,-0.424228,2.59765e-17,21326.8,379.716)">
        <circle cx="2589.32" cy="3017.39" r="128.424" style="fill:rgb(49,49,81);fill-opacity:0;"/>
    </g>
    <g transform="matrix(2.59765e-17,0.424228,-0.424228,2.59765e-17,20943.4,161.792)">
        <circle cx="2589.32" cy="3017.39" r="128.424" style="fill:rgb(49,49,81);fill-opacity:0;"/>
    </g>
    <g transform="matrix(2.59765e-17,0.424228,-0.424228,2.59765e-17,20943.4,597.639)">
        <circle cx="2589.32" cy="3017.39" r="128.424" style="fill:rgb(49,49,81);fill-opacity:0;"/>
    </g>
    <g transform="matrix(2.59765e-17,0.424228,-0.424228,2.59765e-17,6124.69,1148.21)">
        <circle cx="2589.32" cy="3017.39" r="128.424" style="fill:rgb(49,49,81);fill-opacity:0;"/>
    </g>
    <g transform="matrix(2.59765e-17,0.424228,-0.424228,2.59765e-17,6124.69,1588.2)">
        <circle cx="2589.32" cy="3017.39" r="128.424" style="fill:rgb(49,49,81);fill-opacity:0;"/>
    </g>
    <g transform="matrix(2.59765e-17,0.424228,-0.424228,2.59765e-17,5741.31,1370.28)">
        <circle cx="2589.32" cy="3017.39" r="128.424" style="fill:rgb(49,49,81);fill-opacity:0;"/>
    </g>
    <g transform="matrix(2.59765e-17,0.424228,-0.424228,2.59765e-17,5741.31,1806.13)">
        <circle cx="2589.32" cy="3017.39" r="128.424" style="fill:rgb(49,49,81);fill-opacity:0;"/>
    </g>
    <g transform="matrix(2.59765e-17,0.424228,-0.424228,2.59765e-17,16810.7,242.499)">
        <circle cx="2589.32" cy="3017.39" r="128.424" style="fill:rgb(49,49,81);fill-opacity:0;"/>
    </g>
    <g transform="matrix(2.59765e-17,0.424228,-0.424228,2.59765e-17,16810.7,682.489)">
        <circle cx="2589.32" cy="3017.39" r="128.424" style="fill:rgb(49,49,81);fill-opacity:0;"/>
    </g>
    <g transform="matrix(2.59765e-17,0.424228,-0.424228,2.59765e-17,6124.69,242.499)">
        <circle cx="2589.32" cy="3017.39" r="128.424" style="fill:rgb(49,49,81);fill-opacity:0;"/>
    </g>
    <g transform="matrix(2.59765e-17,0.424228,-0.424228,2.59765e-17,6124.69,682.489)">
        <circle cx="2589.32" cy="3017.39" r="128.424" style="fill:rgb(49,49,81);fill-opacity:0;"/>
    </g>
    <g transform="matrix(2.59765e-17,0.424228,-0.424228,2.59765e-17,5741.31,464.565)">
        <circle cx="2589.32" cy="3017.39" r="128.424" style="fill:rgb(49,49,81);fill-opacity:0;"/>
    </g>
    <g transform="matrix(2.59765e-17,0.424228,-0.424228,2.59765e-17,5741.31,900.412)">
        <circle cx="2589.32" cy="3017.39" r="128.424" style="fill:rgb(49,49,81);fill-opacity:0;"/>
    </g>
</svg>
